G04*
G04 #@! TF.GenerationSoftware,Altium Limited,Altium Designer,20.1.8 (145)*
G04*
G04 Layer_Color=16711935*
%FSLAX25Y25*%
%MOIN*%
G70*
G04*
G04 #@! TF.SameCoordinates,B35A1E83-565F-458B-9861-D0C388072C63*
G04*
G04*
G04 #@! TF.FilePolarity,Positive*
G04*
G01*
G75*
%ADD13C,0.01000*%
D13*
X165097Y236365D02*
G03*
X161554Y236365I-1772J197D01*
G01*
X297638Y266535D02*
G03*
X297638Y270079I197J1772D01*
G01*
X317334D02*
G03*
X317334Y266535I-197J-1772D01*
G01*
X138583Y238976D02*
G03*
X138583Y235433I-197J-1772D01*
G01*
X95472Y335827D02*
G03*
X99016Y335827I1772J-197D01*
G01*
Y316339D02*
G03*
X95472Y316339I-1772J197D01*
G01*
X63976Y348819D02*
G03*
X63976Y352362I197J1772D01*
G01*
X83672D02*
G03*
X83672Y348819I-197J-1772D01*
G01*
X34657Y352362D02*
G03*
X34657Y348819I-197J-1772D01*
G01*
X14961D02*
G03*
X14961Y352362I197J1772D01*
G01*
X50000Y316339D02*
G03*
X46457Y316339I-1772J197D01*
G01*
Y335827D02*
G03*
X50000Y335827I1772J-197D01*
G01*
X259449Y267520D02*
G03*
X255906Y267520I-1772J197D01*
G01*
Y287008D02*
G03*
X259449Y287008I1772J-197D01*
G01*
X209460Y327953D02*
G03*
X209460Y324409I-197J-1772D01*
G01*
X189764D02*
G03*
X189764Y327953I197J1772D01*
G01*
X317334Y130709D02*
G03*
X317334Y127165I-197J-1772D01*
G01*
X297638D02*
G03*
X297638Y130709I197J1772D01*
G01*
X259449Y174213D02*
G03*
X255906Y174213I-1772J197D01*
G01*
Y193701D02*
G03*
X259449Y193701I1772J-197D01*
G01*
X209460Y238976D02*
G03*
X209460Y235433I-197J-1772D01*
G01*
X189764D02*
G03*
X189764Y238976I197J1772D01*
G01*
X137008Y233662D02*
G03*
X133465Y233662I-1772J197D01*
G01*
Y253150D02*
G03*
X137008Y253150I1772J-197D01*
G01*
X42924Y307087D02*
G03*
X42924Y303543I-197J-1772D01*
G01*
X23228D02*
G03*
X23228Y307087I197J1772D01*
G01*
X259646Y48622D02*
G03*
X256102Y48622I-1772J197D01*
G01*
Y68110D02*
G03*
X259646Y68110I1772J-197D01*
G01*
X207491Y122441D02*
G03*
X207491Y118898I-197J-1772D01*
G01*
X187795D02*
G03*
X187795Y122441I197J1772D01*
G01*
X95276Y122441D02*
G03*
X95276Y125984I197J1772D01*
G01*
X72441Y122441D02*
G03*
X72441Y125984I-12916805J1772D01*
G01*
X114972D02*
G03*
X114972Y122441I-197J-1772D01*
G01*
X161417Y71260D02*
G03*
X164961Y71260I1772J-197D01*
G01*
Y51772D02*
G03*
X161417Y51772I-1772J197D01*
G01*
X22835Y122441D02*
G03*
X22835Y125984I197J1772D01*
G01*
X0D02*
G03*
X0Y122441I722J-1772D01*
G01*
X42531Y125984D02*
G03*
X42531Y122441I-197J-1772D01*
G01*
X68898Y98425D02*
G03*
X72441Y98425I1772J-197D01*
G01*
Y78937D02*
G03*
X68898Y78937I-1772J197D01*
G01*
X72441Y15945D02*
G03*
X68898Y15945I-1772J197D01*
G01*
Y35433D02*
G03*
X72441Y35433I1772J-197D01*
G01*
X42531Y62992D02*
G03*
X42531Y59449I-197J-1772D01*
G01*
X-787D02*
G03*
X-787Y62992I-12916805J1772D01*
G01*
X22835Y59449D02*
G03*
X22835Y62992I197J1772D01*
G01*
X255906Y122441D02*
Y174213D01*
X259449Y122441D02*
Y174213D01*
X207491Y122441D02*
X259646D01*
X363779Y272180D02*
Y275308D01*
Y267520D02*
Y270648D01*
Y290819D02*
Y293947D01*
Y286159D02*
Y289287D01*
Y290819D01*
Y270648D02*
Y272180D01*
Y365376D02*
Y367717D01*
Y360716D02*
Y363844D01*
Y365376D01*
Y342077D02*
Y349865D01*
Y360716D01*
Y275308D02*
Y286159D01*
Y293947D02*
Y342077D01*
X357874Y367717D02*
X363779D01*
X255906Y368110D02*
X259449D01*
Y325984D02*
Y368110D01*
X255906Y325984D02*
X259449D01*
X255906D02*
Y368110D01*
X357874Y268898D02*
X362402D01*
X363779Y267520D01*
X357874Y293307D02*
Y367717D01*
X317334Y270079D02*
X363779D01*
Y266535D02*
Y270079D01*
X357874Y268898D02*
Y293307D01*
X165097Y123622D02*
Y236365D01*
X161554Y123622D02*
Y236365D01*
Y123622D02*
X165097D01*
X152463Y125984D02*
X164961D01*
X114972D02*
X127469D01*
X257874Y266535D02*
X297638D01*
X257874Y270079D02*
X297638D01*
X317334Y266535D02*
X363779D01*
X257874D02*
Y270079D01*
X363779Y127165D02*
Y130709D01*
X137008Y303543D02*
Y307087D01*
X42924D02*
X137008D01*
Y324409D01*
X189764D01*
X137008Y253150D02*
Y298425D01*
Y305512D01*
X133465Y303543D02*
Y327953D01*
Y303543D02*
X137008D01*
X95472Y335827D02*
Y348819D01*
X99016Y335827D02*
Y352362D01*
Y303937D02*
Y316339D01*
X95472Y303937D02*
Y316339D01*
Y303937D02*
X99016D01*
X83672Y352362D02*
X99016D01*
X49016Y352362D02*
X63976D01*
X83672Y348819D02*
X95472D01*
X49016D02*
X63976D01*
X49016D02*
Y352362D01*
X-394Y348819D02*
Y352362D01*
Y348819D02*
X14961D01*
X34657D02*
X46457D01*
X-394Y352362D02*
X14961D01*
X34657Y352362D02*
X50000D01*
X46457Y303937D02*
X50000D01*
X46457D02*
Y316339D01*
X50000Y303937D02*
Y316339D01*
Y335827D02*
Y352362D01*
X46457Y335827D02*
Y348819D01*
X209460Y324409D02*
X255906D01*
Y287008D02*
Y324410D01*
Y215748D02*
X259449D01*
X255906D02*
Y267520D01*
X259449Y215748D02*
Y267520D01*
X209460Y327953D02*
X259449D01*
Y287008D02*
Y327953D01*
X133465Y327953D02*
X189764D01*
X257874Y127165D02*
Y130709D01*
X317334Y130709D02*
X363779D01*
X317334Y127165D02*
X363779D01*
X257874Y130709D02*
X297638D01*
X257874Y127165D02*
X297638D01*
X259449Y193701D02*
Y238976D01*
X255906Y193701D02*
Y235433D01*
X209460Y238976D02*
X259449D01*
X209460Y235433D02*
X255906D01*
Y122441D02*
X259449D01*
X138583Y238976D02*
X189764D01*
X138583Y235433D02*
X189764D01*
X133465Y125984D02*
X137008D01*
X-787Y303543D02*
Y307087D01*
X89370Y181102D02*
X92913D01*
X133465Y125984D02*
Y233662D01*
X137008Y125984D02*
Y233662D01*
X133465Y253150D02*
Y303543D01*
X42924Y303543D02*
X133465D01*
X-787Y307087D02*
X23228D01*
X-787Y303543D02*
X23228D01*
X164961Y118898D02*
Y122441D01*
X256102Y-787D02*
X259646D01*
X256102D02*
Y48622D01*
X259646Y-787D02*
Y48622D01*
Y68110D02*
Y122441D01*
X256102Y68110D02*
Y118898D01*
X207491Y118898D02*
X256102D01*
X164961Y122441D02*
X187795D01*
X164961Y118898D02*
X187795D01*
X72441Y122441D02*
X95276D01*
X72441Y125984D02*
X95276D01*
X114972Y122441D02*
X161417D01*
X161417Y71260D02*
Y122441D01*
X164961Y71260D02*
Y125984D01*
X127469D02*
X152463D01*
X164961Y-787D02*
Y51772D01*
X161417Y-787D02*
Y51772D01*
Y-787D02*
X164961D01*
X0Y122441D02*
X22835D01*
X0Y125984D02*
X22835D01*
X42531Y122441D02*
X68898D01*
Y98425D02*
Y122441D01*
X72441Y98425D02*
Y125591D01*
X42531Y125984D02*
X72441D01*
Y62992D02*
Y78937D01*
X68898Y62992D02*
Y78937D01*
Y62992D02*
X72441D01*
X68898Y-787D02*
X72441D01*
X68898D02*
Y15945D01*
X72441Y-787D02*
X72441Y-787D01*
Y15945D01*
Y62599D02*
Y62992D01*
X42531D02*
X72441D01*
Y35433D02*
Y62599D01*
X68898Y35433D02*
Y59449D01*
X42531D02*
X68898D01*
X-787Y62992D02*
X22835D01*
X-787Y59449D02*
X22835D01*
X255906Y239370D02*
X138189D01*
Y324803D01*
X255906D02*
X138189D01*
X255906Y239370D02*
Y324803D01*
X72441Y0D02*
Y122441D01*
X161024D01*
Y0D02*
Y122441D01*
X72441Y0D02*
X161024D01*
X259646Y0D02*
Y127165D01*
X363583D01*
Y0D02*
Y127165D01*
X259646Y0D02*
X363583D01*
X362598Y266535D02*
Y130709D01*
X260236D01*
Y266535D02*
Y130709D01*
X362598Y266535D02*
X260236D01*
X357874Y367717D02*
Y270079D01*
X259842D01*
Y367717D02*
Y270079D01*
X357874Y367717D02*
X259842D01*
X164961Y0D02*
Y119291D01*
X256299D01*
Y0D02*
Y119291D01*
X164961Y0D02*
X256299D01*
X87Y125929D02*
Y303882D01*
X133551D01*
Y125929D02*
Y303882D01*
X87Y125929D02*
X133551D01*
X255905Y235441D02*
Y122449D01*
X164961D01*
Y235441D02*
Y122449D01*
X255905Y235441D02*
X164961D01*
X45500Y307087D02*
X0D01*
Y349087D01*
X45500D02*
X0D01*
X45500Y307087D02*
Y349087D01*
X50169D02*
X95669D01*
Y307087D01*
X50169D02*
X95669D01*
X50169Y349087D02*
Y307087D01*
X-0Y62992D02*
Y123622D01*
X68897D01*
Y62992D02*
Y123622D01*
X-0Y62992D02*
X68897D01*
X0Y0D02*
Y60630D01*
X68898D01*
Y0D02*
Y60630D01*
X0Y0D02*
X68898D01*
M02*
