G04*
G04 #@! TF.GenerationSoftware,Altium Limited,Altium Designer,20.1.8 (145)*
G04*
G04 Layer_Color=8421504*
%FSLAX25Y25*%
%MOIN*%
G70*
G04*
G04 #@! TF.SameCoordinates,B35A1E83-565F-458B-9861-D0C388072C63*
G04*
G04*
G04 #@! TF.FilePolarity,Positive*
G04*
G01*
G75*
%ADD14R,0.03740X0.01968*%
%ADD15R,0.03150X0.03150*%
G04:AMPARAMS|DCode=16|XSize=31.5mil|YSize=31.5mil|CornerRadius=7.87mil|HoleSize=0mil|Usage=FLASHONLY|Rotation=90.000|XOffset=0mil|YOffset=0mil|HoleType=Round|Shape=RoundedRectangle|*
%AMROUNDEDRECTD16*
21,1,0.03150,0.01575,0,0,90.0*
21,1,0.01575,0.03150,0,0,90.0*
1,1,0.01575,0.00787,0.00787*
1,1,0.01575,0.00787,-0.00787*
1,1,0.01575,-0.00787,-0.00787*
1,1,0.01575,-0.00787,0.00787*
%
%ADD16ROUNDEDRECTD16*%
%ADD17R,0.47244X0.15748*%
%ADD18R,0.01968X0.03740*%
%ADD19R,0.03150X0.03150*%
G04:AMPARAMS|DCode=20|XSize=31.5mil|YSize=31.5mil|CornerRadius=7.87mil|HoleSize=0mil|Usage=FLASHONLY|Rotation=0.000|XOffset=0mil|YOffset=0mil|HoleType=Round|Shape=RoundedRectangle|*
%AMROUNDEDRECTD20*
21,1,0.03150,0.01575,0,0,0.0*
21,1,0.01575,0.03150,0,0,0.0*
1,1,0.01575,0.00787,-0.00787*
1,1,0.01575,-0.00787,-0.00787*
1,1,0.01575,-0.00787,0.00787*
1,1,0.01575,0.00787,0.00787*
%
%ADD20ROUNDEDRECTD20*%
%ADD21R,0.09567X0.05236*%
%ADD22R,0.09843X0.06693*%
%ADD23R,0.03937X0.05512*%
%ADD24R,0.05315X0.01575*%
%ADD25R,0.05512X0.06299*%
%ADD26R,0.05118X0.05709*%
%ADD27R,0.07480X0.07480*%
%ADD29R,0.02362X0.02362*%
%ADD30R,0.03543X0.02756*%
%ADD31R,0.03543X0.01968*%
G04:AMPARAMS|DCode=32|XSize=19.68mil|YSize=37.4mil|CornerRadius=4.92mil|HoleSize=0mil|Usage=FLASHONLY|Rotation=270.000|XOffset=0mil|YOffset=0mil|HoleType=Round|Shape=RoundedRectangle|*
%AMROUNDEDRECTD32*
21,1,0.01968,0.02756,0,0,270.0*
21,1,0.00984,0.03740,0,0,270.0*
1,1,0.00984,-0.01378,-0.00492*
1,1,0.00984,-0.01378,0.00492*
1,1,0.00984,0.01378,0.00492*
1,1,0.00984,0.01378,-0.00492*
%
%ADD32ROUNDEDRECTD32*%
D14*
X301772Y96260D02*
D03*
Y91142D02*
D03*
Y55905D02*
D03*
Y50787D02*
D03*
X41000Y332028D02*
D03*
Y337146D02*
D03*
X54669Y324146D02*
D03*
Y319028D02*
D03*
X54724Y78150D02*
D03*
Y83268D02*
D03*
X35827Y83161D02*
D03*
Y78043D02*
D03*
X45276Y78043D02*
D03*
Y83161D02*
D03*
X54724Y15157D02*
D03*
Y20276D02*
D03*
X35827Y20169D02*
D03*
Y15051D02*
D03*
X45276Y15051D02*
D03*
Y20169D02*
D03*
D15*
X301772Y80709D02*
D03*
Y39567D02*
D03*
D16*
Y74803D02*
D03*
Y33661D02*
D03*
D17*
X332004Y160339D02*
D03*
Y180024D02*
D03*
Y199709D02*
D03*
Y219394D02*
D03*
Y239079D02*
D03*
D18*
X193504Y9449D02*
D03*
X188386D02*
D03*
X90638Y161953D02*
D03*
X85520D02*
D03*
X90638Y146402D02*
D03*
X85520D02*
D03*
X80992Y219236D02*
D03*
X75874D02*
D03*
X85520Y177504D02*
D03*
X90638D02*
D03*
D19*
X179331Y9449D02*
D03*
X76268Y161953D02*
D03*
Y146402D02*
D03*
Y177504D02*
D03*
X41339Y105799D02*
D03*
X41339Y42807D02*
D03*
D20*
X173425Y9449D02*
D03*
X70362Y161953D02*
D03*
Y146402D02*
D03*
Y177504D02*
D03*
X35433Y105799D02*
D03*
X35433Y42807D02*
D03*
D21*
X117409Y241283D02*
D03*
Y209787D02*
D03*
Y272780D02*
D03*
Y264906D02*
D03*
Y257031D02*
D03*
Y249158D02*
D03*
Y233410D02*
D03*
Y225535D02*
D03*
D22*
X73709Y235378D02*
D03*
X89457D02*
D03*
D23*
X73512Y206638D02*
D03*
X77252Y197976D02*
D03*
X80992Y206638D02*
D03*
D24*
X111209Y147583D02*
D03*
Y150142D02*
D03*
Y152701D02*
D03*
Y155260D02*
D03*
Y157819D02*
D03*
D25*
X112094Y140102D02*
D03*
Y165299D02*
D03*
D26*
X121740Y139217D02*
D03*
Y166185D02*
D03*
D27*
Y147976D02*
D03*
Y157425D02*
D03*
D29*
X242559Y185441D02*
D03*
Y190953D02*
D03*
X242480Y174811D02*
D03*
Y169299D02*
D03*
D30*
X242520Y203112D02*
D03*
Y197206D02*
D03*
X242520Y163591D02*
D03*
Y157685D02*
D03*
D31*
X23000Y337146D02*
D03*
Y332028D02*
D03*
X32000Y337146D02*
D03*
Y332028D02*
D03*
X72669Y319028D02*
D03*
Y324146D02*
D03*
X63669Y319028D02*
D03*
Y324146D02*
D03*
D32*
X61023Y95686D02*
D03*
Y90568D02*
D03*
X61024Y32694D02*
D03*
Y27576D02*
D03*
M02*
