G04*
G04 #@! TF.GenerationSoftware,Altium Limited,Altium Designer,20.1.8 (145)*
G04*
G04 Layer_Color=16711935*
%FSLAX25Y25*%
%MOIN*%
G70*
G04*
G04 #@! TF.SameCoordinates,29347EB1-9AE6-4B45-909D-0775014661E7*
G04*
G04*
G04 #@! TF.FilePolarity,Negative*
G04*
G01*
G75*
%ADD40C,0.05118*%
%ADD41R,0.05118X0.05118*%
%ADD69R,0.48044X0.16548*%
%ADD71R,0.03950X0.03950*%
G04:AMPARAMS|DCode=72|XSize=39.5mil|YSize=39.5mil|CornerRadius=11.87mil|HoleSize=0mil|Usage=FLASHONLY|Rotation=0.000|XOffset=0mil|YOffset=0mil|HoleType=Round|Shape=RoundedRectangle|*
%AMROUNDEDRECTD72*
21,1,0.03950,0.01575,0,0,0.0*
21,1,0.01575,0.03950,0,0,0.0*
1,1,0.02375,0.00787,-0.00787*
1,1,0.02375,-0.00787,-0.00787*
1,1,0.02375,-0.00787,0.00787*
1,1,0.02375,0.00787,0.00787*
%
%ADD72ROUNDEDRECTD72*%
%ADD73R,0.10367X0.06036*%
%ADD84C,0.00922*%
%ADD85C,0.00800*%
%ADD86C,0.06706*%
%ADD87R,0.06706X0.06706*%
%ADD88R,0.06706X0.06706*%
%ADD89C,0.04737*%
%ADD90C,0.12611*%
%ADD91C,0.08280*%
%ADD92R,0.06824X0.06824*%
%ADD93C,0.06824*%
%ADD94C,0.03162*%
%ADD95C,0.07099*%
%ADD96R,0.07099X0.07099*%
%ADD97C,0.09461*%
%ADD98R,0.06422X0.06422*%
%ADD99C,0.06422*%
%ADD100C,0.13855*%
%ADD101R,0.06036X0.10367*%
%ADD102R,0.02769X0.04737*%
%ADD103R,0.03950X0.04147*%
G04:AMPARAMS|DCode=104|XSize=41.47mil|YSize=39.5mil|CornerRadius=11.87mil|HoleSize=0mil|Usage=FLASHONLY|Rotation=270.000|XOffset=0mil|YOffset=0mil|HoleType=Round|Shape=RoundedRectangle|*
%AMROUNDEDRECTD104*
21,1,0.04147,0.01575,0,0,270.0*
21,1,0.01772,0.03950,0,0,270.0*
1,1,0.02375,-0.00787,-0.00886*
1,1,0.02375,-0.00787,0.00886*
1,1,0.02375,0.00787,0.00886*
1,1,0.02375,0.00787,-0.00886*
%
%ADD104ROUNDEDRECTD104*%
D40*
X123941Y81248D02*
D03*
Y73374D02*
D03*
Y65500D02*
D03*
Y57626D02*
D03*
Y49752D02*
D03*
D41*
Y41878D02*
D03*
D69*
X332004Y160339D02*
D03*
Y180024D02*
D03*
Y199709D02*
D03*
Y219394D02*
D03*
Y239079D02*
D03*
D71*
X41339Y105799D02*
D03*
X41339Y42807D02*
D03*
D72*
X35433Y105799D02*
D03*
X35433Y42807D02*
D03*
D73*
X99941Y47878D02*
D03*
Y55752D02*
D03*
Y71500D02*
D03*
Y79374D02*
D03*
Y87248D02*
D03*
Y95122D02*
D03*
Y32130D02*
D03*
Y63626D02*
D03*
X330709Y334646D02*
D03*
Y326772D02*
D03*
Y311024D02*
D03*
Y303150D02*
D03*
Y295276D02*
D03*
Y287402D02*
D03*
Y350394D02*
D03*
Y318898D02*
D03*
X239764Y75197D02*
D03*
Y67323D02*
D03*
Y51575D02*
D03*
Y43701D02*
D03*
Y35827D02*
D03*
Y27953D02*
D03*
Y90945D02*
D03*
Y59449D02*
D03*
X238976Y194496D02*
D03*
Y186622D02*
D03*
Y170874D02*
D03*
Y163000D02*
D03*
Y155126D02*
D03*
Y147252D02*
D03*
Y210244D02*
D03*
Y178748D02*
D03*
D84*
X311417Y266929D02*
D03*
X307480D02*
D03*
X299606D02*
D03*
X303543D02*
D03*
Y269685D02*
D03*
X299606D02*
D03*
X307480D02*
D03*
X311417D02*
D03*
X98622Y322047D02*
D03*
Y318110D02*
D03*
Y325984D02*
D03*
Y329921D02*
D03*
X95866D02*
D03*
Y325984D02*
D03*
Y318110D02*
D03*
Y322047D02*
D03*
X77756Y349213D02*
D03*
X73819D02*
D03*
X69882D02*
D03*
X65945D02*
D03*
X77756Y351969D02*
D03*
X73819D02*
D03*
X69882D02*
D03*
X65945D02*
D03*
X16929D02*
D03*
X20866D02*
D03*
X24803D02*
D03*
X28740D02*
D03*
X16929Y349213D02*
D03*
X20866D02*
D03*
X24803D02*
D03*
X28740D02*
D03*
X46850Y322047D02*
D03*
Y318110D02*
D03*
Y325984D02*
D03*
Y329921D02*
D03*
X49606D02*
D03*
Y325984D02*
D03*
Y318110D02*
D03*
Y322047D02*
D03*
X195669Y324803D02*
D03*
X191732D02*
D03*
X199606D02*
D03*
X203543D02*
D03*
Y327559D02*
D03*
X199606D02*
D03*
X191732D02*
D03*
X195669D02*
D03*
X259055Y281102D02*
D03*
Y277165D02*
D03*
Y269291D02*
D03*
Y273228D02*
D03*
X256299D02*
D03*
Y269291D02*
D03*
Y277165D02*
D03*
Y281102D02*
D03*
X311417Y130315D02*
D03*
X307480D02*
D03*
X299606D02*
D03*
X303543D02*
D03*
Y127559D02*
D03*
X299606D02*
D03*
X307480D02*
D03*
X311417D02*
D03*
X195669Y235827D02*
D03*
X191732D02*
D03*
X199606D02*
D03*
X203543D02*
D03*
Y238583D02*
D03*
X199606D02*
D03*
X191732D02*
D03*
X195669D02*
D03*
X259055Y187795D02*
D03*
Y183858D02*
D03*
Y175984D02*
D03*
Y179921D02*
D03*
X256299D02*
D03*
Y175984D02*
D03*
Y183858D02*
D03*
Y187795D02*
D03*
X133858Y239370D02*
D03*
Y235433D02*
D03*
Y243307D02*
D03*
Y247244D02*
D03*
X136614D02*
D03*
Y243307D02*
D03*
Y235433D02*
D03*
Y239370D02*
D03*
X37008Y306693D02*
D03*
X33071D02*
D03*
X25197D02*
D03*
X29134D02*
D03*
Y303937D02*
D03*
X25197D02*
D03*
X33071D02*
D03*
X37008D02*
D03*
X201575Y122047D02*
D03*
X197638D02*
D03*
X189764D02*
D03*
X193701D02*
D03*
Y119291D02*
D03*
X189764D02*
D03*
X197638D02*
D03*
X201575D02*
D03*
X259252Y62205D02*
D03*
Y58268D02*
D03*
Y50394D02*
D03*
Y54331D02*
D03*
X256496D02*
D03*
Y50394D02*
D03*
Y58268D02*
D03*
Y62205D02*
D03*
X161811Y65354D02*
D03*
Y61417D02*
D03*
Y53543D02*
D03*
Y57480D02*
D03*
X164567D02*
D03*
Y53543D02*
D03*
Y61417D02*
D03*
Y65354D02*
D03*
X109055Y122835D02*
D03*
X105118D02*
D03*
X97244D02*
D03*
X101181D02*
D03*
Y125591D02*
D03*
X97244D02*
D03*
X105118D02*
D03*
X109055D02*
D03*
X36614Y122835D02*
D03*
X32677D02*
D03*
X24803D02*
D03*
X28740D02*
D03*
Y125591D02*
D03*
X24803D02*
D03*
X32677D02*
D03*
X36614D02*
D03*
X69291Y92520D02*
D03*
Y88583D02*
D03*
Y80709D02*
D03*
Y84646D02*
D03*
X72047D02*
D03*
Y80709D02*
D03*
Y88583D02*
D03*
Y92520D02*
D03*
X72047Y29528D02*
D03*
Y25591D02*
D03*
Y17717D02*
D03*
Y21654D02*
D03*
X69291D02*
D03*
Y17717D02*
D03*
Y25591D02*
D03*
Y29528D02*
D03*
X36614Y62598D02*
D03*
X32677D02*
D03*
X24803D02*
D03*
X28740D02*
D03*
Y59842D02*
D03*
X24803D02*
D03*
X32677D02*
D03*
X36614D02*
D03*
D85*
X315354Y266929D02*
D03*
Y269685D02*
D03*
X98622Y333858D02*
D03*
X95866D02*
D03*
X81693Y349213D02*
D03*
Y351969D02*
D03*
X32677D02*
D03*
Y349213D02*
D03*
X46850Y333858D02*
D03*
X49606D02*
D03*
X207480Y324803D02*
D03*
Y327559D02*
D03*
X259055Y285039D02*
D03*
X256299D02*
D03*
X315354Y130315D02*
D03*
Y127559D02*
D03*
X207480Y235827D02*
D03*
Y238583D02*
D03*
X259055Y191732D02*
D03*
X256299D02*
D03*
X133858Y251181D02*
D03*
X136614D02*
D03*
X40945Y306693D02*
D03*
Y303937D02*
D03*
X205512Y122047D02*
D03*
Y119291D02*
D03*
X259252Y66142D02*
D03*
X256496D02*
D03*
X161811Y69291D02*
D03*
X164567D02*
D03*
X112992Y122835D02*
D03*
Y125591D02*
D03*
X40551Y122835D02*
D03*
Y125591D02*
D03*
X69291Y96457D02*
D03*
X72047D02*
D03*
X72047Y33465D02*
D03*
X69291D02*
D03*
X40551Y62598D02*
D03*
Y59842D02*
D03*
D86*
X194488Y303740D02*
D03*
X221063Y302756D02*
D03*
Y294882D02*
D03*
Y310630D02*
D03*
X173228Y287008D02*
D03*
Y302756D02*
D03*
Y294882D02*
D03*
X131783Y16000D02*
D03*
X131783Y111000D02*
D03*
X276181Y88976D02*
D03*
Y49016D02*
D03*
X280315Y225394D02*
D03*
X280709Y183465D02*
D03*
X77842Y262543D02*
D03*
X34622Y319587D02*
D03*
X18874D02*
D03*
X26748D02*
D03*
X61047Y336587D02*
D03*
X76795D02*
D03*
X68921D02*
D03*
X13386Y89764D02*
D03*
Y105512D02*
D03*
Y97638D02*
D03*
X34449Y68594D02*
D03*
X52165D02*
D03*
Y94185D02*
D03*
X13386Y26772D02*
D03*
Y42520D02*
D03*
Y34646D02*
D03*
X34449Y5602D02*
D03*
X52165D02*
D03*
Y31193D02*
D03*
D87*
X194488Y293898D02*
D03*
X276181Y79134D02*
D03*
Y39173D02*
D03*
X280315Y215551D02*
D03*
X280709Y173622D02*
D03*
X11000Y319587D02*
D03*
X84669Y336587D02*
D03*
D88*
X221063Y287008D02*
D03*
X173228Y310630D02*
D03*
X121941Y16000D02*
D03*
Y111000D02*
D03*
X87685Y262543D02*
D03*
X13386Y113386D02*
D03*
X34449Y94185D02*
D03*
X13386Y50394D02*
D03*
X34449Y31193D02*
D03*
D89*
X219293Y252362D02*
D03*
X158663D02*
D03*
X84980Y40002D02*
D03*
Y100632D02*
D03*
X345669Y342522D02*
D03*
Y281892D02*
D03*
X247488Y94691D02*
D03*
Y24612D02*
D03*
X125134Y276120D02*
D03*
Y206041D02*
D03*
X246701Y213990D02*
D03*
Y143911D02*
D03*
D90*
X150000Y305512D02*
D03*
X244094D02*
D03*
X149941Y37000D02*
D03*
X150441Y85500D02*
D03*
X279331Y116142D02*
D03*
Y11811D02*
D03*
X279921Y141732D02*
D03*
Y254724D02*
D03*
X310630Y282283D02*
D03*
Y355906D02*
D03*
X212205Y107874D02*
D03*
Y11811D02*
D03*
X11898Y137740D02*
D03*
X87094Y291677D02*
D03*
X212598Y133079D02*
D03*
Y225205D02*
D03*
X9500Y338087D02*
D03*
X86169Y318087D02*
D03*
X59449Y107374D02*
D03*
X14173Y71153D02*
D03*
X59449Y44382D02*
D03*
X14173Y8161D02*
D03*
D91*
X326969Y121260D02*
D03*
D92*
X332874Y95669D02*
D03*
D93*
X321063D02*
D03*
X332874Y75984D02*
D03*
X321063D02*
D03*
X332874Y56299D02*
D03*
X321063D02*
D03*
X332874Y36614D02*
D03*
X321063D02*
D03*
X332874Y16929D02*
D03*
X321063D02*
D03*
D94*
X332004Y160339D02*
D03*
Y180024D02*
D03*
Y199709D02*
D03*
Y219394D02*
D03*
Y239079D02*
D03*
D95*
X313937Y338740D02*
D03*
Y328740D02*
D03*
X303937Y338740D02*
D03*
Y328740D02*
D03*
X313937Y318740D02*
D03*
X303937D02*
D03*
Y308740D02*
D03*
X313937D02*
D03*
X303937Y298740D02*
D03*
X218130Y79843D02*
D03*
Y69842D02*
D03*
X208130Y79843D02*
D03*
Y69842D02*
D03*
X218130Y59842D02*
D03*
X208130D02*
D03*
Y49843D02*
D03*
X218130D02*
D03*
X208130Y39843D02*
D03*
X44437Y241756D02*
D03*
X54437Y251756D02*
D03*
X44437D02*
D03*
Y261756D02*
D03*
X54437D02*
D03*
X44437Y271756D02*
D03*
Y281756D02*
D03*
X54437Y271756D02*
D03*
Y281756D02*
D03*
X208524Y158748D02*
D03*
X218524Y168748D02*
D03*
X208524D02*
D03*
Y178748D02*
D03*
X218524D02*
D03*
X208524Y188748D02*
D03*
Y198748D02*
D03*
X218524Y188748D02*
D03*
Y198748D02*
D03*
D96*
X313937Y298740D02*
D03*
X218130Y39843D02*
D03*
X54437Y241756D02*
D03*
X218524Y158748D02*
D03*
D97*
X240795Y12604D02*
D03*
Y106699D02*
D03*
X118441Y194034D02*
D03*
Y288128D02*
D03*
X240008Y131904D02*
D03*
Y225998D02*
D03*
D98*
X52842Y194433D02*
D03*
D99*
Y184591D02*
D03*
Y176717D02*
D03*
Y166874D02*
D03*
D100*
X42173Y206520D02*
D03*
Y154787D02*
D03*
D101*
X211417Y267323D02*
D03*
X203543D02*
D03*
X187795D02*
D03*
X179921D02*
D03*
X172047D02*
D03*
X164173D02*
D03*
X227165D02*
D03*
X195669D02*
D03*
D102*
X65047Y273567D02*
D03*
X68984D02*
D03*
X72921D02*
D03*
D103*
X36000Y331260D02*
D03*
X28913D02*
D03*
X36000Y342087D02*
D03*
X59669Y324913D02*
D03*
X66756D02*
D03*
X59669Y314087D02*
D03*
D104*
X28913Y342087D02*
D03*
X66756Y314087D02*
D03*
M02*
