G04*
G04 #@! TF.GenerationSoftware,Altium Limited,Altium Designer,20.1.8 (145)*
G04*
G04 Layer_Color=65535*
%FSLAX25Y25*%
%MOIN*%
G70*
G04*
G04 #@! TF.SameCoordinates,29347EB1-9AE6-4B45-909D-0775014661E7*
G04*
G04*
G04 #@! TF.FilePolarity,Positive*
G04*
G01*
G75*
%ADD10C,0.01968*%
%ADD12C,0.01181*%
%ADD13C,0.01000*%
%ADD56C,0.00984*%
%ADD57C,0.00787*%
%ADD58R,0.07480X0.01181*%
%ADD59C,0.00600*%
%ADD60R,0.01181X0.07480*%
%ADD61C,0.00394*%
%ADD62C,0.00500*%
%ADD63R,0.01968X0.12299*%
%ADD64C,0.00591*%
%ADD65R,0.02362X0.00689*%
G36*
X33376Y121207D02*
X33609D01*
Y121184D01*
X33748D01*
Y121160D01*
X33865D01*
Y121137D01*
X33981D01*
Y121114D01*
X34074D01*
Y121091D01*
X34143D01*
Y121068D01*
X34236D01*
Y121044D01*
X34306D01*
Y121021D01*
X34376D01*
Y120998D01*
X34446D01*
Y120975D01*
X34516D01*
Y120951D01*
X34562D01*
Y120928D01*
X34632D01*
Y120905D01*
X34678D01*
Y120881D01*
X34748D01*
Y120858D01*
X34795D01*
Y120835D01*
X34841D01*
Y120812D01*
X34887D01*
Y120789D01*
X34934D01*
Y120765D01*
X34980D01*
Y120742D01*
X35027D01*
Y120719D01*
X35074D01*
Y120695D01*
X35120D01*
Y120672D01*
X35166D01*
Y120649D01*
X35213D01*
Y120626D01*
X35260D01*
Y120603D01*
X35306D01*
Y120579D01*
X35353D01*
Y120556D01*
X35376D01*
Y120533D01*
X35422D01*
Y120510D01*
X35469D01*
Y120486D01*
X35492D01*
Y120463D01*
X35539D01*
Y120440D01*
X35585D01*
Y120416D01*
X35608D01*
Y120393D01*
X35631D01*
Y120370D01*
X35655D01*
Y120347D01*
X35678D01*
Y120324D01*
X35701D01*
Y120300D01*
X35724D01*
Y120277D01*
X35748D01*
Y120254D01*
Y120230D01*
X35771D01*
Y120207D01*
Y120184D01*
Y120161D01*
X35794D01*
Y120138D01*
Y120114D01*
Y120091D01*
Y120068D01*
X35818D01*
Y120045D01*
Y120021D01*
Y119998D01*
Y119975D01*
Y119951D01*
X35794D01*
Y119928D01*
Y119905D01*
Y119882D01*
Y119859D01*
X35771D01*
Y119835D01*
Y119812D01*
X35748D01*
Y119789D01*
Y119765D01*
X35724D01*
Y119742D01*
X35701D01*
Y119719D01*
Y119696D01*
X35678D01*
Y119673D01*
X35655D01*
Y119649D01*
X35608D01*
Y119626D01*
X35585D01*
Y119603D01*
X35539D01*
Y119580D01*
X35469D01*
Y119556D01*
X35353D01*
Y119533D01*
X35329D01*
Y119556D01*
X35190D01*
Y119580D01*
X35143D01*
Y119603D01*
X35097D01*
Y119626D01*
X35050D01*
Y119649D01*
X35004D01*
Y119673D01*
X34980D01*
Y119696D01*
X34934D01*
Y119719D01*
X34887D01*
Y119742D01*
X34864D01*
Y119765D01*
X34818D01*
Y119789D01*
X34771D01*
Y119812D01*
X34725D01*
Y119835D01*
X34678D01*
Y119859D01*
X34632D01*
Y119882D01*
X34585D01*
Y119905D01*
X34539D01*
Y119928D01*
X34492D01*
Y119951D01*
X34446D01*
Y119975D01*
X34399D01*
Y119998D01*
X34353D01*
Y120021D01*
X34283D01*
Y120045D01*
X34236D01*
Y120068D01*
X34167D01*
Y120091D01*
X34097D01*
Y120114D01*
X34027D01*
Y120138D01*
X33957D01*
Y120161D01*
X33888D01*
Y120184D01*
X33795D01*
Y120207D01*
X33678D01*
Y120230D01*
X33539D01*
Y120254D01*
X33353D01*
Y120277D01*
X32958D01*
Y120254D01*
X32749D01*
Y120230D01*
X32632D01*
Y120207D01*
X32539D01*
Y120184D01*
X32446D01*
Y120161D01*
X32377D01*
Y120138D01*
X32330D01*
Y120114D01*
X32260D01*
Y120091D01*
X32214D01*
Y120068D01*
X32144D01*
Y120045D01*
X32098D01*
Y120021D01*
X32051D01*
Y119998D01*
X32005D01*
Y119975D01*
X31981D01*
Y119951D01*
X31935D01*
Y119928D01*
X31888D01*
Y119905D01*
X31842D01*
Y119882D01*
X31819D01*
Y119859D01*
X31772D01*
Y119835D01*
X31749D01*
Y119812D01*
X31702D01*
Y119789D01*
X31679D01*
Y119765D01*
X31656D01*
Y119742D01*
X31609D01*
Y119719D01*
X31586D01*
Y119696D01*
X31563D01*
Y119673D01*
X31540D01*
Y119649D01*
X31493D01*
Y119626D01*
X31470D01*
Y119603D01*
X31447D01*
Y119580D01*
X31423D01*
Y119556D01*
X31400D01*
Y119533D01*
X31377D01*
Y119510D01*
X31354D01*
Y119486D01*
X31330D01*
Y119463D01*
X31307D01*
Y119440D01*
X31284D01*
Y119417D01*
X31261D01*
Y119394D01*
X31237D01*
Y119370D01*
Y119347D01*
X31214D01*
Y119324D01*
X31191D01*
Y119300D01*
X31168D01*
Y119277D01*
X31144D01*
Y119254D01*
Y119231D01*
X31121D01*
Y119208D01*
X31098D01*
Y119184D01*
X31075D01*
Y119161D01*
Y119138D01*
X31051D01*
Y119115D01*
X31028D01*
Y119091D01*
Y119068D01*
X31005D01*
Y119045D01*
X30982D01*
Y119022D01*
Y118998D01*
X30958D01*
Y118975D01*
Y118952D01*
X30935D01*
Y118929D01*
X30912D01*
Y118905D01*
Y118882D01*
X30889D01*
Y118859D01*
Y118836D01*
X30865D01*
Y118812D01*
Y118789D01*
X30842D01*
Y118766D01*
Y118743D01*
X30819D01*
Y118719D01*
Y118696D01*
Y118673D01*
X30796D01*
Y118650D01*
Y118626D01*
X30772D01*
Y118603D01*
Y118580D01*
Y118557D01*
X30749D01*
Y118533D01*
Y118510D01*
X30726D01*
Y118487D01*
Y118464D01*
Y118440D01*
X30703D01*
Y118417D01*
Y118394D01*
Y118371D01*
Y118347D01*
X30679D01*
Y118324D01*
Y118301D01*
Y118278D01*
Y118254D01*
X30656D01*
Y118231D01*
Y118208D01*
Y118185D01*
Y118161D01*
Y118138D01*
X30633D01*
Y118115D01*
Y118092D01*
Y118068D01*
Y118045D01*
Y118022D01*
Y117999D01*
X30610D01*
Y117975D01*
Y117952D01*
Y117929D01*
Y117906D01*
Y117882D01*
Y117859D01*
Y117836D01*
Y117813D01*
Y117789D01*
Y117766D01*
Y117743D01*
Y117720D01*
Y117696D01*
Y117673D01*
X30586D01*
Y117650D01*
Y117627D01*
Y117603D01*
X30610D01*
Y117580D01*
Y117557D01*
Y117534D01*
Y117510D01*
Y117487D01*
Y117464D01*
Y117441D01*
Y117417D01*
Y117394D01*
Y117371D01*
Y117348D01*
Y117324D01*
Y117301D01*
Y117278D01*
X30633D01*
Y117255D01*
Y117231D01*
Y117208D01*
Y117185D01*
Y117162D01*
Y117138D01*
Y117115D01*
X30656D01*
Y117092D01*
Y117069D01*
Y117045D01*
Y117022D01*
X30679D01*
Y116999D01*
Y116976D01*
Y116952D01*
Y116929D01*
X30703D01*
Y116906D01*
Y116883D01*
Y116859D01*
Y116836D01*
X30726D01*
Y116813D01*
Y116790D01*
Y116766D01*
X30749D01*
Y116743D01*
Y116720D01*
Y116697D01*
X30772D01*
Y116673D01*
Y116650D01*
X30796D01*
Y116627D01*
Y116604D01*
X30819D01*
Y116580D01*
Y116557D01*
Y116534D01*
X30842D01*
Y116511D01*
Y116487D01*
X30865D01*
Y116464D01*
Y116441D01*
X30889D01*
Y116418D01*
Y116394D01*
X30912D01*
Y116371D01*
Y116348D01*
X30935D01*
Y116325D01*
X30958D01*
Y116301D01*
Y116278D01*
X30982D01*
Y116255D01*
Y116232D01*
X31005D01*
Y116208D01*
X31028D01*
Y116185D01*
Y116162D01*
X31051D01*
Y116139D01*
X31075D01*
Y116115D01*
Y116092D01*
X31098D01*
Y116069D01*
X31121D01*
Y116046D01*
X31144D01*
Y116022D01*
Y115999D01*
X31168D01*
Y115976D01*
X31191D01*
Y115953D01*
X31214D01*
Y115929D01*
X31237D01*
Y115906D01*
X31261D01*
Y115883D01*
Y115860D01*
X31284D01*
Y115836D01*
X31307D01*
Y115813D01*
X31330D01*
Y115790D01*
X31354D01*
Y115767D01*
X31377D01*
Y115743D01*
X31400D01*
Y115720D01*
X31447D01*
Y115697D01*
X31470D01*
Y115674D01*
X31493D01*
Y115650D01*
X31516D01*
Y115627D01*
X31540D01*
Y115604D01*
X31563D01*
Y115581D01*
X31609D01*
Y115557D01*
X31633D01*
Y115534D01*
X31656D01*
Y115511D01*
X31702D01*
Y115488D01*
X31726D01*
Y115464D01*
X31772D01*
Y115441D01*
X31795D01*
Y115418D01*
X31842D01*
Y115395D01*
X31888D01*
Y115372D01*
X31935D01*
Y115348D01*
X31981D01*
Y115325D01*
X32028D01*
Y115302D01*
X32074D01*
Y115278D01*
X32121D01*
Y115255D01*
X32167D01*
Y115232D01*
X32237D01*
Y115209D01*
X32307D01*
Y115185D01*
X32377D01*
Y115162D01*
X32446D01*
Y115139D01*
X32539D01*
Y115116D01*
X32656D01*
Y115093D01*
X32818D01*
Y115069D01*
X33121D01*
Y115046D01*
X33307D01*
Y115069D01*
X33609D01*
Y115093D01*
X33771D01*
Y115116D01*
X33888D01*
Y115139D01*
X33981D01*
Y115162D01*
X34074D01*
Y115185D01*
X34167D01*
Y115209D01*
X34236D01*
Y115232D01*
X34306D01*
Y115255D01*
X34353D01*
Y115278D01*
X34422D01*
Y115302D01*
X34469D01*
Y115325D01*
X34539D01*
Y115348D01*
X34585D01*
Y115372D01*
X34632D01*
Y115395D01*
X34678D01*
Y115418D01*
Y115441D01*
Y115464D01*
Y115488D01*
Y115511D01*
Y115534D01*
Y115557D01*
Y115581D01*
Y115604D01*
Y115627D01*
Y115650D01*
Y115674D01*
Y115697D01*
Y115720D01*
Y115743D01*
Y115767D01*
Y115790D01*
Y115813D01*
Y115836D01*
Y115860D01*
Y115883D01*
Y115906D01*
Y115929D01*
Y115953D01*
Y115976D01*
Y115999D01*
Y116022D01*
Y116046D01*
Y116069D01*
Y116092D01*
Y116115D01*
Y116139D01*
Y116162D01*
Y116185D01*
Y116208D01*
Y116232D01*
Y116255D01*
Y116278D01*
Y116301D01*
Y116325D01*
Y116348D01*
Y116371D01*
Y116394D01*
Y116418D01*
Y116441D01*
Y116464D01*
Y116487D01*
Y116511D01*
Y116534D01*
Y116557D01*
Y116580D01*
Y116604D01*
Y116627D01*
Y116650D01*
Y116673D01*
Y116697D01*
Y116720D01*
Y116743D01*
Y116766D01*
Y116790D01*
Y116813D01*
Y116836D01*
Y116859D01*
Y116883D01*
X34655D01*
Y116906D01*
X33307D01*
Y116929D01*
X33260D01*
Y116952D01*
X33214D01*
Y116976D01*
X33167D01*
Y116999D01*
X33144D01*
Y117022D01*
X33121D01*
Y117045D01*
X33097D01*
Y117069D01*
X33074D01*
Y117092D01*
X33051D01*
Y117115D01*
X33028D01*
Y117138D01*
Y117162D01*
X33004D01*
Y117185D01*
Y117208D01*
X32981D01*
Y117231D01*
Y117255D01*
Y117278D01*
Y117301D01*
X32958D01*
Y117324D01*
Y117348D01*
Y117371D01*
Y117394D01*
Y117417D01*
Y117441D01*
X32981D01*
Y117464D01*
Y117487D01*
Y117510D01*
Y117534D01*
X33004D01*
Y117557D01*
Y117580D01*
X33028D01*
Y117603D01*
Y117627D01*
X33051D01*
Y117650D01*
Y117673D01*
X33074D01*
Y117696D01*
X33097D01*
Y117720D01*
X33121D01*
Y117743D01*
X33167D01*
Y117766D01*
X33190D01*
Y117789D01*
X33237D01*
Y117813D01*
X33283D01*
Y117836D01*
X33400D01*
Y117859D01*
X35190D01*
Y117836D01*
X35283D01*
Y117813D01*
X35353D01*
Y117789D01*
X35399D01*
Y117766D01*
X35422D01*
Y117743D01*
X35445D01*
Y117720D01*
X35492D01*
Y117696D01*
Y117673D01*
X35515D01*
Y117650D01*
X35539D01*
Y117627D01*
X35562D01*
Y117603D01*
Y117580D01*
X35585D01*
Y117557D01*
Y117534D01*
Y117510D01*
X35608D01*
Y117487D01*
Y117464D01*
Y117441D01*
Y117417D01*
Y117394D01*
X35631D01*
Y117371D01*
Y117348D01*
Y117324D01*
Y117301D01*
Y117278D01*
Y117255D01*
Y117231D01*
Y117208D01*
Y117185D01*
Y117162D01*
Y117138D01*
Y117115D01*
Y117092D01*
Y117069D01*
Y117045D01*
Y117022D01*
Y116999D01*
Y116976D01*
Y116952D01*
Y116929D01*
Y116906D01*
Y116883D01*
Y116859D01*
Y116836D01*
Y116813D01*
Y116790D01*
Y116766D01*
Y116743D01*
Y116720D01*
Y116697D01*
Y116673D01*
Y116650D01*
Y116627D01*
Y116604D01*
Y116580D01*
Y116557D01*
Y116534D01*
Y116511D01*
Y116487D01*
Y116464D01*
Y116441D01*
Y116418D01*
Y116394D01*
Y116371D01*
Y116348D01*
Y116325D01*
Y116301D01*
Y116278D01*
Y116255D01*
Y116232D01*
Y116208D01*
Y116185D01*
Y116162D01*
Y116139D01*
Y116115D01*
Y116092D01*
Y116069D01*
Y116046D01*
Y116022D01*
Y115999D01*
Y115976D01*
Y115953D01*
Y115929D01*
Y115906D01*
Y115883D01*
Y115860D01*
Y115836D01*
Y115813D01*
Y115790D01*
Y115767D01*
Y115743D01*
Y115720D01*
Y115697D01*
Y115674D01*
Y115650D01*
Y115627D01*
Y115604D01*
Y115581D01*
Y115557D01*
Y115534D01*
Y115511D01*
Y115488D01*
Y115464D01*
Y115441D01*
Y115418D01*
Y115395D01*
Y115372D01*
Y115348D01*
Y115325D01*
Y115302D01*
Y115278D01*
Y115255D01*
Y115232D01*
Y115209D01*
Y115185D01*
Y115162D01*
Y115139D01*
Y115116D01*
Y115093D01*
X35608D01*
Y115069D01*
Y115046D01*
Y115023D01*
Y114999D01*
Y114976D01*
X35585D01*
Y114953D01*
Y114930D01*
Y114907D01*
X35562D01*
Y114883D01*
Y114860D01*
X35539D01*
Y114837D01*
X35515D01*
Y114813D01*
Y114790D01*
X35492D01*
Y114767D01*
X35469D01*
Y114744D01*
X35422D01*
Y114720D01*
X35399D01*
Y114697D01*
X35353D01*
Y114674D01*
X35306D01*
Y114651D01*
X35260D01*
Y114628D01*
X35213D01*
Y114604D01*
X35166D01*
Y114581D01*
X35120D01*
Y114558D01*
X35074D01*
Y114534D01*
X35027D01*
Y114511D01*
X34980D01*
Y114488D01*
X34934D01*
Y114465D01*
X34864D01*
Y114442D01*
X34818D01*
Y114418D01*
X34748D01*
Y114395D01*
X34701D01*
Y114372D01*
X34632D01*
Y114348D01*
X34562D01*
Y114325D01*
X34492D01*
Y114302D01*
X34422D01*
Y114279D01*
X34353D01*
Y114255D01*
X34260D01*
Y114232D01*
X34167D01*
Y114209D01*
X34074D01*
Y114186D01*
X33957D01*
Y114163D01*
X33818D01*
Y114139D01*
X33632D01*
Y114116D01*
X32795D01*
Y114139D01*
X32609D01*
Y114163D01*
X32470D01*
Y114186D01*
X32377D01*
Y114209D01*
X32260D01*
Y114232D01*
X32191D01*
Y114255D01*
X32098D01*
Y114279D01*
X32028D01*
Y114302D01*
X31958D01*
Y114325D01*
X31888D01*
Y114348D01*
X31842D01*
Y114372D01*
X31772D01*
Y114395D01*
X31726D01*
Y114418D01*
X31679D01*
Y114442D01*
X31633D01*
Y114465D01*
X31563D01*
Y114488D01*
X31516D01*
Y114511D01*
X31493D01*
Y114534D01*
X31447D01*
Y114558D01*
X31400D01*
Y114581D01*
X31354D01*
Y114604D01*
X31330D01*
Y114628D01*
X31284D01*
Y114651D01*
X31237D01*
Y114674D01*
X31214D01*
Y114697D01*
X31168D01*
Y114720D01*
X31144D01*
Y114744D01*
X31098D01*
Y114767D01*
X31075D01*
Y114790D01*
X31051D01*
Y114813D01*
X31005D01*
Y114837D01*
X30982D01*
Y114860D01*
X30958D01*
Y114883D01*
X30935D01*
Y114907D01*
X30889D01*
Y114930D01*
X30865D01*
Y114953D01*
X30842D01*
Y114976D01*
X30819D01*
Y114999D01*
X30796D01*
Y115023D01*
X30772D01*
Y115046D01*
X30749D01*
Y115069D01*
X30726D01*
Y115093D01*
X30703D01*
Y115116D01*
X30679D01*
Y115139D01*
X30656D01*
Y115162D01*
X30633D01*
Y115185D01*
X30610D01*
Y115209D01*
X30586D01*
Y115232D01*
X30563D01*
Y115255D01*
X30540D01*
Y115278D01*
X30517D01*
Y115302D01*
X30493D01*
Y115325D01*
Y115348D01*
X30470D01*
Y115372D01*
X30447D01*
Y115395D01*
X30424D01*
Y115418D01*
X30400D01*
Y115441D01*
X30377D01*
Y115464D01*
Y115488D01*
X30354D01*
Y115511D01*
X30331D01*
Y115534D01*
Y115557D01*
X30307D01*
Y115581D01*
X30284D01*
Y115604D01*
X30261D01*
Y115627D01*
Y115650D01*
X30238D01*
Y115674D01*
X30214D01*
Y115697D01*
Y115720D01*
X30191D01*
Y115743D01*
Y115767D01*
X30168D01*
Y115790D01*
X30145D01*
Y115813D01*
Y115836D01*
X30121D01*
Y115860D01*
Y115883D01*
X30098D01*
Y115906D01*
X30075D01*
Y115929D01*
Y115953D01*
X30052D01*
Y115976D01*
Y115999D01*
X30028D01*
Y116022D01*
Y116046D01*
X30005D01*
Y116069D01*
Y116092D01*
X29982D01*
Y116115D01*
Y116139D01*
X29959D01*
Y116162D01*
Y116185D01*
Y116208D01*
X29935D01*
Y116232D01*
Y116255D01*
X29912D01*
Y116278D01*
Y116301D01*
X29889D01*
Y116325D01*
Y116348D01*
Y116371D01*
X29866D01*
Y116394D01*
Y116418D01*
Y116441D01*
X29842D01*
Y116464D01*
Y116487D01*
Y116511D01*
X29819D01*
Y116534D01*
Y116557D01*
Y116580D01*
X29796D01*
Y116604D01*
Y116627D01*
Y116650D01*
X29773D01*
Y116673D01*
Y116697D01*
Y116720D01*
Y116743D01*
X29750D01*
Y116766D01*
Y116790D01*
Y116813D01*
Y116836D01*
X29726D01*
Y116859D01*
Y116883D01*
Y116906D01*
Y116929D01*
Y116952D01*
X29703D01*
Y116976D01*
Y116999D01*
Y117022D01*
Y117045D01*
Y117069D01*
Y117092D01*
X29680D01*
Y117115D01*
Y117138D01*
Y117162D01*
Y117185D01*
Y117208D01*
Y117231D01*
Y117255D01*
X29656D01*
Y117278D01*
Y117301D01*
Y117324D01*
Y117348D01*
Y117371D01*
Y117394D01*
Y117417D01*
Y117441D01*
Y117464D01*
Y117487D01*
Y117510D01*
Y117534D01*
Y117557D01*
Y117580D01*
Y117603D01*
Y117627D01*
Y117650D01*
Y117673D01*
Y117696D01*
Y117720D01*
Y117743D01*
Y117766D01*
Y117789D01*
Y117813D01*
Y117836D01*
Y117859D01*
Y117882D01*
Y117906D01*
Y117929D01*
Y117952D01*
Y117975D01*
Y117999D01*
X29680D01*
Y118022D01*
Y118045D01*
Y118068D01*
Y118092D01*
Y118115D01*
Y118138D01*
Y118161D01*
Y118185D01*
X29703D01*
Y118208D01*
Y118231D01*
Y118254D01*
Y118278D01*
Y118301D01*
Y118324D01*
X29726D01*
Y118347D01*
Y118371D01*
Y118394D01*
Y118417D01*
Y118440D01*
X29750D01*
Y118464D01*
Y118487D01*
Y118510D01*
Y118533D01*
X29773D01*
Y118557D01*
Y118580D01*
Y118603D01*
Y118626D01*
X29796D01*
Y118650D01*
Y118673D01*
Y118696D01*
X29819D01*
Y118719D01*
Y118743D01*
Y118766D01*
X29842D01*
Y118789D01*
Y118812D01*
Y118836D01*
X29866D01*
Y118859D01*
Y118882D01*
Y118905D01*
X29889D01*
Y118929D01*
Y118952D01*
Y118975D01*
X29912D01*
Y118998D01*
Y119022D01*
X29935D01*
Y119045D01*
Y119068D01*
X29959D01*
Y119091D01*
Y119115D01*
Y119138D01*
X29982D01*
Y119161D01*
Y119184D01*
X30005D01*
Y119208D01*
Y119231D01*
X30028D01*
Y119254D01*
Y119277D01*
X30052D01*
Y119300D01*
Y119324D01*
X30075D01*
Y119347D01*
Y119370D01*
X30098D01*
Y119394D01*
X30121D01*
Y119417D01*
Y119440D01*
X30145D01*
Y119463D01*
Y119486D01*
X30168D01*
Y119510D01*
Y119533D01*
X30191D01*
Y119556D01*
X30214D01*
Y119580D01*
Y119603D01*
X30238D01*
Y119626D01*
X30261D01*
Y119649D01*
Y119673D01*
X30284D01*
Y119696D01*
X30307D01*
Y119719D01*
Y119742D01*
X30331D01*
Y119765D01*
X30354D01*
Y119789D01*
X30377D01*
Y119812D01*
Y119835D01*
X30400D01*
Y119859D01*
X30424D01*
Y119882D01*
X30447D01*
Y119905D01*
X30470D01*
Y119928D01*
Y119951D01*
X30493D01*
Y119975D01*
X30517D01*
Y119998D01*
X30540D01*
Y120021D01*
X30563D01*
Y120045D01*
X30586D01*
Y120068D01*
X30610D01*
Y120091D01*
X30633D01*
Y120114D01*
X30656D01*
Y120138D01*
X30679D01*
Y120161D01*
X30703D01*
Y120184D01*
X30726D01*
Y120207D01*
X30749D01*
Y120230D01*
X30772D01*
Y120254D01*
X30796D01*
Y120277D01*
X30819D01*
Y120300D01*
X30842D01*
Y120324D01*
X30865D01*
Y120347D01*
X30889D01*
Y120370D01*
X30912D01*
Y120393D01*
X30935D01*
Y120416D01*
X30982D01*
Y120440D01*
X31005D01*
Y120463D01*
X31028D01*
Y120486D01*
X31051D01*
Y120510D01*
X31098D01*
Y120533D01*
X31121D01*
Y120556D01*
X31168D01*
Y120579D01*
X31191D01*
Y120603D01*
X31214D01*
Y120626D01*
X31261D01*
Y120649D01*
X31284D01*
Y120672D01*
X31330D01*
Y120695D01*
X31377D01*
Y120719D01*
X31400D01*
Y120742D01*
X31447D01*
Y120765D01*
X31493D01*
Y120789D01*
X31516D01*
Y120812D01*
X31563D01*
Y120835D01*
X31609D01*
Y120858D01*
X31656D01*
Y120881D01*
X31702D01*
Y120905D01*
X31772D01*
Y120928D01*
X31819D01*
Y120951D01*
X31865D01*
Y120975D01*
X31935D01*
Y120998D01*
X31981D01*
Y121021D01*
X32051D01*
Y121044D01*
X32121D01*
Y121068D01*
X32191D01*
Y121091D01*
X32260D01*
Y121114D01*
X32353D01*
Y121137D01*
X32446D01*
Y121160D01*
X32563D01*
Y121184D01*
X32725D01*
Y121207D01*
X32935D01*
Y121230D01*
X33376D01*
Y121207D01*
D02*
G37*
G36*
X43234Y121230D02*
X43466D01*
Y121207D01*
X43606D01*
Y121184D01*
X43745D01*
Y121160D01*
X43838D01*
Y121137D01*
X43931D01*
Y121114D01*
X44024D01*
Y121091D01*
X44094D01*
Y121068D01*
X44164D01*
Y121044D01*
X44234D01*
Y121021D01*
X44280D01*
Y120998D01*
X44350D01*
Y120975D01*
X44396D01*
Y120951D01*
X44466D01*
Y120928D01*
X44513D01*
Y120905D01*
X44559D01*
Y120881D01*
X44606D01*
Y120858D01*
X44652D01*
Y120835D01*
X44699D01*
Y120812D01*
X44745D01*
Y120789D01*
X44768D01*
Y120765D01*
X44815D01*
Y120742D01*
X44861D01*
Y120719D01*
X44885D01*
Y120695D01*
X44931D01*
Y120672D01*
X44954D01*
Y120649D01*
X45001D01*
Y120626D01*
X45024D01*
Y120603D01*
X45071D01*
Y120579D01*
X45094D01*
Y120556D01*
X45117D01*
Y120533D01*
X45164D01*
Y120510D01*
X45187D01*
Y120486D01*
X45210D01*
Y120463D01*
X45233D01*
Y120440D01*
X45280D01*
Y120416D01*
X45303D01*
Y120393D01*
X45326D01*
Y120370D01*
X45350D01*
Y120347D01*
X45373D01*
Y120324D01*
X45396D01*
Y120300D01*
X45419D01*
Y120277D01*
X45443D01*
Y120254D01*
X45466D01*
Y120230D01*
X45489D01*
Y120207D01*
X45512D01*
Y120184D01*
X45536D01*
Y120161D01*
X45559D01*
Y120138D01*
X45582D01*
Y120114D01*
X45605D01*
Y120091D01*
X45629D01*
Y120068D01*
X45652D01*
Y120045D01*
X45675D01*
Y120021D01*
Y119998D01*
X45698D01*
Y119975D01*
X45722D01*
Y119951D01*
X45745D01*
Y119928D01*
X45768D01*
Y119905D01*
Y119882D01*
X45791D01*
Y119859D01*
X45815D01*
Y119835D01*
X45838D01*
Y119812D01*
Y119789D01*
X45861D01*
Y119765D01*
X45884D01*
Y119742D01*
X45908D01*
Y119719D01*
Y119696D01*
X45931D01*
Y119673D01*
Y119649D01*
X45954D01*
Y119626D01*
X45977D01*
Y119603D01*
Y119580D01*
X46001D01*
Y119556D01*
X46024D01*
Y119533D01*
Y119510D01*
X46047D01*
Y119486D01*
Y119463D01*
X46070D01*
Y119440D01*
Y119417D01*
X46093D01*
Y119394D01*
Y119370D01*
X46117D01*
Y119347D01*
X46140D01*
Y119324D01*
Y119300D01*
Y119277D01*
X46163D01*
Y119254D01*
Y119231D01*
X46187D01*
Y119208D01*
Y119184D01*
X46210D01*
Y119161D01*
Y119138D01*
X46233D01*
Y119115D01*
Y119091D01*
Y119068D01*
X46256D01*
Y119045D01*
Y119022D01*
X46280D01*
Y118998D01*
Y118975D01*
Y118952D01*
X46303D01*
Y118929D01*
Y118905D01*
Y118882D01*
X46326D01*
Y118859D01*
Y118836D01*
Y118812D01*
X46349D01*
Y118789D01*
Y118766D01*
Y118743D01*
X46373D01*
Y118719D01*
Y118696D01*
Y118673D01*
X46396D01*
Y118650D01*
Y118626D01*
Y118603D01*
Y118580D01*
X46419D01*
Y118557D01*
Y118533D01*
Y118510D01*
Y118487D01*
Y118464D01*
X46442D01*
Y118440D01*
Y118417D01*
Y118394D01*
Y118371D01*
Y118347D01*
X46466D01*
Y118324D01*
Y118301D01*
Y118278D01*
Y118254D01*
Y118231D01*
Y118208D01*
X46489D01*
Y118185D01*
Y118161D01*
Y118138D01*
Y118115D01*
Y118092D01*
Y118068D01*
Y118045D01*
Y118022D01*
Y117999D01*
X46512D01*
Y117975D01*
Y117952D01*
Y117929D01*
Y117906D01*
Y117882D01*
Y117859D01*
Y117836D01*
Y117813D01*
Y117789D01*
Y117766D01*
Y117743D01*
Y117720D01*
Y117696D01*
Y117673D01*
Y117650D01*
Y117627D01*
Y117603D01*
Y117580D01*
Y117557D01*
Y117534D01*
Y117510D01*
Y117487D01*
Y117464D01*
Y117441D01*
X46489D01*
Y117417D01*
Y117394D01*
Y117371D01*
Y117348D01*
Y117324D01*
Y117301D01*
Y117278D01*
Y117255D01*
Y117231D01*
X46466D01*
Y117208D01*
Y117185D01*
Y117162D01*
Y117138D01*
Y117115D01*
Y117092D01*
X46442D01*
Y117069D01*
Y117045D01*
Y117022D01*
Y116999D01*
Y116976D01*
Y116952D01*
X46419D01*
Y116929D01*
Y116906D01*
Y116883D01*
Y116859D01*
X46396D01*
Y116836D01*
Y116813D01*
Y116790D01*
Y116766D01*
X46373D01*
Y116743D01*
Y116720D01*
Y116697D01*
X46349D01*
Y116673D01*
Y116650D01*
Y116627D01*
Y116604D01*
X46326D01*
Y116580D01*
Y116557D01*
Y116534D01*
X46303D01*
Y116511D01*
Y116487D01*
X46280D01*
Y116464D01*
Y116441D01*
Y116418D01*
X46256D01*
Y116394D01*
Y116371D01*
Y116348D01*
X46233D01*
Y116325D01*
Y116301D01*
X46210D01*
Y116278D01*
Y116255D01*
Y116232D01*
X46187D01*
Y116208D01*
Y116185D01*
X46163D01*
Y116162D01*
Y116139D01*
X46140D01*
Y116115D01*
Y116092D01*
X46117D01*
Y116069D01*
Y116046D01*
X46093D01*
Y116022D01*
Y115999D01*
X46070D01*
Y115976D01*
Y115953D01*
X46047D01*
Y115929D01*
X46024D01*
Y115906D01*
Y115883D01*
X46001D01*
Y115860D01*
Y115836D01*
X45977D01*
Y115813D01*
X45954D01*
Y115790D01*
Y115767D01*
X45931D01*
Y115743D01*
X45908D01*
Y115720D01*
Y115697D01*
X45884D01*
Y115674D01*
X45861D01*
Y115650D01*
Y115627D01*
X45838D01*
Y115604D01*
X45815D01*
Y115581D01*
Y115557D01*
X45791D01*
Y115534D01*
X45768D01*
Y115511D01*
X45745D01*
Y115488D01*
X45722D01*
Y115464D01*
Y115441D01*
X45698D01*
Y115418D01*
X45675D01*
Y115395D01*
X45652D01*
Y115372D01*
X45629D01*
Y115348D01*
X45605D01*
Y115325D01*
Y115302D01*
X45582D01*
Y115278D01*
X45559D01*
Y115255D01*
X45536D01*
Y115232D01*
X45512D01*
Y115209D01*
X45489D01*
Y115185D01*
X45466D01*
Y115162D01*
X45443D01*
Y115139D01*
X45419D01*
Y115116D01*
X45396D01*
Y115093D01*
X45373D01*
Y115069D01*
X45350D01*
Y115046D01*
X45326D01*
Y115023D01*
X45280D01*
Y114999D01*
X45257D01*
Y114976D01*
X45233D01*
Y114953D01*
X45210D01*
Y114930D01*
X45187D01*
Y114907D01*
X45140D01*
Y114883D01*
X45117D01*
Y114860D01*
X45094D01*
Y114837D01*
X45071D01*
Y114813D01*
X45024D01*
Y114790D01*
X45001D01*
Y114767D01*
X44954D01*
Y114744D01*
X44931D01*
Y114720D01*
X44885D01*
Y114697D01*
X44861D01*
Y114674D01*
X44815D01*
Y114651D01*
X44792D01*
Y114628D01*
X44745D01*
Y114604D01*
X44699D01*
Y114581D01*
X44675D01*
Y114558D01*
X44629D01*
Y114534D01*
X44582D01*
Y114511D01*
X44536D01*
Y114488D01*
X44489D01*
Y114465D01*
X44443D01*
Y114442D01*
X44396D01*
Y114418D01*
X44327D01*
Y114395D01*
X44280D01*
Y114372D01*
X44234D01*
Y114348D01*
X44164D01*
Y114325D01*
X44094D01*
Y114302D01*
X44024D01*
Y114279D01*
X43955D01*
Y114255D01*
X43885D01*
Y114232D01*
X43792D01*
Y114209D01*
X43676D01*
Y114186D01*
X43559D01*
Y114163D01*
X43397D01*
Y114139D01*
X43118D01*
Y114116D01*
X42885D01*
Y114139D01*
X42583D01*
Y114163D01*
X42420D01*
Y114186D01*
X42304D01*
Y114209D01*
X42188D01*
Y114232D01*
X42095D01*
Y114255D01*
X42002D01*
Y114279D01*
X41932D01*
Y114302D01*
X41862D01*
Y114325D01*
X41793D01*
Y114348D01*
X41723D01*
Y114372D01*
X41653D01*
Y114395D01*
X41583D01*
Y114418D01*
X41537D01*
Y114442D01*
X41467D01*
Y114465D01*
X41421D01*
Y114488D01*
X41374D01*
Y114511D01*
X41304D01*
Y114534D01*
X41258D01*
Y114558D01*
X41211D01*
Y114581D01*
X41165D01*
Y114604D01*
X41118D01*
Y114628D01*
X41072D01*
Y114651D01*
X41025D01*
Y114674D01*
X40979D01*
Y114697D01*
X40932D01*
Y114720D01*
X40886D01*
Y114744D01*
X40863D01*
Y114767D01*
X40816D01*
Y114790D01*
X40769D01*
Y114813D01*
X40723D01*
Y114837D01*
X40700D01*
Y114860D01*
X40653D01*
Y114883D01*
X40607D01*
Y114907D01*
X40584D01*
Y114930D01*
X40537D01*
Y114953D01*
X40514D01*
Y114976D01*
X40467D01*
Y114999D01*
X40444D01*
Y115023D01*
X40398D01*
Y115046D01*
X40374D01*
Y115069D01*
X40328D01*
Y115093D01*
X40304D01*
Y115116D01*
X40258D01*
Y115139D01*
X40235D01*
Y115162D01*
X40188D01*
Y115185D01*
X40165D01*
Y115209D01*
X40119D01*
Y115232D01*
X40095D01*
Y115255D01*
X40072D01*
Y115278D01*
X40025D01*
Y115302D01*
X40002D01*
Y115325D01*
X39956D01*
Y115348D01*
X39933D01*
Y115372D01*
X39909D01*
Y115395D01*
X39863D01*
Y115418D01*
X39840D01*
Y115441D01*
X39816D01*
Y115464D01*
X39793D01*
Y115488D01*
X39747D01*
Y115511D01*
X39723D01*
Y115534D01*
X39700D01*
Y115557D01*
X39654D01*
Y115581D01*
X39630D01*
Y115604D01*
X39607D01*
Y115627D01*
X39584D01*
Y115650D01*
X39537D01*
Y115674D01*
X39514D01*
Y115697D01*
X39491D01*
Y115720D01*
X39468D01*
Y115743D01*
X39421D01*
Y115767D01*
X39398D01*
Y115790D01*
X39375D01*
Y115813D01*
X39351D01*
Y115836D01*
X39328D01*
Y115860D01*
X39282D01*
Y115883D01*
X39258D01*
Y115906D01*
X39235D01*
Y115929D01*
X39212D01*
Y115953D01*
X39189D01*
Y115976D01*
X39142D01*
Y115999D01*
X39119D01*
Y116022D01*
X39096D01*
Y116046D01*
X39072D01*
Y116069D01*
X39049D01*
Y116092D01*
X39026D01*
Y116115D01*
X39003D01*
Y116139D01*
X38979D01*
Y116162D01*
X38956D01*
Y116185D01*
X38933D01*
Y116208D01*
X38910D01*
Y116232D01*
X38886D01*
Y116255D01*
X38863D01*
Y116278D01*
X38840D01*
Y116301D01*
X38793D01*
Y116325D01*
X38770D01*
Y116348D01*
X38747D01*
Y116371D01*
X38724D01*
Y116394D01*
X38700D01*
Y116418D01*
X38677D01*
Y116441D01*
X38654D01*
Y116464D01*
X38631D01*
Y116487D01*
X38607D01*
Y116511D01*
X38584D01*
Y116534D01*
X38561D01*
Y116557D01*
X38538D01*
Y116580D01*
X38514D01*
Y116604D01*
X38491D01*
Y116627D01*
X38468D01*
Y116650D01*
X38445D01*
Y116673D01*
X38421D01*
Y116697D01*
X38398D01*
Y116720D01*
X38375D01*
Y116743D01*
X38352D01*
Y116766D01*
X38328D01*
Y116790D01*
X38305D01*
Y116813D01*
X38282D01*
Y116836D01*
X38259D01*
Y116859D01*
X38235D01*
Y116883D01*
X38212D01*
Y116906D01*
X38189D01*
Y116929D01*
X38142D01*
Y116952D01*
X38119D01*
Y116976D01*
X38096D01*
Y116999D01*
X38073D01*
Y116976D01*
X38049D01*
Y116952D01*
X38026D01*
Y116929D01*
X38003D01*
Y116906D01*
X37980D01*
Y116883D01*
X37956D01*
Y116859D01*
X37933D01*
Y116836D01*
X37910D01*
Y116813D01*
X37887D01*
Y116790D01*
X37863D01*
Y116766D01*
X37840D01*
Y116743D01*
X37817D01*
Y116720D01*
X37794D01*
Y116697D01*
X37770D01*
Y116673D01*
Y116650D01*
X37747D01*
Y116627D01*
X37724D01*
Y116604D01*
X37701D01*
Y116580D01*
X37677D01*
Y116557D01*
X37654D01*
Y116534D01*
X37631D01*
Y116511D01*
X37608D01*
Y116487D01*
X37584D01*
Y116464D01*
X37561D01*
Y116441D01*
X37538D01*
Y116418D01*
X37515D01*
Y116394D01*
X37491D01*
Y116371D01*
X37468D01*
Y116348D01*
X37445D01*
Y116325D01*
X37422D01*
Y116301D01*
X37398D01*
Y116278D01*
X37375D01*
Y116255D01*
X37352D01*
Y116232D01*
X37329D01*
Y116208D01*
X37305D01*
Y116185D01*
X37282D01*
Y116162D01*
X37259D01*
Y116139D01*
X37236D01*
Y116115D01*
X37212D01*
Y116092D01*
X37189D01*
Y116069D01*
X37143D01*
Y116046D01*
X37119D01*
Y116022D01*
X37096D01*
Y115999D01*
X37073D01*
Y115976D01*
X37050D01*
Y115953D01*
X37026D01*
Y115929D01*
X37003D01*
Y115906D01*
X36980D01*
Y115883D01*
X36957D01*
Y115860D01*
X36933D01*
Y115836D01*
X36910D01*
Y115813D01*
X36887D01*
Y115790D01*
X36864D01*
Y115767D01*
X36840D01*
Y115743D01*
X36794D01*
Y115720D01*
X36771D01*
Y115697D01*
X36747D01*
Y115674D01*
X36724D01*
Y115650D01*
X36701D01*
Y115627D01*
X36678D01*
Y115604D01*
X36654D01*
Y115581D01*
X36631D01*
Y115557D01*
X36585D01*
Y115534D01*
X36561D01*
Y115511D01*
X36538D01*
Y115488D01*
X36515D01*
Y115464D01*
X36492D01*
Y115441D01*
X36468D01*
Y115418D01*
X36422D01*
Y115395D01*
X36399D01*
Y115372D01*
X36375D01*
Y115348D01*
X36352D01*
Y115325D01*
X36306D01*
Y115302D01*
X36282D01*
Y115278D01*
X36259D01*
Y115255D01*
X36236D01*
Y115232D01*
X36189D01*
Y115209D01*
X36166D01*
Y115185D01*
X36143D01*
Y115162D01*
X36096D01*
Y115139D01*
X36073D01*
Y115116D01*
X36050D01*
Y115093D01*
X36003D01*
Y115069D01*
X35980D01*
Y115046D01*
X35934D01*
Y115023D01*
X35910D01*
Y114999D01*
X35864D01*
Y114976D01*
X35841D01*
Y114953D01*
X35794D01*
Y114930D01*
X35771D01*
Y114907D01*
X35724D01*
Y114883D01*
X35678D01*
Y114860D01*
X35655D01*
Y114883D01*
Y114907D01*
X35678D01*
Y114930D01*
Y114953D01*
Y114976D01*
X35701D01*
Y114999D01*
Y115023D01*
Y115046D01*
Y115069D01*
Y115093D01*
Y115116D01*
Y115139D01*
Y115162D01*
Y115185D01*
Y115209D01*
Y115232D01*
Y115255D01*
Y115278D01*
Y115302D01*
Y115325D01*
Y115348D01*
Y115372D01*
Y115395D01*
Y115418D01*
Y115441D01*
Y115464D01*
Y115488D01*
Y115511D01*
Y115534D01*
Y115557D01*
Y115581D01*
Y115604D01*
Y115627D01*
Y115650D01*
Y115674D01*
Y115697D01*
Y115720D01*
Y115743D01*
Y115767D01*
Y115790D01*
Y115813D01*
Y115836D01*
Y115860D01*
Y115883D01*
Y115906D01*
Y115929D01*
Y115953D01*
Y115976D01*
Y115999D01*
Y116022D01*
Y116046D01*
Y116069D01*
X35748D01*
Y116092D01*
X35771D01*
Y116115D01*
X35794D01*
Y116139D01*
X35818D01*
Y116162D01*
X35864D01*
Y116185D01*
X35887D01*
Y116208D01*
X35910D01*
Y116232D01*
X35934D01*
Y116255D01*
X35957D01*
Y116278D01*
X35980D01*
Y116301D01*
X36027D01*
Y116325D01*
X36050D01*
Y116348D01*
X36073D01*
Y116371D01*
X36096D01*
Y116394D01*
X36120D01*
Y116418D01*
X36143D01*
Y116441D01*
X36166D01*
Y116464D01*
X36189D01*
Y116487D01*
X36213D01*
Y116511D01*
X36259D01*
Y116534D01*
X36282D01*
Y116557D01*
X36306D01*
Y116580D01*
X36329D01*
Y116604D01*
X36352D01*
Y116627D01*
X36375D01*
Y116650D01*
X36399D01*
Y116673D01*
X36422D01*
Y116697D01*
X36445D01*
Y116720D01*
X36468D01*
Y116743D01*
X36492D01*
Y116766D01*
X36515D01*
Y116790D01*
X36538D01*
Y116813D01*
X36561D01*
Y116836D01*
X36585D01*
Y116859D01*
X36608D01*
Y116883D01*
X36631D01*
Y116906D01*
X36654D01*
Y116929D01*
X36678D01*
Y116952D01*
X36701D01*
Y116976D01*
X36724D01*
Y116999D01*
X36747D01*
Y117022D01*
X36771D01*
Y117045D01*
X36794D01*
Y117069D01*
X36817D01*
Y117092D01*
X36840D01*
Y117115D01*
X36864D01*
Y117138D01*
X36887D01*
Y117162D01*
X36910D01*
Y117185D01*
X36933D01*
Y117208D01*
X36957D01*
Y117231D01*
X36980D01*
Y117255D01*
X37003D01*
Y117278D01*
X37026D01*
Y117301D01*
X37050D01*
Y117324D01*
X37073D01*
Y117348D01*
X37096D01*
Y117371D01*
X37119D01*
Y117394D01*
X37143D01*
Y117417D01*
X37166D01*
Y117441D01*
X37189D01*
Y117464D01*
X37212D01*
Y117487D01*
X37236D01*
Y117510D01*
X37259D01*
Y117534D01*
X37282D01*
Y117557D01*
X37305D01*
Y117580D01*
X37329D01*
Y117603D01*
X37352D01*
Y117627D01*
X37375D01*
Y117650D01*
Y117673D01*
Y117696D01*
X37352D01*
Y117720D01*
X37329D01*
Y117743D01*
X37305D01*
Y117766D01*
X37282D01*
Y117789D01*
X37259D01*
Y117813D01*
X37236D01*
Y117836D01*
X37212D01*
Y117859D01*
X37189D01*
Y117882D01*
X37166D01*
Y117906D01*
X37119D01*
Y117929D01*
X37096D01*
Y117952D01*
X37073D01*
Y117975D01*
X37050D01*
Y117999D01*
X37026D01*
Y118022D01*
X37003D01*
Y118045D01*
X36980D01*
Y118068D01*
X36957D01*
Y118092D01*
X36933D01*
Y118115D01*
X36910D01*
Y118138D01*
X36887D01*
Y118161D01*
X36864D01*
Y118185D01*
X36840D01*
Y118208D01*
X36794D01*
Y118231D01*
X36771D01*
Y118254D01*
X36747D01*
Y118278D01*
X36724D01*
Y118301D01*
X36701D01*
Y118324D01*
X36678D01*
Y118347D01*
X36654D01*
Y118371D01*
X36631D01*
Y118394D01*
X36608D01*
Y118417D01*
X36585D01*
Y118440D01*
X36561D01*
Y118464D01*
X36515D01*
Y118487D01*
X36492D01*
Y118510D01*
X36468D01*
Y118533D01*
X36445D01*
Y118557D01*
X36422D01*
Y118580D01*
X36399D01*
Y118603D01*
X36375D01*
Y118626D01*
X36352D01*
Y118650D01*
X36306D01*
Y118673D01*
X36282D01*
Y118696D01*
X36259D01*
Y118719D01*
X36236D01*
Y118743D01*
X36213D01*
Y118766D01*
X36189D01*
Y118789D01*
X36166D01*
Y118812D01*
X36120D01*
Y118836D01*
X36096D01*
Y118859D01*
X36073D01*
Y118882D01*
X36050D01*
Y118905D01*
X36027D01*
Y118929D01*
X36003D01*
Y118952D01*
X35957D01*
Y118975D01*
X35934D01*
Y118998D01*
X35910D01*
Y119022D01*
X35887D01*
Y119045D01*
X35864D01*
Y119068D01*
X35841D01*
Y119091D01*
X35794D01*
Y119115D01*
X35771D01*
Y119138D01*
X35748D01*
Y119161D01*
X35724D01*
Y119184D01*
X35678D01*
Y119208D01*
X35655D01*
Y119231D01*
X35631D01*
Y119254D01*
X35608D01*
Y119277D01*
X35562D01*
Y119300D01*
X35539D01*
Y119324D01*
X35515D01*
Y119347D01*
X35469D01*
Y119370D01*
X35445D01*
Y119394D01*
X35422D01*
Y119417D01*
X35376D01*
Y119440D01*
X35353D01*
Y119463D01*
X35469D01*
Y119486D01*
X35539D01*
Y119510D01*
X35585D01*
Y119533D01*
X35631D01*
Y119556D01*
X35678D01*
Y119580D01*
X35701D01*
Y119603D01*
X35724D01*
Y119626D01*
X35748D01*
Y119649D01*
X35771D01*
Y119673D01*
X35794D01*
Y119696D01*
Y119719D01*
X35818D01*
Y119742D01*
Y119765D01*
X35841D01*
Y119789D01*
Y119812D01*
X35864D01*
Y119835D01*
Y119859D01*
Y119882D01*
X35887D01*
Y119905D01*
Y119928D01*
Y119951D01*
Y119975D01*
Y119998D01*
Y120021D01*
Y120045D01*
Y120068D01*
Y120091D01*
Y120114D01*
Y120138D01*
Y120161D01*
X35864D01*
Y120184D01*
Y120207D01*
Y120230D01*
X35841D01*
Y120254D01*
Y120277D01*
X35864D01*
Y120254D01*
X35887D01*
Y120230D01*
X35934D01*
Y120207D01*
X35957D01*
Y120184D01*
X35980D01*
Y120161D01*
X36027D01*
Y120138D01*
X36050D01*
Y120114D01*
X36073D01*
Y120091D01*
X36120D01*
Y120068D01*
X36143D01*
Y120045D01*
X36166D01*
Y120021D01*
X36213D01*
Y119998D01*
X36236D01*
Y119975D01*
X36259D01*
Y119951D01*
X36282D01*
Y119928D01*
X36329D01*
Y119905D01*
X36352D01*
Y119882D01*
X36375D01*
Y119859D01*
X36399D01*
Y119835D01*
X36445D01*
Y119812D01*
X36468D01*
Y119789D01*
X36492D01*
Y119765D01*
X36515D01*
Y119742D01*
X36538D01*
Y119719D01*
X36585D01*
Y119696D01*
X36608D01*
Y119673D01*
X36631D01*
Y119649D01*
X36654D01*
Y119626D01*
X36678D01*
Y119603D01*
X36701D01*
Y119580D01*
X36747D01*
Y119556D01*
X36771D01*
Y119533D01*
X36794D01*
Y119510D01*
X36817D01*
Y119486D01*
X36840D01*
Y119463D01*
X36864D01*
Y119440D01*
X36887D01*
Y119417D01*
X36933D01*
Y119394D01*
X36957D01*
Y119370D01*
X36980D01*
Y119347D01*
X37003D01*
Y119324D01*
X37026D01*
Y119300D01*
X37050D01*
Y119277D01*
X37073D01*
Y119254D01*
X37096D01*
Y119231D01*
X37143D01*
Y119208D01*
X37166D01*
Y119184D01*
X37189D01*
Y119161D01*
X37212D01*
Y119138D01*
X37236D01*
Y119115D01*
X37259D01*
Y119091D01*
X37282D01*
Y119068D01*
X37305D01*
Y119045D01*
X37329D01*
Y119022D01*
X37352D01*
Y118998D01*
X37398D01*
Y118975D01*
X37422D01*
Y118952D01*
X37445D01*
Y118929D01*
X37468D01*
Y118905D01*
X37491D01*
Y118882D01*
X37515D01*
Y118859D01*
X37538D01*
Y118836D01*
X37561D01*
Y118812D01*
X37584D01*
Y118789D01*
X37608D01*
Y118766D01*
X37631D01*
Y118743D01*
X37654D01*
Y118719D01*
X37701D01*
Y118696D01*
X37724D01*
Y118673D01*
X37747D01*
Y118650D01*
X37770D01*
Y118626D01*
X37794D01*
Y118603D01*
X37817D01*
Y118580D01*
X37840D01*
Y118557D01*
X37863D01*
Y118533D01*
X37887D01*
Y118510D01*
X37910D01*
Y118487D01*
X37933D01*
Y118464D01*
X37956D01*
Y118440D01*
X37980D01*
Y118417D01*
X38003D01*
Y118394D01*
X38026D01*
Y118371D01*
X38073D01*
Y118394D01*
X38096D01*
Y118417D01*
X38119D01*
Y118440D01*
X38142D01*
Y118464D01*
X38166D01*
Y118487D01*
X38189D01*
Y118510D01*
X38212D01*
Y118533D01*
X38235D01*
Y118557D01*
X38259D01*
Y118580D01*
X38282D01*
Y118603D01*
X38305D01*
Y118626D01*
X38328D01*
Y118650D01*
X38352D01*
Y118673D01*
X38375D01*
Y118696D01*
X38398D01*
Y118719D01*
X38421D01*
Y118743D01*
X38445D01*
Y118766D01*
X38468D01*
Y118789D01*
X38491D01*
Y118812D01*
X38514D01*
Y118836D01*
X38538D01*
Y118859D01*
X38561D01*
Y118882D01*
X38584D01*
Y118905D01*
X38607D01*
Y118929D01*
X38631D01*
Y118952D01*
X38654D01*
Y118975D01*
X38677D01*
Y118998D01*
X38700D01*
Y119022D01*
X38724D01*
Y119045D01*
X38747D01*
Y119068D01*
X38770D01*
Y119091D01*
X38793D01*
Y119115D01*
X38817D01*
Y119138D01*
X38840D01*
Y119161D01*
X38863D01*
Y119184D01*
X38886D01*
Y119208D01*
X38910D01*
Y119231D01*
X38933D01*
Y119254D01*
X38956D01*
Y119277D01*
X38979D01*
Y119300D01*
X39003D01*
Y119324D01*
X39049D01*
Y119347D01*
X39072D01*
Y119370D01*
X39096D01*
Y119394D01*
X39119D01*
Y119417D01*
X39142D01*
Y119440D01*
X39165D01*
Y119463D01*
X39189D01*
Y119486D01*
X39212D01*
Y119510D01*
X39235D01*
Y119533D01*
X39258D01*
Y119556D01*
X39282D01*
Y119580D01*
X39328D01*
Y119603D01*
X39351D01*
Y119626D01*
X39375D01*
Y119649D01*
X39398D01*
Y119673D01*
X39421D01*
Y119696D01*
X39444D01*
Y119719D01*
X39468D01*
Y119742D01*
X39514D01*
Y119765D01*
X39537D01*
Y119789D01*
X39561D01*
Y119812D01*
X39584D01*
Y119835D01*
X39607D01*
Y119859D01*
X39630D01*
Y119882D01*
X39677D01*
Y119905D01*
X39700D01*
Y119928D01*
X39723D01*
Y119951D01*
X39747D01*
Y119975D01*
X39793D01*
Y119998D01*
X39816D01*
Y120021D01*
X39840D01*
Y120045D01*
X39863D01*
Y120068D01*
X39909D01*
Y120091D01*
X39933D01*
Y120114D01*
X39956D01*
Y120138D01*
X40002D01*
Y120161D01*
X40025D01*
Y120184D01*
X40049D01*
Y120207D01*
X40095D01*
Y120230D01*
X40119D01*
Y120254D01*
X40142D01*
Y120277D01*
X40188D01*
Y120300D01*
X40211D01*
Y120324D01*
X40258D01*
Y120347D01*
X40281D01*
Y120370D01*
X40328D01*
Y120393D01*
X40351D01*
Y120416D01*
X40398D01*
Y120440D01*
X40421D01*
Y120463D01*
X40467D01*
Y120486D01*
X40490D01*
Y120510D01*
X40537D01*
Y120533D01*
X40584D01*
Y120556D01*
X40607D01*
Y120579D01*
X40653D01*
Y120603D01*
X40700D01*
Y120626D01*
X40723D01*
Y120649D01*
X40769D01*
Y120672D01*
X40816D01*
Y120695D01*
X40863D01*
Y120719D01*
X40909D01*
Y120742D01*
X40955D01*
Y120765D01*
X41002D01*
Y120789D01*
X41048D01*
Y120812D01*
X41095D01*
Y120835D01*
X41142D01*
Y120858D01*
X41188D01*
Y120881D01*
X41258D01*
Y120905D01*
X41304D01*
Y120928D01*
X41374D01*
Y120951D01*
X41421D01*
Y120975D01*
X41490D01*
Y120998D01*
X41560D01*
Y121021D01*
X41630D01*
Y121044D01*
X41699D01*
Y121068D01*
X41769D01*
Y121091D01*
X41839D01*
Y121114D01*
X41932D01*
Y121137D01*
X42025D01*
Y121160D01*
X42141D01*
Y121184D01*
X42257D01*
Y121207D01*
X42420D01*
Y121230D01*
X42653D01*
Y121254D01*
X43234D01*
Y121230D01*
D02*
G37*
G36*
X34492Y113512D02*
X34585D01*
Y113488D01*
X34632D01*
Y113465D01*
X34678D01*
Y113442D01*
X34725D01*
Y113418D01*
X34771D01*
Y113395D01*
X34795D01*
Y113372D01*
X34818D01*
Y113349D01*
Y113326D01*
X34795D01*
Y113302D01*
X34771D01*
Y113279D01*
X34701D01*
Y113302D01*
X34678D01*
Y113326D01*
X34655D01*
Y113349D01*
X34609D01*
Y113372D01*
X34562D01*
Y113395D01*
X34492D01*
Y113418D01*
X34167D01*
Y113395D01*
X34097D01*
Y113372D01*
X34027D01*
Y113349D01*
X34004D01*
Y113326D01*
X33957D01*
Y113302D01*
X33934D01*
Y113279D01*
X33911D01*
Y113256D01*
X33888D01*
Y113233D01*
X33865D01*
Y113209D01*
X33841D01*
Y113186D01*
X33818D01*
Y113163D01*
Y113139D01*
X33795D01*
Y113116D01*
Y113093D01*
X33771D01*
Y113070D01*
Y113047D01*
X33748D01*
Y113023D01*
Y113000D01*
Y112977D01*
Y112953D01*
X33725D01*
Y112930D01*
Y112907D01*
Y112884D01*
Y112861D01*
Y112837D01*
Y112814D01*
Y112791D01*
Y112768D01*
Y112744D01*
Y112721D01*
X33748D01*
Y112698D01*
Y112675D01*
Y112651D01*
X33771D01*
Y112628D01*
Y112605D01*
Y112582D01*
X33795D01*
Y112558D01*
X33818D01*
Y112535D01*
Y112512D01*
X33841D01*
Y112489D01*
X33865D01*
Y112465D01*
X33888D01*
Y112442D01*
X33911D01*
Y112419D01*
X33934D01*
Y112396D01*
X33957D01*
Y112372D01*
X33981D01*
Y112349D01*
X34027D01*
Y112326D01*
X34074D01*
Y112303D01*
X34143D01*
Y112279D01*
X34283D01*
Y112256D01*
X34353D01*
Y112279D01*
X34492D01*
Y112303D01*
X34562D01*
Y112326D01*
X34632D01*
Y112349D01*
X34655D01*
Y112372D01*
X34678D01*
Y112396D01*
X34701D01*
Y112419D01*
Y112442D01*
Y112465D01*
Y112489D01*
Y112512D01*
Y112535D01*
Y112558D01*
Y112582D01*
Y112605D01*
Y112628D01*
Y112651D01*
Y112675D01*
Y112698D01*
Y112721D01*
Y112744D01*
Y112768D01*
Y112791D01*
Y112814D01*
Y112837D01*
X34818D01*
Y112814D01*
Y112791D01*
Y112768D01*
Y112744D01*
Y112721D01*
Y112698D01*
Y112675D01*
Y112651D01*
Y112628D01*
Y112605D01*
Y112582D01*
Y112558D01*
Y112535D01*
Y112512D01*
Y112489D01*
Y112465D01*
Y112442D01*
Y112419D01*
Y112396D01*
Y112372D01*
Y112349D01*
Y112326D01*
Y112303D01*
X34771D01*
Y112279D01*
X34748D01*
Y112256D01*
X34701D01*
Y112233D01*
X34655D01*
Y112210D01*
X34609D01*
Y112186D01*
X34516D01*
Y112163D01*
X34120D01*
Y112186D01*
X34051D01*
Y112210D01*
X33981D01*
Y112233D01*
X33934D01*
Y112256D01*
X33911D01*
Y112279D01*
X33865D01*
Y112303D01*
X33841D01*
Y112326D01*
X33818D01*
Y112349D01*
X33795D01*
Y112372D01*
X33771D01*
Y112396D01*
X33748D01*
Y112419D01*
X33725D01*
Y112442D01*
X33702D01*
Y112465D01*
Y112489D01*
X33678D01*
Y112512D01*
Y112535D01*
X33655D01*
Y112558D01*
Y112582D01*
X33632D01*
Y112605D01*
Y112628D01*
Y112651D01*
X33609D01*
Y112675D01*
Y112698D01*
Y112721D01*
Y112744D01*
Y112768D01*
Y112791D01*
Y112814D01*
Y112837D01*
Y112861D01*
Y112884D01*
Y112907D01*
Y112930D01*
Y112953D01*
Y112977D01*
Y113000D01*
Y113023D01*
Y113047D01*
X33632D01*
Y113070D01*
Y113093D01*
Y113116D01*
X33655D01*
Y113139D01*
Y113163D01*
X33678D01*
Y113186D01*
Y113209D01*
X33702D01*
Y113233D01*
X33725D01*
Y113256D01*
Y113279D01*
X33748D01*
Y113302D01*
X33771D01*
Y113326D01*
X33795D01*
Y113349D01*
X33818D01*
Y113372D01*
X33841D01*
Y113395D01*
X33865D01*
Y113418D01*
X33911D01*
Y113442D01*
X33957D01*
Y113465D01*
X34004D01*
Y113488D01*
X34051D01*
Y113512D01*
X34143D01*
Y113535D01*
X34492D01*
Y113512D01*
D02*
G37*
G36*
X42606D02*
X42583D01*
Y113488D01*
Y113465D01*
X42560D01*
Y113442D01*
X42537D01*
Y113418D01*
Y113395D01*
X42513D01*
Y113372D01*
Y113349D01*
X42490D01*
Y113326D01*
X42467D01*
Y113302D01*
Y113279D01*
X42443D01*
Y113256D01*
X42420D01*
Y113233D01*
Y113209D01*
X42397D01*
Y113186D01*
Y113163D01*
X42374D01*
Y113139D01*
X42351D01*
Y113116D01*
Y113093D01*
X42327D01*
Y113070D01*
Y113047D01*
X42304D01*
Y113023D01*
X42281D01*
Y113000D01*
Y112977D01*
X42257D01*
Y112953D01*
Y112930D01*
X42234D01*
Y112907D01*
X42211D01*
Y112884D01*
Y112861D01*
X42188D01*
Y112837D01*
X42164D01*
Y112814D01*
Y112791D01*
X42141D01*
Y112768D01*
Y112744D01*
X42118D01*
Y112721D01*
X42095D01*
Y112698D01*
Y112675D01*
X42072D01*
Y112651D01*
Y112628D01*
X42048D01*
Y112605D01*
Y112582D01*
Y112558D01*
Y112535D01*
Y112512D01*
Y112489D01*
Y112465D01*
Y112442D01*
Y112419D01*
Y112396D01*
Y112372D01*
Y112349D01*
Y112326D01*
Y112303D01*
Y112279D01*
Y112256D01*
Y112233D01*
Y112210D01*
Y112186D01*
Y112163D01*
X41932D01*
Y112186D01*
Y112210D01*
Y112233D01*
Y112256D01*
Y112279D01*
Y112303D01*
Y112326D01*
Y112349D01*
Y112372D01*
Y112396D01*
Y112419D01*
Y112442D01*
Y112465D01*
Y112489D01*
Y112512D01*
Y112535D01*
Y112558D01*
Y112582D01*
Y112605D01*
Y112628D01*
Y112651D01*
X41909D01*
Y112675D01*
X41886D01*
Y112698D01*
Y112721D01*
X41862D01*
Y112744D01*
Y112768D01*
X41839D01*
Y112791D01*
X41816D01*
Y112814D01*
Y112837D01*
X41793D01*
Y112861D01*
Y112884D01*
X41769D01*
Y112907D01*
X41746D01*
Y112930D01*
Y112953D01*
X41723D01*
Y112977D01*
Y113000D01*
X41699D01*
Y113023D01*
X41676D01*
Y113047D01*
Y113070D01*
X41653D01*
Y113093D01*
X41630D01*
Y113116D01*
Y113139D01*
X41607D01*
Y113163D01*
Y113186D01*
X41583D01*
Y113209D01*
X41560D01*
Y113233D01*
Y113256D01*
X41537D01*
Y113279D01*
Y113302D01*
X41513D01*
Y113326D01*
X41490D01*
Y113349D01*
Y113372D01*
X41467D01*
Y113395D01*
Y113418D01*
X41444D01*
Y113442D01*
X41421D01*
Y113465D01*
Y113488D01*
X41397D01*
Y113512D01*
X41374D01*
Y113535D01*
X41537D01*
Y113512D01*
Y113488D01*
X41560D01*
Y113465D01*
Y113442D01*
X41583D01*
Y113418D01*
X41607D01*
Y113395D01*
Y113372D01*
X41630D01*
Y113349D01*
Y113326D01*
X41653D01*
Y113302D01*
X41676D01*
Y113279D01*
Y113256D01*
X41699D01*
Y113233D01*
X41723D01*
Y113209D01*
Y113186D01*
X41746D01*
Y113163D01*
Y113139D01*
X41769D01*
Y113116D01*
X41793D01*
Y113093D01*
Y113070D01*
X41816D01*
Y113047D01*
Y113023D01*
X41839D01*
Y113000D01*
X41862D01*
Y112977D01*
Y112953D01*
X41886D01*
Y112930D01*
Y112907D01*
X41909D01*
Y112884D01*
X41932D01*
Y112861D01*
Y112837D01*
X41955D01*
Y112814D01*
X41978D01*
Y112791D01*
Y112768D01*
X42025D01*
Y112791D01*
Y112814D01*
X42048D01*
Y112837D01*
Y112861D01*
X42072D01*
Y112884D01*
X42095D01*
Y112907D01*
Y112930D01*
X42118D01*
Y112953D01*
X42141D01*
Y112977D01*
Y113000D01*
X42164D01*
Y113023D01*
Y113047D01*
X42188D01*
Y113070D01*
X42211D01*
Y113093D01*
Y113116D01*
X42234D01*
Y113139D01*
Y113163D01*
X42257D01*
Y113186D01*
X42281D01*
Y113209D01*
Y113233D01*
X42304D01*
Y113256D01*
Y113279D01*
X42327D01*
Y113302D01*
X42351D01*
Y113326D01*
Y113349D01*
X42374D01*
Y113372D01*
Y113395D01*
X42397D01*
Y113418D01*
X42420D01*
Y113442D01*
Y113465D01*
X42443D01*
Y113488D01*
X42467D01*
Y113512D01*
Y113535D01*
X42606D01*
Y113512D01*
D02*
G37*
G36*
X39886D02*
Y113488D01*
Y113465D01*
Y113442D01*
Y113418D01*
Y113395D01*
Y113372D01*
Y113349D01*
Y113326D01*
Y113302D01*
Y113279D01*
Y113256D01*
Y113233D01*
Y113209D01*
Y113186D01*
Y113163D01*
Y113139D01*
Y113116D01*
Y113093D01*
Y113070D01*
Y113047D01*
Y113023D01*
Y113000D01*
Y112977D01*
Y112953D01*
Y112930D01*
Y112907D01*
Y112884D01*
Y112861D01*
Y112837D01*
Y112814D01*
Y112791D01*
Y112768D01*
Y112744D01*
Y112721D01*
Y112698D01*
Y112675D01*
Y112651D01*
Y112628D01*
Y112605D01*
Y112582D01*
Y112558D01*
Y112535D01*
Y112512D01*
Y112489D01*
Y112465D01*
Y112442D01*
Y112419D01*
Y112396D01*
Y112372D01*
Y112349D01*
Y112326D01*
Y112303D01*
Y112279D01*
Y112256D01*
Y112233D01*
Y112210D01*
Y112186D01*
Y112163D01*
X39770D01*
Y112186D01*
X39747D01*
Y112210D01*
X39723D01*
Y112233D01*
Y112256D01*
X39700D01*
Y112279D01*
X39677D01*
Y112303D01*
X39654D01*
Y112326D01*
X39630D01*
Y112349D01*
Y112372D01*
X39607D01*
Y112396D01*
X39584D01*
Y112419D01*
X39561D01*
Y112442D01*
X39537D01*
Y112465D01*
Y112489D01*
X39514D01*
Y112512D01*
X39491D01*
Y112535D01*
X39468D01*
Y112558D01*
Y112582D01*
X39444D01*
Y112605D01*
X39421D01*
Y112628D01*
X39398D01*
Y112651D01*
X39375D01*
Y112675D01*
Y112698D01*
X39351D01*
Y112721D01*
X39328D01*
Y112744D01*
X39305D01*
Y112768D01*
X39282D01*
Y112791D01*
Y112814D01*
X39258D01*
Y112837D01*
X39235D01*
Y112861D01*
X39212D01*
Y112884D01*
X39189D01*
Y112907D01*
Y112930D01*
X39165D01*
Y112953D01*
X39142D01*
Y112977D01*
X39119D01*
Y113000D01*
X39096D01*
Y113023D01*
Y113047D01*
X39072D01*
Y113070D01*
X39049D01*
Y113093D01*
X39026D01*
Y113116D01*
Y113139D01*
X39003D01*
Y113163D01*
X38979D01*
Y113186D01*
X38956D01*
Y113209D01*
X38933D01*
Y113233D01*
Y113256D01*
X38910D01*
Y113279D01*
X38886D01*
Y113256D01*
Y113233D01*
Y113209D01*
Y113186D01*
Y113163D01*
Y113139D01*
Y113116D01*
Y113093D01*
Y113070D01*
Y113047D01*
Y113023D01*
Y113000D01*
Y112977D01*
Y112953D01*
Y112930D01*
Y112907D01*
Y112884D01*
Y112861D01*
Y112837D01*
Y112814D01*
Y112791D01*
Y112768D01*
Y112744D01*
Y112721D01*
Y112698D01*
Y112675D01*
Y112651D01*
Y112628D01*
Y112605D01*
Y112582D01*
Y112558D01*
Y112535D01*
Y112512D01*
Y112489D01*
Y112465D01*
Y112442D01*
Y112419D01*
Y112396D01*
Y112372D01*
Y112349D01*
Y112326D01*
Y112303D01*
Y112279D01*
Y112256D01*
Y112233D01*
Y112210D01*
Y112186D01*
Y112163D01*
X38747D01*
Y112186D01*
Y112210D01*
Y112233D01*
Y112256D01*
Y112279D01*
Y112303D01*
Y112326D01*
Y112349D01*
Y112372D01*
Y112396D01*
Y112419D01*
Y112442D01*
Y112465D01*
Y112489D01*
Y112512D01*
Y112535D01*
Y112558D01*
Y112582D01*
Y112605D01*
Y112628D01*
Y112651D01*
Y112675D01*
Y112698D01*
Y112721D01*
Y112744D01*
Y112768D01*
Y112791D01*
Y112814D01*
Y112837D01*
Y112861D01*
Y112884D01*
Y112907D01*
Y112930D01*
Y112953D01*
Y112977D01*
Y113000D01*
Y113023D01*
Y113047D01*
Y113070D01*
Y113093D01*
Y113116D01*
Y113139D01*
Y113163D01*
Y113186D01*
Y113209D01*
Y113233D01*
Y113256D01*
Y113279D01*
Y113302D01*
Y113326D01*
Y113349D01*
Y113372D01*
Y113395D01*
Y113418D01*
Y113442D01*
Y113465D01*
Y113488D01*
Y113512D01*
Y113535D01*
X38863D01*
Y113512D01*
X38886D01*
Y113488D01*
X38910D01*
Y113465D01*
X38933D01*
Y113442D01*
Y113418D01*
X38956D01*
Y113395D01*
X38979D01*
Y113372D01*
X39003D01*
Y113349D01*
X39026D01*
Y113326D01*
Y113302D01*
X39049D01*
Y113279D01*
X39072D01*
Y113256D01*
X39096D01*
Y113233D01*
X39119D01*
Y113209D01*
Y113186D01*
X39142D01*
Y113163D01*
X39165D01*
Y113139D01*
X39189D01*
Y113116D01*
X39212D01*
Y113093D01*
Y113070D01*
X39235D01*
Y113047D01*
X39258D01*
Y113023D01*
X39282D01*
Y113000D01*
X39305D01*
Y112977D01*
Y112953D01*
X39328D01*
Y112930D01*
X39351D01*
Y112907D01*
X39375D01*
Y112884D01*
Y112861D01*
X39398D01*
Y112837D01*
X39421D01*
Y112814D01*
X39444D01*
Y112791D01*
X39468D01*
Y112768D01*
Y112744D01*
X39491D01*
Y112721D01*
X39514D01*
Y112698D01*
X39537D01*
Y112675D01*
X39561D01*
Y112651D01*
Y112628D01*
X39584D01*
Y112605D01*
X39607D01*
Y112582D01*
X39630D01*
Y112558D01*
X39654D01*
Y112535D01*
Y112512D01*
X39677D01*
Y112489D01*
X39700D01*
Y112465D01*
X39723D01*
Y112442D01*
X39770D01*
Y112465D01*
Y112489D01*
Y112512D01*
Y112535D01*
Y112558D01*
Y112582D01*
Y112605D01*
Y112628D01*
Y112651D01*
Y112675D01*
Y112698D01*
Y112721D01*
Y112744D01*
Y112768D01*
Y112791D01*
Y112814D01*
Y112837D01*
Y112861D01*
Y112884D01*
Y112907D01*
Y112930D01*
Y112953D01*
Y112977D01*
Y113000D01*
Y113023D01*
Y113047D01*
Y113070D01*
Y113093D01*
Y113116D01*
Y113139D01*
Y113163D01*
Y113186D01*
Y113209D01*
Y113233D01*
Y113256D01*
Y113279D01*
Y113302D01*
Y113326D01*
Y113349D01*
Y113372D01*
Y113395D01*
Y113418D01*
Y113442D01*
Y113465D01*
Y113488D01*
Y113512D01*
Y113535D01*
X39886D01*
Y113512D01*
D02*
G37*
G36*
X37701D02*
Y113488D01*
Y113465D01*
Y113442D01*
Y113418D01*
Y113395D01*
Y113372D01*
Y113349D01*
Y113326D01*
Y113302D01*
Y113279D01*
Y113256D01*
Y113233D01*
Y113209D01*
Y113186D01*
Y113163D01*
Y113139D01*
Y113116D01*
Y113093D01*
Y113070D01*
Y113047D01*
Y113023D01*
Y113000D01*
Y112977D01*
Y112953D01*
Y112930D01*
Y112907D01*
Y112884D01*
Y112861D01*
Y112837D01*
Y112814D01*
Y112791D01*
Y112768D01*
Y112744D01*
Y112721D01*
Y112698D01*
Y112675D01*
Y112651D01*
Y112628D01*
Y112605D01*
Y112582D01*
Y112558D01*
Y112535D01*
Y112512D01*
Y112489D01*
Y112465D01*
Y112442D01*
Y112419D01*
Y112396D01*
Y112372D01*
Y112349D01*
Y112326D01*
Y112303D01*
Y112279D01*
Y112256D01*
Y112233D01*
Y112210D01*
Y112186D01*
Y112163D01*
X37584D01*
Y112186D01*
X37561D01*
Y112210D01*
X37538D01*
Y112233D01*
X37515D01*
Y112256D01*
X37491D01*
Y112279D01*
Y112303D01*
X37468D01*
Y112326D01*
X37445D01*
Y112349D01*
X37422D01*
Y112372D01*
X37398D01*
Y112396D01*
Y112419D01*
X37375D01*
Y112442D01*
X37352D01*
Y112465D01*
X37329D01*
Y112489D01*
X37305D01*
Y112512D01*
Y112535D01*
X37282D01*
Y112558D01*
X37259D01*
Y112582D01*
X37236D01*
Y112605D01*
X37212D01*
Y112628D01*
Y112651D01*
X37189D01*
Y112675D01*
X37166D01*
Y112698D01*
X37143D01*
Y112721D01*
X37119D01*
Y112744D01*
Y112768D01*
X37096D01*
Y112791D01*
X37073D01*
Y112814D01*
X37050D01*
Y112837D01*
Y112861D01*
X37026D01*
Y112884D01*
X37003D01*
Y112907D01*
X36980D01*
Y112930D01*
X36957D01*
Y112953D01*
Y112977D01*
X36933D01*
Y113000D01*
X36910D01*
Y113023D01*
X36887D01*
Y113047D01*
X36864D01*
Y113070D01*
Y113093D01*
X36840D01*
Y113116D01*
X36817D01*
Y113139D01*
X36794D01*
Y113163D01*
X36771D01*
Y113186D01*
Y113209D01*
X36747D01*
Y113233D01*
X36724D01*
Y113256D01*
X36678D01*
Y113233D01*
Y113209D01*
Y113186D01*
Y113163D01*
Y113139D01*
Y113116D01*
Y113093D01*
Y113070D01*
Y113047D01*
Y113023D01*
Y113000D01*
Y112977D01*
Y112953D01*
Y112930D01*
Y112907D01*
Y112884D01*
Y112861D01*
Y112837D01*
Y112814D01*
Y112791D01*
Y112768D01*
Y112744D01*
Y112721D01*
Y112698D01*
Y112675D01*
Y112651D01*
Y112628D01*
Y112605D01*
Y112582D01*
Y112558D01*
Y112535D01*
Y112512D01*
Y112489D01*
Y112465D01*
Y112442D01*
Y112419D01*
Y112396D01*
Y112372D01*
Y112349D01*
Y112326D01*
Y112303D01*
Y112279D01*
Y112256D01*
Y112233D01*
Y112210D01*
Y112186D01*
Y112163D01*
X36561D01*
Y112186D01*
Y112210D01*
Y112233D01*
Y112256D01*
Y112279D01*
Y112303D01*
Y112326D01*
Y112349D01*
Y112372D01*
Y112396D01*
Y112419D01*
Y112442D01*
Y112465D01*
Y112489D01*
Y112512D01*
Y112535D01*
Y112558D01*
Y112582D01*
Y112605D01*
Y112628D01*
Y112651D01*
Y112675D01*
Y112698D01*
Y112721D01*
Y112744D01*
Y112768D01*
Y112791D01*
Y112814D01*
Y112837D01*
Y112861D01*
Y112884D01*
Y112907D01*
Y112930D01*
Y112953D01*
Y112977D01*
Y113000D01*
Y113023D01*
Y113047D01*
Y113070D01*
Y113093D01*
Y113116D01*
Y113139D01*
Y113163D01*
Y113186D01*
Y113209D01*
Y113233D01*
Y113256D01*
Y113279D01*
Y113302D01*
Y113326D01*
Y113349D01*
Y113372D01*
Y113395D01*
Y113418D01*
Y113442D01*
Y113465D01*
Y113488D01*
Y113512D01*
Y113535D01*
X36678D01*
Y113512D01*
X36701D01*
Y113488D01*
Y113465D01*
X36724D01*
Y113442D01*
X36747D01*
Y113418D01*
X36771D01*
Y113395D01*
X36794D01*
Y113372D01*
Y113349D01*
X36817D01*
Y113326D01*
X36840D01*
Y113302D01*
X36864D01*
Y113279D01*
Y113256D01*
X36887D01*
Y113233D01*
X36910D01*
Y113209D01*
X36933D01*
Y113186D01*
X36957D01*
Y113163D01*
Y113139D01*
X36980D01*
Y113116D01*
X37003D01*
Y113093D01*
X37026D01*
Y113070D01*
X37050D01*
Y113047D01*
Y113023D01*
X37073D01*
Y113000D01*
X37096D01*
Y112977D01*
X37119D01*
Y112953D01*
X37143D01*
Y112930D01*
Y112907D01*
X37166D01*
Y112884D01*
X37189D01*
Y112861D01*
X37212D01*
Y112837D01*
X37236D01*
Y112814D01*
Y112791D01*
X37259D01*
Y112768D01*
X37282D01*
Y112744D01*
X37305D01*
Y112721D01*
X37329D01*
Y112698D01*
Y112675D01*
X37352D01*
Y112651D01*
X37375D01*
Y112628D01*
X37398D01*
Y112605D01*
X37422D01*
Y112582D01*
Y112558D01*
X37445D01*
Y112535D01*
X37468D01*
Y112512D01*
X37491D01*
Y112489D01*
Y112465D01*
X37515D01*
Y112442D01*
X37538D01*
Y112419D01*
X37561D01*
Y112442D01*
Y112465D01*
Y112489D01*
Y112512D01*
Y112535D01*
Y112558D01*
Y112582D01*
Y112605D01*
Y112628D01*
Y112651D01*
Y112675D01*
Y112698D01*
Y112721D01*
Y112744D01*
Y112768D01*
Y112791D01*
Y112814D01*
Y112837D01*
Y112861D01*
Y112884D01*
Y112907D01*
Y112930D01*
Y112953D01*
Y112977D01*
Y113000D01*
Y113023D01*
Y113047D01*
Y113070D01*
Y113093D01*
Y113116D01*
Y113139D01*
Y113163D01*
Y113186D01*
Y113209D01*
Y113233D01*
Y113256D01*
Y113279D01*
Y113302D01*
Y113326D01*
Y113349D01*
Y113372D01*
Y113395D01*
Y113418D01*
Y113442D01*
Y113465D01*
Y113488D01*
Y113512D01*
Y113535D01*
X37701D01*
Y113512D01*
D02*
G37*
G36*
X41281D02*
Y113488D01*
Y113465D01*
Y113442D01*
Y113418D01*
X40490D01*
Y113395D01*
Y113372D01*
Y113349D01*
Y113326D01*
Y113302D01*
Y113279D01*
Y113256D01*
Y113233D01*
Y113209D01*
Y113186D01*
Y113163D01*
Y113139D01*
Y113116D01*
Y113093D01*
Y113070D01*
Y113047D01*
Y113023D01*
Y113000D01*
Y112977D01*
Y112953D01*
Y112930D01*
Y112907D01*
Y112884D01*
Y112861D01*
X41188D01*
Y112837D01*
Y112814D01*
Y112791D01*
Y112768D01*
Y112744D01*
X40490D01*
Y112721D01*
Y112698D01*
Y112675D01*
Y112651D01*
Y112628D01*
Y112605D01*
Y112582D01*
Y112558D01*
Y112535D01*
Y112512D01*
Y112489D01*
Y112465D01*
Y112442D01*
Y112419D01*
Y112396D01*
Y112372D01*
Y112349D01*
Y112326D01*
Y112303D01*
Y112279D01*
Y112256D01*
Y112233D01*
Y112210D01*
Y112186D01*
Y112163D01*
X40351D01*
Y112186D01*
Y112210D01*
Y112233D01*
Y112256D01*
Y112279D01*
Y112303D01*
Y112326D01*
Y112349D01*
Y112372D01*
Y112396D01*
Y112419D01*
Y112442D01*
Y112465D01*
Y112489D01*
Y112512D01*
Y112535D01*
Y112558D01*
Y112582D01*
Y112605D01*
Y112628D01*
Y112651D01*
Y112675D01*
Y112698D01*
Y112721D01*
Y112744D01*
Y112768D01*
Y112791D01*
Y112814D01*
Y112837D01*
Y112861D01*
Y112884D01*
Y112907D01*
Y112930D01*
Y112953D01*
Y112977D01*
Y113000D01*
Y113023D01*
Y113047D01*
Y113070D01*
Y113093D01*
Y113116D01*
Y113139D01*
Y113163D01*
Y113186D01*
Y113209D01*
Y113233D01*
Y113256D01*
Y113279D01*
Y113302D01*
Y113326D01*
Y113349D01*
Y113372D01*
Y113395D01*
Y113418D01*
Y113442D01*
Y113465D01*
Y113488D01*
Y113512D01*
Y113535D01*
X41281D01*
Y113512D01*
D02*
G37*
G36*
X38282D02*
Y113488D01*
Y113465D01*
Y113442D01*
Y113418D01*
Y113395D01*
Y113372D01*
Y113349D01*
Y113326D01*
Y113302D01*
Y113279D01*
Y113256D01*
Y113233D01*
Y113209D01*
Y113186D01*
Y113163D01*
Y113139D01*
Y113116D01*
Y113093D01*
Y113070D01*
Y113047D01*
Y113023D01*
Y113000D01*
Y112977D01*
Y112953D01*
Y112930D01*
Y112907D01*
Y112884D01*
Y112861D01*
Y112837D01*
Y112814D01*
Y112791D01*
Y112768D01*
Y112744D01*
Y112721D01*
Y112698D01*
Y112675D01*
Y112651D01*
Y112628D01*
Y112605D01*
Y112582D01*
Y112558D01*
Y112535D01*
Y112512D01*
Y112489D01*
Y112465D01*
Y112442D01*
Y112419D01*
Y112396D01*
Y112372D01*
Y112349D01*
Y112326D01*
Y112303D01*
Y112279D01*
Y112256D01*
Y112233D01*
Y112210D01*
Y112186D01*
Y112163D01*
X38166D01*
Y112186D01*
Y112210D01*
Y112233D01*
Y112256D01*
Y112279D01*
Y112303D01*
Y112326D01*
Y112349D01*
Y112372D01*
Y112396D01*
Y112419D01*
Y112442D01*
Y112465D01*
Y112489D01*
Y112512D01*
Y112535D01*
Y112558D01*
Y112582D01*
Y112605D01*
Y112628D01*
Y112651D01*
Y112675D01*
Y112698D01*
Y112721D01*
Y112744D01*
Y112768D01*
Y112791D01*
Y112814D01*
Y112837D01*
Y112861D01*
Y112884D01*
Y112907D01*
Y112930D01*
Y112953D01*
Y112977D01*
Y113000D01*
Y113023D01*
Y113047D01*
Y113070D01*
Y113093D01*
Y113116D01*
Y113139D01*
Y113163D01*
Y113186D01*
Y113209D01*
Y113233D01*
Y113256D01*
Y113279D01*
Y113302D01*
Y113326D01*
Y113349D01*
Y113372D01*
Y113395D01*
Y113418D01*
Y113442D01*
Y113465D01*
Y113488D01*
Y113512D01*
Y113535D01*
X38282D01*
Y113512D01*
D02*
G37*
G36*
X36166D02*
Y113488D01*
Y113465D01*
Y113442D01*
Y113418D01*
X35376D01*
Y113395D01*
Y113372D01*
Y113349D01*
Y113326D01*
Y113302D01*
Y113279D01*
Y113256D01*
Y113233D01*
Y113209D01*
Y113186D01*
Y113163D01*
Y113139D01*
Y113116D01*
Y113093D01*
Y113070D01*
Y113047D01*
Y113023D01*
Y113000D01*
Y112977D01*
Y112953D01*
Y112930D01*
Y112907D01*
X36073D01*
Y112884D01*
Y112861D01*
Y112837D01*
Y112814D01*
X35399D01*
Y112791D01*
X35376D01*
Y112768D01*
Y112744D01*
Y112721D01*
Y112698D01*
Y112675D01*
Y112651D01*
Y112628D01*
Y112605D01*
Y112582D01*
Y112558D01*
Y112535D01*
Y112512D01*
Y112489D01*
Y112465D01*
Y112442D01*
Y112419D01*
Y112396D01*
Y112372D01*
Y112349D01*
Y112326D01*
Y112303D01*
Y112279D01*
X36189D01*
Y112256D01*
Y112233D01*
Y112210D01*
Y112186D01*
Y112163D01*
X35236D01*
Y112186D01*
Y112210D01*
Y112233D01*
Y112256D01*
Y112279D01*
Y112303D01*
Y112326D01*
Y112349D01*
Y112372D01*
Y112396D01*
Y112419D01*
Y112442D01*
Y112465D01*
Y112489D01*
Y112512D01*
Y112535D01*
Y112558D01*
Y112582D01*
Y112605D01*
Y112628D01*
Y112651D01*
Y112675D01*
Y112698D01*
Y112721D01*
Y112744D01*
Y112768D01*
Y112791D01*
Y112814D01*
Y112837D01*
Y112861D01*
Y112884D01*
Y112907D01*
Y112930D01*
Y112953D01*
Y112977D01*
Y113000D01*
Y113023D01*
Y113047D01*
Y113070D01*
Y113093D01*
Y113116D01*
Y113139D01*
Y113163D01*
Y113186D01*
Y113209D01*
Y113233D01*
Y113256D01*
Y113279D01*
Y113302D01*
Y113326D01*
Y113349D01*
Y113372D01*
Y113395D01*
Y113418D01*
Y113442D01*
Y113465D01*
Y113488D01*
Y113512D01*
Y113535D01*
X36166D01*
Y113512D01*
D02*
G37*
G36*
X77112Y83059D02*
X77314D01*
Y82992D01*
X77449D01*
Y82924D01*
X77584D01*
Y82857D01*
X77652D01*
Y82789D01*
X77787D01*
Y82722D01*
X77854D01*
Y82654D01*
X77922D01*
Y82587D01*
X77989D01*
Y82519D01*
X78057D01*
Y82452D01*
X78124D01*
Y82384D01*
X78192D01*
Y82249D01*
X78259D01*
Y82114D01*
X78327D01*
Y81979D01*
X78395D01*
Y81844D01*
X78462D01*
Y81574D01*
X78530D01*
Y80562D01*
X78462D01*
Y80291D01*
X78395D01*
Y80156D01*
X78327D01*
Y80021D01*
X78259D01*
Y79886D01*
X78192D01*
Y79751D01*
X78124D01*
Y79684D01*
X78057D01*
Y79616D01*
X77922D01*
Y79684D01*
X77854D01*
Y79751D01*
X77787D01*
Y79954D01*
X77854D01*
Y80021D01*
X77922D01*
Y80089D01*
X77989D01*
Y80224D01*
X78057D01*
Y80359D01*
X78124D01*
Y80562D01*
X78192D01*
Y81507D01*
X78124D01*
Y81709D01*
X78057D01*
Y81912D01*
X77989D01*
Y81979D01*
X77922D01*
Y82114D01*
X77854D01*
Y82182D01*
X77787D01*
Y82249D01*
X77719D01*
Y82317D01*
X77652D01*
Y82384D01*
X77584D01*
Y82452D01*
X77517D01*
Y82519D01*
X77382D01*
Y82587D01*
X77247D01*
Y82654D01*
X77112D01*
Y82722D01*
X76842D01*
Y82789D01*
X76167D01*
Y82722D01*
X75964D01*
Y82654D01*
X75762D01*
Y82587D01*
X75694D01*
Y82519D01*
X75559D01*
Y82452D01*
X75492D01*
Y82384D01*
X75424D01*
Y82317D01*
X75357D01*
Y82249D01*
X75289D01*
Y82182D01*
X75222D01*
Y82114D01*
X75154D01*
Y82047D01*
X75087D01*
Y81912D01*
X75019D01*
Y81776D01*
X74952D01*
Y81574D01*
X74884D01*
Y81169D01*
X74817D01*
Y80967D01*
X74884D01*
Y80562D01*
X74952D01*
Y80359D01*
X75019D01*
Y80156D01*
X75087D01*
Y80089D01*
X75154D01*
Y80021D01*
X75222D01*
Y79954D01*
X76504D01*
Y79616D01*
X74952D01*
Y79751D01*
X74884D01*
Y79819D01*
X74817D01*
Y79954D01*
X74749D01*
Y80089D01*
X74682D01*
Y80224D01*
X74614D01*
Y80494D01*
X74547D01*
Y81642D01*
X74614D01*
Y81844D01*
X74682D01*
Y82047D01*
X74749D01*
Y82182D01*
X74817D01*
Y82249D01*
X74884D01*
Y82384D01*
X74952D01*
Y82452D01*
X75019D01*
Y82519D01*
X75087D01*
Y82587D01*
X75154D01*
Y82654D01*
X75222D01*
Y82722D01*
X75289D01*
Y82789D01*
X75357D01*
Y82857D01*
X75492D01*
Y82924D01*
X75627D01*
Y82992D01*
X75762D01*
Y83059D01*
X75964D01*
Y83127D01*
X77112D01*
Y83059D01*
D02*
G37*
G36*
X91726Y95100D02*
X92266D01*
Y95032D01*
X92671D01*
Y94964D01*
X93009D01*
Y94897D01*
X93278D01*
Y94829D01*
X93549D01*
Y94762D01*
X93751D01*
Y94694D01*
X93954D01*
Y94627D01*
X94156D01*
Y94559D01*
X94359D01*
Y94492D01*
X94561D01*
Y94424D01*
X94696D01*
Y94357D01*
X94831D01*
Y94289D01*
X95034D01*
Y94222D01*
X95169D01*
Y94154D01*
X95304D01*
Y94087D01*
X95439D01*
Y94019D01*
X95574D01*
Y93952D01*
X95709D01*
Y93884D01*
X95776D01*
Y93817D01*
X95911D01*
Y93749D01*
X96046D01*
Y93682D01*
X96181D01*
Y93614D01*
X96249D01*
Y93547D01*
X96384D01*
Y93479D01*
X96451D01*
Y93412D01*
X96586D01*
Y93344D01*
X96654D01*
Y93277D01*
X96789D01*
Y93209D01*
X96856D01*
Y93142D01*
X96924D01*
Y93074D01*
X97059D01*
Y93007D01*
X97126D01*
Y92939D01*
X97194D01*
Y92872D01*
X97261D01*
Y92804D01*
X97396D01*
Y92737D01*
X97464D01*
Y92669D01*
X97531D01*
Y92602D01*
X97599D01*
Y92534D01*
X97666D01*
Y92467D01*
X97734D01*
Y92399D01*
X97801D01*
Y92332D01*
X97869D01*
Y92264D01*
X97936D01*
Y92197D01*
X98004D01*
Y92129D01*
X98071D01*
Y92062D01*
X98139D01*
Y91994D01*
X98206D01*
Y91927D01*
X98274D01*
Y91859D01*
X98341D01*
Y91792D01*
X98409D01*
Y91724D01*
X98476D01*
Y91657D01*
X98544D01*
Y91589D01*
X98611D01*
Y91522D01*
X98679D01*
Y91454D01*
X98746D01*
Y91319D01*
X98814D01*
Y91252D01*
X98881D01*
Y91184D01*
X98949D01*
Y91117D01*
X99016D01*
Y90982D01*
X99084D01*
Y90914D01*
X99151D01*
Y90779D01*
X99219D01*
Y90712D01*
X99287D01*
Y90644D01*
X99354D01*
Y90509D01*
X99422D01*
Y90442D01*
X99489D01*
Y90307D01*
X99556D01*
Y90171D01*
X99624D01*
Y90104D01*
X99691D01*
Y89969D01*
X99759D01*
Y89834D01*
X99827D01*
Y89767D01*
X99894D01*
Y89631D01*
X99962D01*
Y89496D01*
X100029D01*
Y89362D01*
X100096D01*
Y89227D01*
X100164D01*
Y89024D01*
X100232D01*
Y88889D01*
X100299D01*
Y88754D01*
X100366D01*
Y88551D01*
X100434D01*
Y88416D01*
X100502D01*
Y88214D01*
X100569D01*
Y88011D01*
X100637D01*
Y87809D01*
X100704D01*
Y87606D01*
X100772D01*
Y87336D01*
X100839D01*
Y87066D01*
X100907D01*
Y86729D01*
X100974D01*
Y86256D01*
X101042D01*
Y85649D01*
X101109D01*
Y84366D01*
X101042D01*
Y83691D01*
X100974D01*
Y83286D01*
X100907D01*
Y82948D01*
X100839D01*
Y82611D01*
X100772D01*
Y82341D01*
X100704D01*
Y82138D01*
X100637D01*
Y81868D01*
X100569D01*
Y81666D01*
X100502D01*
Y81463D01*
X100434D01*
Y81261D01*
X100366D01*
Y81058D01*
X100299D01*
Y80923D01*
X100232D01*
Y80721D01*
X100164D01*
Y80586D01*
X100096D01*
Y80383D01*
X100029D01*
Y80248D01*
X99962D01*
Y80113D01*
X99894D01*
Y79978D01*
X99827D01*
Y79843D01*
X99759D01*
Y79708D01*
X99691D01*
Y79573D01*
X99624D01*
Y79438D01*
X99556D01*
Y79303D01*
X99489D01*
Y79168D01*
X99422D01*
Y79033D01*
X99354D01*
Y78898D01*
X99287D01*
Y78763D01*
X99219D01*
Y78628D01*
X99151D01*
Y78561D01*
X99084D01*
Y78426D01*
X99016D01*
Y78291D01*
X98949D01*
Y78223D01*
X98881D01*
Y78088D01*
X98814D01*
Y77953D01*
X98746D01*
Y77886D01*
X98679D01*
Y77818D01*
X98611D01*
Y77750D01*
X98544D01*
Y77683D01*
X98476D01*
Y77615D01*
X98409D01*
Y77548D01*
X98341D01*
Y77481D01*
X98206D01*
Y77413D01*
X98004D01*
Y77346D01*
X97734D01*
Y77278D01*
X97396D01*
Y77346D01*
X97126D01*
Y77413D01*
X96991D01*
Y77481D01*
X96856D01*
Y77548D01*
X96789D01*
Y77615D01*
X96654D01*
Y77683D01*
X96586D01*
Y77750D01*
X96519D01*
Y77886D01*
X96451D01*
Y77953D01*
X96384D01*
Y78088D01*
X96316D01*
Y78291D01*
X96249D01*
Y78628D01*
X96181D01*
Y78696D01*
X96249D01*
Y79101D01*
X96316D01*
Y79236D01*
X96384D01*
Y79371D01*
X96451D01*
Y79506D01*
X96519D01*
Y79641D01*
X96586D01*
Y79708D01*
X96654D01*
Y79843D01*
X96721D01*
Y79978D01*
X96789D01*
Y80046D01*
X96856D01*
Y80181D01*
X96924D01*
Y80316D01*
X96991D01*
Y80451D01*
X97059D01*
Y80586D01*
X97126D01*
Y80721D01*
X97194D01*
Y80856D01*
X97261D01*
Y80991D01*
X97329D01*
Y81126D01*
X97396D01*
Y81261D01*
X97464D01*
Y81396D01*
X97531D01*
Y81531D01*
X97599D01*
Y81733D01*
X97666D01*
Y81868D01*
X97734D01*
Y82071D01*
X97801D01*
Y82273D01*
X97869D01*
Y82476D01*
X97936D01*
Y82678D01*
X98004D01*
Y82881D01*
X98071D01*
Y83151D01*
X98139D01*
Y83489D01*
X98206D01*
Y83894D01*
X98274D01*
Y84434D01*
X98341D01*
Y85581D01*
X98274D01*
Y86189D01*
X98206D01*
Y86526D01*
X98139D01*
Y86796D01*
X98071D01*
Y87066D01*
X98004D01*
Y87269D01*
X97936D01*
Y87404D01*
X97869D01*
Y87606D01*
X97801D01*
Y87741D01*
X97734D01*
Y87944D01*
X97666D01*
Y88079D01*
X97599D01*
Y88214D01*
X97531D01*
Y88349D01*
X97464D01*
Y88416D01*
X97396D01*
Y88551D01*
X97329D01*
Y88687D01*
X97261D01*
Y88822D01*
X97194D01*
Y88889D01*
X97126D01*
Y89024D01*
X97059D01*
Y89091D01*
X96991D01*
Y89227D01*
X96924D01*
Y89294D01*
X96856D01*
Y89362D01*
X96789D01*
Y89496D01*
X96721D01*
Y89564D01*
X96654D01*
Y89631D01*
X96586D01*
Y89699D01*
X96519D01*
Y89834D01*
X96451D01*
Y89902D01*
X96384D01*
Y89969D01*
X96316D01*
Y90036D01*
X96249D01*
Y90104D01*
X96181D01*
Y90171D01*
X96114D01*
Y90239D01*
X96046D01*
Y90307D01*
X95979D01*
Y90374D01*
X95911D01*
Y90442D01*
X95844D01*
Y90509D01*
X95776D01*
Y90577D01*
X95641D01*
Y90644D01*
X95574D01*
Y90712D01*
X95506D01*
Y90779D01*
X95439D01*
Y90847D01*
X95304D01*
Y90914D01*
X95236D01*
Y90982D01*
X95169D01*
Y91049D01*
X95034D01*
Y91117D01*
X94966D01*
Y91184D01*
X94831D01*
Y91252D01*
X94764D01*
Y91319D01*
X94629D01*
Y91387D01*
X94494D01*
Y91454D01*
X94426D01*
Y91522D01*
X94291D01*
Y91589D01*
X94156D01*
Y91657D01*
X94021D01*
Y91724D01*
X93886D01*
Y91792D01*
X93683D01*
Y91859D01*
X93549D01*
Y91927D01*
X93346D01*
Y91994D01*
X93211D01*
Y92062D01*
X93009D01*
Y92129D01*
X92738D01*
Y92197D01*
X92468D01*
Y92264D01*
X92131D01*
Y92332D01*
X91726D01*
Y92399D01*
X90781D01*
Y92467D01*
X90578D01*
Y92399D01*
X89633D01*
Y92332D01*
X89161D01*
Y92264D01*
X88891D01*
Y92197D01*
X88621D01*
Y92129D01*
X88351D01*
Y92062D01*
X88148D01*
Y91994D01*
X87945D01*
Y91927D01*
X87810D01*
Y91859D01*
X87675D01*
Y91792D01*
X87473D01*
Y91724D01*
X87338D01*
Y91657D01*
X87203D01*
Y91589D01*
X87068D01*
Y91522D01*
X86933D01*
Y91454D01*
X86865D01*
Y91387D01*
X86730D01*
Y91319D01*
X86595D01*
Y91252D01*
X86528D01*
Y91184D01*
X86393D01*
Y91117D01*
X86325D01*
Y91049D01*
X86190D01*
Y90982D01*
X86123D01*
Y90914D01*
X86055D01*
Y90847D01*
X85920D01*
Y90779D01*
X85853D01*
Y90712D01*
X85785D01*
Y90644D01*
X85718D01*
Y90577D01*
X85650D01*
Y90509D01*
X85515D01*
Y90442D01*
X85448D01*
Y90374D01*
X85380D01*
Y90307D01*
X85313D01*
Y90239D01*
X85245D01*
Y90171D01*
X85178D01*
Y90104D01*
X85110D01*
Y89969D01*
X85043D01*
Y89902D01*
X84975D01*
Y89834D01*
X84908D01*
Y89767D01*
X84840D01*
Y89699D01*
X84773D01*
Y89631D01*
X84705D01*
Y89496D01*
X84638D01*
Y89429D01*
X84570D01*
Y89362D01*
X84503D01*
Y89227D01*
X84435D01*
Y89159D01*
X84368D01*
Y89024D01*
X84300D01*
Y88956D01*
X84233D01*
Y88822D01*
X84165D01*
Y88687D01*
X84098D01*
Y88551D01*
X84030D01*
Y88416D01*
X83963D01*
Y88281D01*
X83895D01*
Y88146D01*
X83828D01*
Y88011D01*
X83760D01*
Y87876D01*
X83693D01*
Y87674D01*
X83625D01*
Y87471D01*
X83558D01*
Y87269D01*
X83490D01*
Y87066D01*
X83423D01*
Y86796D01*
X83355D01*
Y86459D01*
X83288D01*
Y85986D01*
X83220D01*
Y85109D01*
X83153D01*
Y84569D01*
X83220D01*
Y83691D01*
X83288D01*
Y83218D01*
X83355D01*
Y82881D01*
X83423D01*
Y82611D01*
X83490D01*
Y82341D01*
X83558D01*
Y82071D01*
X83625D01*
Y81868D01*
X83693D01*
Y81666D01*
X83760D01*
Y81531D01*
X83828D01*
Y81328D01*
X83895D01*
Y81193D01*
X83963D01*
Y80991D01*
X84030D01*
Y80856D01*
X84098D01*
Y80721D01*
X84165D01*
Y80586D01*
X88486D01*
Y80653D01*
X88553D01*
Y84569D01*
X88621D01*
Y84704D01*
X88688D01*
Y84839D01*
X88756D01*
Y84974D01*
X88823D01*
Y85041D01*
X88891D01*
Y85109D01*
X88958D01*
Y85176D01*
X89026D01*
Y85244D01*
X89093D01*
Y85311D01*
X89161D01*
Y85379D01*
X89296D01*
Y85446D01*
X89431D01*
Y85514D01*
X89701D01*
Y85581D01*
X90106D01*
Y85514D01*
X90376D01*
Y85446D01*
X90511D01*
Y85379D01*
X90646D01*
Y85311D01*
X90781D01*
Y85244D01*
X90848D01*
Y85176D01*
X90916D01*
Y85109D01*
X90983D01*
Y84974D01*
X91051D01*
Y84906D01*
X91118D01*
Y84771D01*
X91186D01*
Y84636D01*
X91253D01*
Y84299D01*
X91321D01*
Y79101D01*
X91253D01*
Y78831D01*
X91186D01*
Y78628D01*
X91118D01*
Y78493D01*
X91051D01*
Y78426D01*
X90983D01*
Y78358D01*
X90916D01*
Y78223D01*
X90781D01*
Y78156D01*
X90713D01*
Y78088D01*
X90646D01*
Y78021D01*
X90511D01*
Y77953D01*
X90308D01*
Y77886D01*
X89971D01*
Y77818D01*
X83288D01*
Y77886D01*
X82950D01*
Y77953D01*
X82748D01*
Y78021D01*
X82613D01*
Y78088D01*
X82545D01*
Y78156D01*
X82410D01*
Y78223D01*
X82343D01*
Y78291D01*
X82275D01*
Y78426D01*
X82208D01*
Y78493D01*
X82140D01*
Y78628D01*
X82073D01*
Y78763D01*
X82005D01*
Y78898D01*
X81937D01*
Y79033D01*
X81870D01*
Y79168D01*
X81802D01*
Y79303D01*
X81735D01*
Y79438D01*
X81668D01*
Y79573D01*
X81600D01*
Y79708D01*
X81533D01*
Y79843D01*
X81465D01*
Y80046D01*
X81397D01*
Y80181D01*
X81330D01*
Y80383D01*
X81262D01*
Y80518D01*
X81195D01*
Y80721D01*
X81128D01*
Y80923D01*
X81060D01*
Y81126D01*
X80993D01*
Y81328D01*
X80925D01*
Y81531D01*
X80857D01*
Y81801D01*
X80790D01*
Y82071D01*
X80722D01*
Y82341D01*
X80655D01*
Y82678D01*
X80587D01*
Y83083D01*
X80520D01*
Y83623D01*
X80452D01*
Y86054D01*
X80520D01*
Y86594D01*
X80587D01*
Y86999D01*
X80655D01*
Y87269D01*
X80722D01*
Y87606D01*
X80790D01*
Y87809D01*
X80857D01*
Y88079D01*
X80925D01*
Y88281D01*
X80993D01*
Y88484D01*
X81060D01*
Y88687D01*
X81128D01*
Y88822D01*
X81195D01*
Y89024D01*
X81262D01*
Y89159D01*
X81330D01*
Y89294D01*
X81397D01*
Y89429D01*
X81465D01*
Y89631D01*
X81533D01*
Y89767D01*
X81600D01*
Y89834D01*
X81668D01*
Y89969D01*
X81735D01*
Y90104D01*
X81802D01*
Y90239D01*
X81870D01*
Y90307D01*
X81937D01*
Y90442D01*
X82005D01*
Y90577D01*
X82073D01*
Y90644D01*
X82140D01*
Y90779D01*
X82208D01*
Y90847D01*
X82275D01*
Y90982D01*
X82343D01*
Y91049D01*
X82410D01*
Y91117D01*
X82478D01*
Y91252D01*
X82545D01*
Y91319D01*
X82613D01*
Y91387D01*
X82680D01*
Y91454D01*
X82748D01*
Y91589D01*
X82815D01*
Y91657D01*
X82883D01*
Y91724D01*
X82950D01*
Y91792D01*
X83018D01*
Y91859D01*
X83085D01*
Y91927D01*
X83153D01*
Y91994D01*
X83220D01*
Y92062D01*
X83288D01*
Y92129D01*
X83355D01*
Y92197D01*
X83423D01*
Y92264D01*
X83490D01*
Y92332D01*
X83558D01*
Y92399D01*
X83625D01*
Y92467D01*
X83693D01*
Y92534D01*
X83760D01*
Y92602D01*
X83828D01*
Y92669D01*
X83895D01*
Y92737D01*
X84030D01*
Y92804D01*
X84098D01*
Y92872D01*
X84165D01*
Y92939D01*
X84233D01*
Y93007D01*
X84300D01*
Y93074D01*
X84435D01*
Y93142D01*
X84503D01*
Y93209D01*
X84638D01*
Y93277D01*
X84705D01*
Y93344D01*
X84773D01*
Y93412D01*
X84908D01*
Y93479D01*
X84975D01*
Y93547D01*
X85110D01*
Y93614D01*
X85245D01*
Y93682D01*
X85313D01*
Y93749D01*
X85448D01*
Y93817D01*
X85583D01*
Y93884D01*
X85650D01*
Y93952D01*
X85785D01*
Y94019D01*
X85920D01*
Y94087D01*
X86055D01*
Y94154D01*
X86190D01*
Y94222D01*
X86325D01*
Y94289D01*
X86528D01*
Y94357D01*
X86663D01*
Y94424D01*
X86798D01*
Y94492D01*
X87001D01*
Y94559D01*
X87203D01*
Y94627D01*
X87406D01*
Y94694D01*
X87608D01*
Y94762D01*
X87810D01*
Y94829D01*
X88081D01*
Y94897D01*
X88351D01*
Y94964D01*
X88688D01*
Y95032D01*
X89093D01*
Y95100D01*
X89566D01*
Y95167D01*
X91726D01*
Y95100D01*
D02*
G37*
G36*
X78530Y75701D02*
X78192D01*
Y77996D01*
X76707D01*
Y75971D01*
X76437D01*
Y77929D01*
X76369D01*
Y77996D01*
X74884D01*
Y75634D01*
X74547D01*
Y78401D01*
X78530D01*
Y75701D01*
D02*
G37*
G36*
X95979Y78291D02*
X96046D01*
Y78088D01*
X96114D01*
Y77953D01*
X96181D01*
Y77818D01*
X96249D01*
Y77683D01*
X96316D01*
Y77615D01*
X96384D01*
Y77548D01*
X96451D01*
Y77481D01*
X96519D01*
Y77413D01*
X96586D01*
Y77346D01*
X96721D01*
Y77278D01*
X96856D01*
Y77210D01*
X96991D01*
Y77143D01*
X97194D01*
Y77075D01*
X98004D01*
Y77143D01*
X98206D01*
Y77210D01*
X98341D01*
Y77143D01*
X98274D01*
Y77075D01*
X98206D01*
Y76941D01*
X98139D01*
Y76873D01*
X98071D01*
Y76806D01*
X98004D01*
Y76670D01*
X97936D01*
Y76603D01*
X97869D01*
Y76535D01*
X97801D01*
Y76400D01*
X97734D01*
Y76333D01*
X97666D01*
Y76265D01*
X97599D01*
Y76130D01*
X97531D01*
Y76063D01*
X97464D01*
Y75995D01*
X97396D01*
Y75928D01*
X97329D01*
Y75793D01*
X97261D01*
Y75725D01*
X97194D01*
Y75658D01*
X97126D01*
Y75590D01*
X97059D01*
Y75455D01*
X96991D01*
Y75388D01*
X96924D01*
Y75320D01*
X96856D01*
Y75253D01*
X96789D01*
Y75185D01*
X96721D01*
Y75050D01*
X96654D01*
Y74983D01*
X96586D01*
Y74915D01*
X96519D01*
Y74848D01*
X96451D01*
Y74780D01*
X96384D01*
Y74713D01*
X96316D01*
Y74578D01*
X96249D01*
Y74510D01*
X96181D01*
Y74443D01*
X96114D01*
Y74375D01*
X96046D01*
Y74308D01*
X95979D01*
Y74240D01*
X95911D01*
Y74173D01*
X95844D01*
Y74038D01*
X95776D01*
Y73970D01*
X95709D01*
Y73903D01*
X95641D01*
Y73835D01*
X95574D01*
Y73768D01*
X95506D01*
Y73700D01*
X95439D01*
Y73633D01*
X95371D01*
Y73565D01*
X95304D01*
Y73430D01*
X95236D01*
Y73363D01*
X95169D01*
Y73295D01*
X95101D01*
Y73228D01*
X95034D01*
Y73160D01*
X94966D01*
Y73093D01*
X94899D01*
Y73025D01*
X94831D01*
Y72958D01*
X94764D01*
Y72890D01*
X94696D01*
Y72823D01*
X94629D01*
Y72688D01*
X94561D01*
Y72620D01*
X94494D01*
Y72553D01*
X94426D01*
Y72485D01*
X94359D01*
Y72418D01*
X94291D01*
Y72350D01*
X94224D01*
Y72283D01*
X94156D01*
Y72215D01*
X94089D01*
Y72148D01*
X94021D01*
Y72080D01*
X93954D01*
Y72013D01*
X93886D01*
Y71945D01*
X93818D01*
Y71810D01*
X93751D01*
Y71742D01*
X93683D01*
Y71675D01*
X93616D01*
Y71608D01*
X93549D01*
Y71540D01*
X93481D01*
Y71473D01*
X93414D01*
Y71405D01*
X93346D01*
Y71337D01*
X93278D01*
Y71270D01*
X93211D01*
Y71202D01*
X93143D01*
Y71135D01*
X93076D01*
Y71068D01*
X93009D01*
Y71000D01*
X92941D01*
Y70933D01*
X92873D01*
Y70865D01*
X92806D01*
Y70730D01*
X92873D01*
Y70662D01*
X92941D01*
Y70595D01*
X93009D01*
Y70527D01*
X93076D01*
Y70460D01*
X93143D01*
Y70392D01*
X93211D01*
Y70325D01*
X93278D01*
Y70257D01*
X93346D01*
Y70190D01*
X93414D01*
Y70122D01*
X93481D01*
Y70055D01*
X93549D01*
Y69987D01*
X93616D01*
Y69920D01*
X93683D01*
Y69852D01*
X93751D01*
Y69785D01*
X93818D01*
Y69717D01*
X93886D01*
Y69650D01*
X93954D01*
Y69582D01*
X94021D01*
Y69515D01*
X94089D01*
Y69447D01*
X94156D01*
Y69380D01*
X94224D01*
Y69312D01*
X94291D01*
Y69245D01*
X94359D01*
Y69177D01*
X94426D01*
Y69110D01*
X94494D01*
Y69042D01*
X94561D01*
Y68975D01*
X94629D01*
Y68907D01*
X94696D01*
Y68840D01*
X94764D01*
Y68772D01*
X94831D01*
Y68705D01*
X94899D01*
Y68637D01*
X94966D01*
Y68570D01*
X95034D01*
Y68502D01*
X95101D01*
Y68435D01*
X95169D01*
Y68367D01*
X95236D01*
Y68300D01*
X95304D01*
Y68232D01*
X95371D01*
Y68165D01*
X95439D01*
Y68097D01*
X95506D01*
Y68030D01*
X95574D01*
Y67895D01*
X95641D01*
Y67827D01*
X95709D01*
Y67760D01*
X95776D01*
Y67692D01*
X95844D01*
Y67625D01*
X95911D01*
Y67557D01*
X95979D01*
Y67490D01*
X96046D01*
Y67422D01*
X96114D01*
Y67355D01*
X96181D01*
Y67287D01*
X96249D01*
Y67220D01*
X96316D01*
Y67085D01*
X96384D01*
Y67017D01*
X96451D01*
Y66950D01*
X96519D01*
Y66882D01*
X96586D01*
Y66815D01*
X96654D01*
Y66747D01*
X96721D01*
Y66680D01*
X96789D01*
Y66545D01*
X96856D01*
Y66477D01*
X96924D01*
Y66410D01*
X96991D01*
Y66342D01*
X97059D01*
Y66275D01*
X97126D01*
Y66207D01*
X97194D01*
Y66072D01*
X97261D01*
Y66005D01*
X97329D01*
Y65937D01*
X97396D01*
Y65870D01*
X97464D01*
Y65735D01*
X97531D01*
Y65667D01*
X97599D01*
Y65600D01*
X97666D01*
Y65532D01*
X97734D01*
Y65397D01*
X97801D01*
Y65329D01*
X97869D01*
Y65262D01*
X97936D01*
Y65127D01*
X98004D01*
Y65060D01*
X98071D01*
Y64992D01*
X98139D01*
Y64857D01*
X98206D01*
Y64789D01*
X98274D01*
Y64722D01*
X98341D01*
Y64587D01*
X98409D01*
Y64520D01*
X98476D01*
Y64385D01*
X98544D01*
Y64317D01*
X98611D01*
Y64182D01*
X98679D01*
Y64114D01*
X98746D01*
Y63979D01*
X98814D01*
Y63912D01*
X98881D01*
Y63777D01*
X98949D01*
Y63709D01*
X99016D01*
Y63574D01*
X99084D01*
Y63439D01*
X99151D01*
Y63372D01*
X99219D01*
Y63237D01*
X99287D01*
Y63102D01*
X99354D01*
Y63034D01*
X99422D01*
Y62899D01*
X99489D01*
Y62764D01*
X99556D01*
Y62629D01*
X99624D01*
Y62494D01*
X99691D01*
Y62359D01*
X99759D01*
Y62224D01*
X99827D01*
Y62089D01*
X99894D01*
Y61954D01*
X99962D01*
Y61819D01*
X100029D01*
Y61684D01*
X100096D01*
Y61482D01*
X100164D01*
Y61347D01*
X100232D01*
Y61144D01*
X100299D01*
Y61009D01*
X100366D01*
Y60807D01*
X100434D01*
Y60604D01*
X100502D01*
Y60402D01*
X100569D01*
Y60199D01*
X100637D01*
Y59997D01*
X100704D01*
Y59794D01*
X100772D01*
Y59524D01*
X100839D01*
Y59254D01*
X100907D01*
Y58916D01*
X100974D01*
Y58579D01*
X101042D01*
Y58106D01*
X101109D01*
Y57431D01*
X101177D01*
Y55744D01*
X101109D01*
Y55069D01*
X101042D01*
Y54664D01*
X100974D01*
Y54259D01*
X100907D01*
Y53989D01*
X100839D01*
Y53719D01*
X100772D01*
Y53449D01*
X100704D01*
Y53246D01*
X100637D01*
Y53044D01*
X100569D01*
Y52841D01*
X100502D01*
Y52706D01*
X100434D01*
Y52504D01*
X100366D01*
Y52368D01*
X100299D01*
Y52166D01*
X100232D01*
Y52031D01*
X100164D01*
Y51896D01*
X100096D01*
Y51761D01*
X100029D01*
Y51626D01*
X99962D01*
Y51491D01*
X99894D01*
Y51356D01*
X99827D01*
Y51288D01*
X99759D01*
Y51153D01*
X99691D01*
Y51018D01*
X99624D01*
Y50951D01*
X99556D01*
Y50816D01*
X99489D01*
Y50748D01*
X99422D01*
Y50613D01*
X99354D01*
Y50546D01*
X99287D01*
Y50411D01*
X99219D01*
Y50343D01*
X99151D01*
Y50276D01*
X99084D01*
Y50141D01*
X99016D01*
Y50073D01*
X98949D01*
Y50006D01*
X98881D01*
Y49938D01*
X98814D01*
Y49803D01*
X98746D01*
Y49736D01*
X98679D01*
Y49668D01*
X98611D01*
Y49601D01*
X98544D01*
Y49533D01*
X98476D01*
Y49466D01*
X98409D01*
Y49398D01*
X98341D01*
Y49331D01*
X98274D01*
Y49263D01*
X98206D01*
Y49196D01*
X98139D01*
Y49128D01*
X98071D01*
Y49061D01*
X98004D01*
Y48993D01*
X97936D01*
Y48926D01*
X97869D01*
Y48858D01*
X97801D01*
Y48791D01*
X97734D01*
Y48723D01*
X97666D01*
Y48656D01*
X97531D01*
Y48588D01*
X97464D01*
Y48521D01*
X97396D01*
Y48453D01*
X97329D01*
Y48386D01*
X97194D01*
Y48318D01*
X97126D01*
Y48251D01*
X97059D01*
Y48183D01*
X96924D01*
Y48116D01*
X96856D01*
Y48048D01*
X96789D01*
Y47981D01*
X96654D01*
Y47913D01*
X96519D01*
Y47846D01*
X96451D01*
Y47778D01*
X96316D01*
Y47711D01*
X96249D01*
Y47643D01*
X96114D01*
Y47576D01*
X95979D01*
Y47508D01*
X95844D01*
Y47441D01*
X95709D01*
Y47373D01*
X95641D01*
Y47306D01*
X95439D01*
Y47238D01*
X95304D01*
Y47170D01*
X95169D01*
Y47103D01*
X95034D01*
Y47036D01*
X94831D01*
Y46968D01*
X94696D01*
Y46900D01*
X94494D01*
Y46833D01*
X94291D01*
Y46766D01*
X94089D01*
Y46698D01*
X93886D01*
Y46630D01*
X93683D01*
Y46563D01*
X93414D01*
Y46496D01*
X93076D01*
Y46428D01*
X92738D01*
Y46360D01*
X92333D01*
Y46293D01*
X91726D01*
Y46226D01*
X90106D01*
Y46293D01*
X89498D01*
Y46360D01*
X89093D01*
Y46428D01*
X88688D01*
Y46496D01*
X88418D01*
Y46563D01*
X88148D01*
Y46630D01*
X87945D01*
Y46698D01*
X87675D01*
Y46766D01*
X87473D01*
Y46833D01*
X87338D01*
Y46900D01*
X87135D01*
Y46968D01*
X86933D01*
Y47036D01*
X86798D01*
Y47103D01*
X86595D01*
Y47170D01*
X86460D01*
Y47238D01*
X86325D01*
Y47306D01*
X86190D01*
Y47373D01*
X86055D01*
Y47441D01*
X85920D01*
Y47508D01*
X85785D01*
Y47576D01*
X85718D01*
Y47643D01*
X85583D01*
Y47711D01*
X85448D01*
Y47778D01*
X85380D01*
Y47846D01*
X85245D01*
Y47913D01*
X85178D01*
Y47981D01*
X85043D01*
Y48048D01*
X84975D01*
Y48116D01*
X84840D01*
Y48183D01*
X84773D01*
Y48251D01*
X84638D01*
Y48318D01*
X84570D01*
Y48386D01*
X84503D01*
Y48453D01*
X84435D01*
Y48521D01*
X84300D01*
Y48588D01*
X84233D01*
Y48656D01*
X84165D01*
Y48723D01*
X84098D01*
Y48791D01*
X84030D01*
Y48858D01*
X83895D01*
Y48926D01*
X83828D01*
Y48993D01*
X83760D01*
Y49061D01*
X83693D01*
Y49128D01*
X83625D01*
Y49196D01*
X83558D01*
Y49263D01*
X83490D01*
Y49331D01*
X83423D01*
Y49398D01*
X83355D01*
Y49466D01*
X83288D01*
Y49533D01*
X83220D01*
Y49601D01*
X83153D01*
Y49668D01*
X83085D01*
Y49803D01*
X83018D01*
Y49871D01*
X82950D01*
Y49938D01*
X82883D01*
Y50006D01*
X82815D01*
Y50073D01*
X82748D01*
Y50208D01*
X82680D01*
Y50276D01*
X82613D01*
Y50343D01*
X82545D01*
Y50411D01*
X82478D01*
Y50546D01*
X82410D01*
Y50613D01*
X82343D01*
Y50748D01*
X82275D01*
Y50816D01*
X82208D01*
Y50951D01*
X82140D01*
Y51018D01*
X82073D01*
Y51153D01*
X82005D01*
Y51221D01*
X81937D01*
Y51356D01*
X81870D01*
Y51491D01*
X81802D01*
Y51558D01*
X81735D01*
Y51693D01*
X81668D01*
Y51828D01*
X81600D01*
Y51963D01*
X81533D01*
Y52098D01*
X81465D01*
Y52233D01*
X81397D01*
Y52368D01*
X81330D01*
Y52571D01*
X81262D01*
Y52706D01*
X81195D01*
Y52841D01*
X81128D01*
Y53044D01*
X81060D01*
Y53246D01*
X80993D01*
Y53449D01*
X80925D01*
Y53651D01*
X80857D01*
Y53854D01*
X80790D01*
Y54124D01*
X80722D01*
Y54461D01*
X80655D01*
Y54799D01*
X80587D01*
Y55271D01*
X80520D01*
Y56081D01*
X80452D01*
Y56756D01*
X80520D01*
Y57634D01*
X80587D01*
Y58106D01*
X80655D01*
Y58444D01*
X80722D01*
Y58781D01*
X80790D01*
Y59052D01*
X80857D01*
Y59321D01*
X80925D01*
Y59524D01*
X80993D01*
Y59727D01*
X81060D01*
Y59929D01*
X81128D01*
Y60132D01*
X81195D01*
Y60334D01*
X81262D01*
Y60537D01*
X81330D01*
Y60672D01*
X81397D01*
Y60874D01*
X81465D01*
Y61009D01*
X81533D01*
Y61144D01*
X81600D01*
Y61347D01*
X81668D01*
Y61482D01*
X81735D01*
Y61617D01*
X81802D01*
Y61752D01*
X81870D01*
Y61887D01*
X81937D01*
Y62022D01*
X82005D01*
Y62157D01*
X82073D01*
Y62292D01*
X82140D01*
Y62427D01*
X82208D01*
Y62562D01*
X82275D01*
Y62629D01*
X82343D01*
Y62764D01*
X82410D01*
Y62899D01*
X82478D01*
Y63034D01*
X82545D01*
Y63102D01*
X82613D01*
Y63237D01*
X82680D01*
Y63372D01*
X82748D01*
Y63439D01*
X82815D01*
Y63574D01*
X82883D01*
Y63642D01*
X82950D01*
Y63777D01*
X83018D01*
Y63844D01*
X83085D01*
Y63979D01*
X83153D01*
Y64047D01*
X83220D01*
Y64182D01*
X83288D01*
Y64249D01*
X83355D01*
Y64385D01*
X83423D01*
Y64452D01*
X83490D01*
Y64587D01*
X83558D01*
Y64654D01*
X83625D01*
Y64789D01*
X83693D01*
Y64857D01*
X83760D01*
Y64925D01*
X83828D01*
Y65060D01*
X83895D01*
Y65127D01*
X83963D01*
Y65262D01*
X84030D01*
Y65329D01*
X84098D01*
Y65397D01*
X84165D01*
Y65532D01*
X84233D01*
Y65600D01*
X84300D01*
Y65667D01*
X84368D01*
Y65735D01*
X84435D01*
Y65870D01*
X84503D01*
Y65937D01*
X84570D01*
Y66005D01*
X84638D01*
Y66140D01*
X84705D01*
Y66207D01*
X84773D01*
Y66275D01*
X84840D01*
Y66342D01*
X84908D01*
Y66477D01*
X84975D01*
Y66545D01*
X85043D01*
Y66612D01*
X85110D01*
Y66680D01*
X85178D01*
Y66815D01*
X85245D01*
Y66882D01*
X85313D01*
Y66950D01*
X85380D01*
Y67017D01*
X85448D01*
Y67085D01*
X85515D01*
Y67220D01*
X85583D01*
Y67287D01*
X85650D01*
Y67355D01*
X85718D01*
Y67422D01*
X85785D01*
Y67490D01*
X85853D01*
Y67625D01*
X85920D01*
Y67692D01*
X85988D01*
Y67760D01*
X86055D01*
Y67827D01*
X86123D01*
Y67895D01*
X86190D01*
Y67962D01*
X86258D01*
Y68030D01*
X86325D01*
Y68097D01*
X86393D01*
Y68165D01*
X86460D01*
Y68232D01*
X86528D01*
Y68300D01*
X86595D01*
Y68367D01*
X86663D01*
Y68435D01*
X86730D01*
Y68502D01*
X86798D01*
Y68637D01*
X86865D01*
Y68705D01*
X86933D01*
Y68772D01*
X87001D01*
Y68840D01*
X87068D01*
Y68907D01*
X87135D01*
Y68975D01*
X87203D01*
Y69042D01*
X87270D01*
Y69110D01*
X87338D01*
Y69177D01*
X87406D01*
Y69245D01*
X87473D01*
Y69312D01*
X87541D01*
Y69380D01*
X87608D01*
Y69447D01*
X87675D01*
Y69515D01*
X87743D01*
Y69582D01*
X87810D01*
Y69650D01*
X87878D01*
Y69717D01*
X87945D01*
Y69785D01*
X88013D01*
Y69852D01*
X88081D01*
Y69920D01*
X88148D01*
Y69987D01*
X88216D01*
Y70055D01*
X88283D01*
Y70122D01*
X88351D01*
Y70190D01*
X88418D01*
Y70257D01*
X88486D01*
Y70325D01*
X88553D01*
Y70392D01*
X88621D01*
Y70527D01*
X88688D01*
Y70595D01*
X88756D01*
Y70662D01*
X88823D01*
Y70730D01*
X88756D01*
Y70797D01*
X88688D01*
Y70865D01*
X88621D01*
Y70933D01*
X88553D01*
Y71000D01*
X88486D01*
Y71068D01*
X88418D01*
Y71135D01*
X88351D01*
Y71202D01*
X88283D01*
Y71270D01*
X88216D01*
Y71337D01*
X88148D01*
Y71405D01*
X88081D01*
Y71473D01*
X88013D01*
Y71540D01*
X87945D01*
Y71608D01*
X87810D01*
Y71675D01*
X87743D01*
Y71742D01*
X87675D01*
Y71810D01*
X87608D01*
Y71878D01*
X87541D01*
Y71945D01*
X87473D01*
Y72013D01*
X87406D01*
Y72080D01*
X87338D01*
Y72148D01*
X87270D01*
Y72215D01*
X87203D01*
Y72283D01*
X87135D01*
Y72350D01*
X87068D01*
Y72418D01*
X87001D01*
Y72485D01*
X86933D01*
Y72553D01*
X86865D01*
Y72620D01*
X86798D01*
Y72688D01*
X86730D01*
Y72755D01*
X86663D01*
Y72823D01*
X86595D01*
Y72890D01*
X86528D01*
Y72958D01*
X86460D01*
Y73025D01*
X86393D01*
Y73093D01*
X86325D01*
Y73160D01*
X86258D01*
Y73228D01*
X86190D01*
Y73295D01*
X86123D01*
Y73430D01*
X86055D01*
Y73498D01*
X85988D01*
Y73565D01*
X85920D01*
Y73633D01*
X85853D01*
Y73700D01*
X85785D01*
Y73768D01*
X85718D01*
Y73835D01*
X85650D01*
Y73903D01*
X85583D01*
Y73970D01*
X85515D01*
Y74038D01*
X85448D01*
Y74105D01*
X85380D01*
Y74173D01*
X85313D01*
Y74240D01*
X85245D01*
Y74308D01*
X85178D01*
Y74443D01*
X85110D01*
Y74510D01*
X85043D01*
Y74578D01*
X84975D01*
Y74645D01*
X84908D01*
Y74713D01*
X84840D01*
Y74780D01*
X84773D01*
Y74848D01*
X84705D01*
Y74915D01*
X84638D01*
Y75050D01*
X84570D01*
Y75118D01*
X84503D01*
Y75185D01*
X84435D01*
Y75253D01*
X84368D01*
Y75320D01*
X84300D01*
Y75388D01*
X84233D01*
Y75523D01*
X84165D01*
Y75590D01*
X84098D01*
Y75658D01*
X84030D01*
Y75725D01*
X83963D01*
Y75860D01*
X83895D01*
Y75928D01*
X83828D01*
Y75995D01*
X83760D01*
Y76063D01*
X83693D01*
Y76198D01*
X83625D01*
Y76265D01*
X83558D01*
Y76333D01*
X83490D01*
Y76468D01*
X83423D01*
Y76535D01*
X83355D01*
Y76603D01*
X83288D01*
Y76738D01*
X83220D01*
Y76806D01*
X83153D01*
Y76941D01*
X83085D01*
Y77008D01*
X83018D01*
Y77143D01*
X82950D01*
Y77210D01*
X82883D01*
Y77346D01*
X82815D01*
Y77413D01*
X82748D01*
Y77548D01*
X82680D01*
Y77683D01*
X82613D01*
Y77750D01*
X82748D01*
Y77683D01*
X82950D01*
Y77615D01*
X86123D01*
Y77481D01*
X86190D01*
Y77413D01*
X86258D01*
Y77346D01*
X86325D01*
Y77278D01*
X86393D01*
Y77143D01*
X86460D01*
Y77075D01*
X86528D01*
Y77008D01*
X86595D01*
Y76941D01*
X86663D01*
Y76873D01*
X86730D01*
Y76806D01*
X86798D01*
Y76670D01*
X86865D01*
Y76603D01*
X86933D01*
Y76535D01*
X87001D01*
Y76468D01*
X87068D01*
Y76400D01*
X87135D01*
Y76333D01*
X87203D01*
Y76265D01*
X87270D01*
Y76198D01*
X87338D01*
Y76130D01*
X87406D01*
Y75995D01*
X87473D01*
Y75928D01*
X87541D01*
Y75860D01*
X87608D01*
Y75793D01*
X87675D01*
Y75725D01*
X87743D01*
Y75658D01*
X87810D01*
Y75590D01*
X87878D01*
Y75523D01*
X87945D01*
Y75455D01*
X88013D01*
Y75388D01*
X88081D01*
Y75320D01*
X88148D01*
Y75253D01*
X88216D01*
Y75185D01*
X88283D01*
Y75118D01*
X88351D01*
Y75050D01*
X88418D01*
Y74983D01*
X88486D01*
Y74915D01*
X88553D01*
Y74848D01*
X88621D01*
Y74780D01*
X88688D01*
Y74713D01*
X88756D01*
Y74645D01*
X88823D01*
Y74578D01*
X88891D01*
Y74510D01*
X88958D01*
Y74443D01*
X89026D01*
Y74375D01*
X89093D01*
Y74308D01*
X89161D01*
Y74240D01*
X89228D01*
Y74173D01*
X89296D01*
Y74105D01*
X89363D01*
Y74038D01*
X89431D01*
Y73970D01*
X89498D01*
Y73903D01*
X89566D01*
Y73835D01*
X89633D01*
Y73768D01*
X89701D01*
Y73700D01*
X89768D01*
Y73633D01*
X89836D01*
Y73565D01*
X89903D01*
Y73498D01*
X89971D01*
Y73430D01*
X90038D01*
Y73363D01*
X90106D01*
Y73295D01*
X90173D01*
Y73228D01*
X90241D01*
Y73160D01*
X90308D01*
Y73093D01*
X90376D01*
Y73025D01*
X90443D01*
Y72958D01*
X90511D01*
Y72890D01*
X90578D01*
Y72823D01*
X90646D01*
Y72755D01*
X90848D01*
Y72823D01*
X90916D01*
Y72890D01*
X90983D01*
Y72958D01*
X91051D01*
Y73025D01*
X91118D01*
Y73093D01*
X91186D01*
Y73160D01*
X91253D01*
Y73228D01*
X91321D01*
Y73295D01*
X91388D01*
Y73363D01*
X91456D01*
Y73498D01*
X91523D01*
Y73565D01*
X91591D01*
Y73633D01*
X91658D01*
Y73700D01*
X91726D01*
Y73768D01*
X91793D01*
Y73835D01*
X91861D01*
Y73903D01*
X91928D01*
Y73970D01*
X91996D01*
Y74038D01*
X92063D01*
Y74105D01*
X92131D01*
Y74173D01*
X92198D01*
Y74240D01*
X92266D01*
Y74308D01*
X92333D01*
Y74443D01*
X92401D01*
Y74510D01*
X92468D01*
Y74578D01*
X92536D01*
Y74645D01*
X92603D01*
Y74713D01*
X92671D01*
Y74780D01*
X92738D01*
Y74848D01*
X92806D01*
Y74915D01*
X92873D01*
Y74983D01*
X92941D01*
Y75050D01*
X93009D01*
Y75118D01*
X93076D01*
Y75253D01*
X93143D01*
Y75320D01*
X93211D01*
Y75388D01*
X93278D01*
Y75455D01*
X93346D01*
Y75523D01*
X93414D01*
Y75590D01*
X93481D01*
Y75658D01*
X93549D01*
Y75725D01*
X93616D01*
Y75860D01*
X93683D01*
Y75928D01*
X93751D01*
Y75995D01*
X93818D01*
Y76063D01*
X93886D01*
Y76130D01*
X93954D01*
Y76198D01*
X94021D01*
Y76265D01*
X94089D01*
Y76400D01*
X94156D01*
Y76468D01*
X94224D01*
Y76535D01*
X94291D01*
Y76603D01*
X94359D01*
Y76670D01*
X94426D01*
Y76738D01*
X94494D01*
Y76873D01*
X94561D01*
Y76941D01*
X94629D01*
Y77008D01*
X94696D01*
Y77075D01*
X94764D01*
Y77143D01*
X94831D01*
Y77210D01*
X94899D01*
Y77346D01*
X94966D01*
Y77413D01*
X95034D01*
Y77481D01*
X95101D01*
Y77548D01*
X95169D01*
Y77683D01*
X95236D01*
Y77750D01*
X95304D01*
Y77818D01*
X95371D01*
Y77886D01*
X95439D01*
Y78021D01*
X95506D01*
Y78088D01*
X95574D01*
Y78156D01*
X95641D01*
Y78291D01*
X95709D01*
Y78358D01*
X95776D01*
Y78426D01*
X95844D01*
Y78561D01*
X95911D01*
Y78628D01*
X95979D01*
Y78291D01*
D02*
G37*
G36*
X78530Y74216D02*
X78462D01*
Y74148D01*
X78327D01*
Y74081D01*
X78259D01*
Y74013D01*
X78192D01*
Y73946D01*
X78124D01*
Y73878D01*
X77989D01*
Y73811D01*
X77922D01*
Y73743D01*
X77854D01*
Y73676D01*
X77719D01*
Y73608D01*
X77652D01*
Y73541D01*
X77584D01*
Y73473D01*
X77517D01*
Y73406D01*
X77382D01*
Y73338D01*
X77314D01*
Y73271D01*
X77247D01*
Y73203D01*
X77179D01*
Y73136D01*
X77044D01*
Y73068D01*
X76977D01*
Y73001D01*
X76909D01*
Y72933D01*
X76842D01*
Y72866D01*
X76707D01*
Y72798D01*
X76639D01*
Y72731D01*
X76572D01*
Y72663D01*
X76504D01*
Y72596D01*
X76369D01*
Y72528D01*
X76302D01*
Y72461D01*
X76234D01*
Y72393D01*
X76167D01*
Y72326D01*
X76032D01*
Y72258D01*
X75964D01*
Y72191D01*
X75897D01*
Y72123D01*
X75829D01*
Y72056D01*
X75694D01*
Y71988D01*
X75627D01*
Y71921D01*
X75559D01*
Y71853D01*
X75424D01*
Y71786D01*
X75357D01*
Y71718D01*
X75289D01*
Y71651D01*
X78530D01*
Y71246D01*
X74547D01*
Y71583D01*
X74614D01*
Y71651D01*
X74682D01*
Y71718D01*
X74749D01*
Y71786D01*
X74817D01*
Y71853D01*
X74952D01*
Y71921D01*
X75019D01*
Y71988D01*
X75087D01*
Y72056D01*
X75154D01*
Y72123D01*
X75289D01*
Y72191D01*
X75357D01*
Y72258D01*
X75424D01*
Y72326D01*
X75492D01*
Y72393D01*
X75627D01*
Y72461D01*
X75694D01*
Y72528D01*
X75762D01*
Y72596D01*
X75829D01*
Y72663D01*
X75964D01*
Y72731D01*
X76032D01*
Y72798D01*
X76099D01*
Y72866D01*
X76167D01*
Y72933D01*
X76302D01*
Y73001D01*
X76369D01*
Y73068D01*
X76437D01*
Y73136D01*
X76572D01*
Y73203D01*
X76639D01*
Y73271D01*
X76707D01*
Y73338D01*
X76774D01*
Y73406D01*
X76909D01*
Y73473D01*
X76977D01*
Y73541D01*
X77044D01*
Y73608D01*
X77112D01*
Y73676D01*
X77247D01*
Y73743D01*
X77314D01*
Y73811D01*
X77382D01*
Y73878D01*
X77449D01*
Y73946D01*
X77584D01*
Y74013D01*
X77652D01*
Y74081D01*
X77719D01*
Y74216D01*
X74547D01*
Y74554D01*
X78530D01*
Y74216D01*
D02*
G37*
G36*
Y69558D02*
X74547D01*
Y69896D01*
X78530D01*
Y69558D01*
D02*
G37*
G36*
Y67870D02*
X78462D01*
Y67803D01*
X78395D01*
Y67735D01*
X78327D01*
Y67668D01*
X78192D01*
Y67600D01*
X78124D01*
Y67533D01*
X78057D01*
Y67465D01*
X77989D01*
Y67398D01*
X77854D01*
Y67330D01*
X77787D01*
Y67263D01*
X77719D01*
Y67195D01*
X77652D01*
Y67128D01*
X77517D01*
Y67060D01*
X77449D01*
Y66993D01*
X77382D01*
Y66925D01*
X77314D01*
Y66858D01*
X77179D01*
Y66790D01*
X77112D01*
Y66723D01*
X77044D01*
Y66655D01*
X76977D01*
Y66588D01*
X76842D01*
Y66520D01*
X76774D01*
Y66453D01*
X76707D01*
Y66385D01*
X76572D01*
Y66318D01*
X76504D01*
Y66250D01*
X76437D01*
Y66183D01*
X76369D01*
Y66115D01*
X76234D01*
Y66048D01*
X76167D01*
Y65980D01*
X76099D01*
Y65913D01*
X76032D01*
Y65845D01*
X75897D01*
Y65778D01*
X75829D01*
Y65710D01*
X75762D01*
Y65643D01*
X75694D01*
Y65575D01*
X75559D01*
Y65508D01*
X75492D01*
Y65440D01*
X75424D01*
Y65373D01*
X75357D01*
Y65238D01*
X78530D01*
Y64900D01*
X74547D01*
Y65238D01*
X74614D01*
Y65305D01*
X74682D01*
Y65373D01*
X74817D01*
Y65440D01*
X74884D01*
Y65508D01*
X74952D01*
Y65575D01*
X75019D01*
Y65643D01*
X75154D01*
Y65710D01*
X75222D01*
Y65778D01*
X75289D01*
Y65845D01*
X75357D01*
Y65913D01*
X75492D01*
Y65980D01*
X75559D01*
Y66048D01*
X75627D01*
Y66115D01*
X75762D01*
Y66183D01*
X75829D01*
Y66250D01*
X75897D01*
Y66318D01*
X75964D01*
Y66385D01*
X76099D01*
Y66453D01*
X76167D01*
Y66520D01*
X76234D01*
Y66588D01*
X76302D01*
Y66655D01*
X76437D01*
Y66723D01*
X76504D01*
Y66790D01*
X76572D01*
Y66858D01*
X76639D01*
Y66925D01*
X76774D01*
Y66993D01*
X76842D01*
Y67060D01*
X76909D01*
Y67128D01*
X76977D01*
Y67195D01*
X77112D01*
Y67263D01*
X77179D01*
Y67330D01*
X77247D01*
Y67398D01*
X77382D01*
Y67465D01*
X77449D01*
Y67533D01*
X77517D01*
Y67600D01*
X77584D01*
Y67668D01*
X77719D01*
Y67735D01*
X77787D01*
Y67803D01*
X74547D01*
Y68208D01*
X78530D01*
Y67870D01*
D02*
G37*
G36*
Y60850D02*
X78192D01*
Y63145D01*
X76572D01*
Y61120D01*
X76234D01*
Y63145D01*
X74547D01*
Y63550D01*
X78530D01*
Y60850D01*
D02*
G37*
G36*
Y60107D02*
X78395D01*
Y60040D01*
X78259D01*
Y59972D01*
X78192D01*
Y59905D01*
X78057D01*
Y59837D01*
X77922D01*
Y59770D01*
X77854D01*
Y59702D01*
X77719D01*
Y59635D01*
X77652D01*
Y59567D01*
X77517D01*
Y59500D01*
X77382D01*
Y59432D01*
X77314D01*
Y59365D01*
X77179D01*
Y59297D01*
X77044D01*
Y59230D01*
X76977D01*
Y59162D01*
X76842D01*
Y59095D01*
X76707D01*
Y59027D01*
X76639D01*
Y58960D01*
X76504D01*
Y58892D01*
X76437D01*
Y58825D01*
X76302D01*
Y58690D01*
X76437D01*
Y58622D01*
X76572D01*
Y58555D01*
X76639D01*
Y58487D01*
X76774D01*
Y58420D01*
X76842D01*
Y58352D01*
X76977D01*
Y58285D01*
X77112D01*
Y58217D01*
X77179D01*
Y58150D01*
X77314D01*
Y58082D01*
X77449D01*
Y58015D01*
X77517D01*
Y57947D01*
X77652D01*
Y57880D01*
X77787D01*
Y57812D01*
X77854D01*
Y57745D01*
X77989D01*
Y57677D01*
X78124D01*
Y57610D01*
X78192D01*
Y57542D01*
X78327D01*
Y57475D01*
X78395D01*
Y57407D01*
X78530D01*
Y57002D01*
X78462D01*
Y57069D01*
X78327D01*
Y57137D01*
X78259D01*
Y57205D01*
X78124D01*
Y57272D01*
X77989D01*
Y57340D01*
X77922D01*
Y57407D01*
X77787D01*
Y57475D01*
X77719D01*
Y57542D01*
X77584D01*
Y57610D01*
X77449D01*
Y57677D01*
X77382D01*
Y57745D01*
X77247D01*
Y57812D01*
X77112D01*
Y57880D01*
X77044D01*
Y57947D01*
X76909D01*
Y58015D01*
X76774D01*
Y58082D01*
X76707D01*
Y58150D01*
X76572D01*
Y58217D01*
X76504D01*
Y58285D01*
X76369D01*
Y58352D01*
X76234D01*
Y58420D01*
X76167D01*
Y58487D01*
X76032D01*
Y58555D01*
X75897D01*
Y58622D01*
X74547D01*
Y58960D01*
X75964D01*
Y59027D01*
X76032D01*
Y59095D01*
X76167D01*
Y59162D01*
X76302D01*
Y59230D01*
X76369D01*
Y59297D01*
X76504D01*
Y59365D01*
X76639D01*
Y59432D01*
X76707D01*
Y59500D01*
X76842D01*
Y59567D01*
X76977D01*
Y59635D01*
X77044D01*
Y59702D01*
X77179D01*
Y59770D01*
X77247D01*
Y59837D01*
X77382D01*
Y59905D01*
X77517D01*
Y59972D01*
X77584D01*
Y60040D01*
X77719D01*
Y60107D01*
X77854D01*
Y60175D01*
X77922D01*
Y60242D01*
X78057D01*
Y60310D01*
X78192D01*
Y60377D01*
X78259D01*
Y60445D01*
X78395D01*
Y60512D01*
X78462D01*
Y60580D01*
X78530D01*
Y60107D01*
D02*
G37*
G36*
X33376Y58215D02*
X33609D01*
Y58192D01*
X33748D01*
Y58168D01*
X33865D01*
Y58145D01*
X33981D01*
Y58122D01*
X34074D01*
Y58099D01*
X34144D01*
Y58075D01*
X34237D01*
Y58052D01*
X34306D01*
Y58029D01*
X34376D01*
Y58006D01*
X34446D01*
Y57982D01*
X34516D01*
Y57959D01*
X34562D01*
Y57936D01*
X34632D01*
Y57913D01*
X34678D01*
Y57889D01*
X34748D01*
Y57866D01*
X34795D01*
Y57843D01*
X34841D01*
Y57820D01*
X34888D01*
Y57796D01*
X34934D01*
Y57773D01*
X34981D01*
Y57750D01*
X35027D01*
Y57727D01*
X35074D01*
Y57703D01*
X35120D01*
Y57680D01*
X35167D01*
Y57657D01*
X35213D01*
Y57634D01*
X35260D01*
Y57610D01*
X35306D01*
Y57587D01*
X35353D01*
Y57564D01*
X35376D01*
Y57541D01*
X35422D01*
Y57517D01*
X35469D01*
Y57494D01*
X35492D01*
Y57471D01*
X35539D01*
Y57448D01*
X35585D01*
Y57424D01*
X35608D01*
Y57401D01*
X35632D01*
Y57378D01*
X35655D01*
Y57355D01*
X35678D01*
Y57331D01*
X35701D01*
Y57308D01*
X35725D01*
Y57285D01*
X35748D01*
Y57262D01*
Y57238D01*
X35771D01*
Y57215D01*
Y57192D01*
Y57169D01*
X35794D01*
Y57145D01*
Y57122D01*
Y57099D01*
Y57076D01*
X35818D01*
Y57052D01*
Y57029D01*
Y57006D01*
Y56983D01*
Y56959D01*
X35794D01*
Y56936D01*
Y56913D01*
Y56890D01*
Y56866D01*
X35771D01*
Y56843D01*
Y56820D01*
X35748D01*
Y56797D01*
Y56773D01*
X35725D01*
Y56750D01*
X35701D01*
Y56727D01*
Y56704D01*
X35678D01*
Y56680D01*
X35655D01*
Y56657D01*
X35608D01*
Y56634D01*
X35585D01*
Y56611D01*
X35539D01*
Y56587D01*
X35469D01*
Y56564D01*
X35353D01*
Y56541D01*
X35329D01*
Y56564D01*
X35190D01*
Y56587D01*
X35143D01*
Y56611D01*
X35097D01*
Y56634D01*
X35050D01*
Y56657D01*
X35004D01*
Y56680D01*
X34981D01*
Y56704D01*
X34934D01*
Y56727D01*
X34888D01*
Y56750D01*
X34864D01*
Y56773D01*
X34818D01*
Y56797D01*
X34771D01*
Y56820D01*
X34725D01*
Y56843D01*
X34678D01*
Y56866D01*
X34632D01*
Y56890D01*
X34585D01*
Y56913D01*
X34539D01*
Y56936D01*
X34492D01*
Y56959D01*
X34446D01*
Y56983D01*
X34399D01*
Y57006D01*
X34353D01*
Y57029D01*
X34283D01*
Y57052D01*
X34237D01*
Y57076D01*
X34167D01*
Y57099D01*
X34097D01*
Y57122D01*
X34027D01*
Y57145D01*
X33958D01*
Y57169D01*
X33888D01*
Y57192D01*
X33795D01*
Y57215D01*
X33679D01*
Y57238D01*
X33539D01*
Y57262D01*
X33353D01*
Y57285D01*
X32958D01*
Y57262D01*
X32749D01*
Y57238D01*
X32632D01*
Y57215D01*
X32539D01*
Y57192D01*
X32447D01*
Y57169D01*
X32377D01*
Y57145D01*
X32330D01*
Y57122D01*
X32261D01*
Y57099D01*
X32214D01*
Y57076D01*
X32144D01*
Y57052D01*
X32098D01*
Y57029D01*
X32051D01*
Y57006D01*
X32005D01*
Y56983D01*
X31982D01*
Y56959D01*
X31935D01*
Y56936D01*
X31888D01*
Y56913D01*
X31842D01*
Y56890D01*
X31819D01*
Y56866D01*
X31772D01*
Y56843D01*
X31749D01*
Y56820D01*
X31703D01*
Y56797D01*
X31679D01*
Y56773D01*
X31656D01*
Y56750D01*
X31609D01*
Y56727D01*
X31586D01*
Y56704D01*
X31563D01*
Y56680D01*
X31540D01*
Y56657D01*
X31493D01*
Y56634D01*
X31470D01*
Y56611D01*
X31447D01*
Y56587D01*
X31424D01*
Y56564D01*
X31400D01*
Y56541D01*
X31377D01*
Y56518D01*
X31354D01*
Y56494D01*
X31330D01*
Y56471D01*
X31307D01*
Y56448D01*
X31284D01*
Y56425D01*
X31261D01*
Y56401D01*
X31238D01*
Y56378D01*
Y56355D01*
X31214D01*
Y56332D01*
X31191D01*
Y56308D01*
X31168D01*
Y56285D01*
X31144D01*
Y56262D01*
Y56239D01*
X31121D01*
Y56215D01*
X31098D01*
Y56192D01*
X31075D01*
Y56169D01*
Y56146D01*
X31051D01*
Y56122D01*
X31028D01*
Y56099D01*
Y56076D01*
X31005D01*
Y56053D01*
X30982D01*
Y56029D01*
Y56006D01*
X30959D01*
Y55983D01*
Y55960D01*
X30935D01*
Y55936D01*
X30912D01*
Y55913D01*
Y55890D01*
X30889D01*
Y55867D01*
Y55843D01*
X30865D01*
Y55820D01*
Y55797D01*
X30842D01*
Y55774D01*
Y55750D01*
X30819D01*
Y55727D01*
Y55704D01*
Y55681D01*
X30796D01*
Y55657D01*
Y55634D01*
X30773D01*
Y55611D01*
Y55588D01*
Y55564D01*
X30749D01*
Y55541D01*
Y55518D01*
X30726D01*
Y55495D01*
Y55471D01*
Y55448D01*
X30703D01*
Y55425D01*
Y55402D01*
Y55379D01*
Y55355D01*
X30680D01*
Y55332D01*
Y55309D01*
Y55286D01*
Y55262D01*
X30656D01*
Y55239D01*
Y55216D01*
Y55193D01*
Y55169D01*
Y55146D01*
X30633D01*
Y55123D01*
Y55099D01*
Y55076D01*
Y55053D01*
Y55030D01*
Y55006D01*
X30610D01*
Y54983D01*
Y54960D01*
Y54937D01*
Y54914D01*
Y54890D01*
Y54867D01*
Y54844D01*
Y54821D01*
Y54797D01*
Y54774D01*
Y54751D01*
Y54728D01*
Y54704D01*
Y54681D01*
X30586D01*
Y54658D01*
Y54634D01*
Y54611D01*
X30610D01*
Y54588D01*
Y54565D01*
Y54541D01*
Y54518D01*
Y54495D01*
Y54472D01*
Y54448D01*
Y54425D01*
Y54402D01*
Y54379D01*
Y54356D01*
Y54332D01*
Y54309D01*
Y54286D01*
X30633D01*
Y54263D01*
Y54239D01*
Y54216D01*
Y54193D01*
Y54169D01*
Y54146D01*
Y54123D01*
X30656D01*
Y54100D01*
Y54076D01*
Y54053D01*
Y54030D01*
X30680D01*
Y54007D01*
Y53983D01*
Y53960D01*
Y53937D01*
X30703D01*
Y53914D01*
Y53891D01*
Y53867D01*
Y53844D01*
X30726D01*
Y53821D01*
Y53798D01*
Y53774D01*
X30749D01*
Y53751D01*
Y53728D01*
Y53705D01*
X30773D01*
Y53681D01*
Y53658D01*
X30796D01*
Y53635D01*
Y53611D01*
X30819D01*
Y53588D01*
Y53565D01*
Y53542D01*
X30842D01*
Y53518D01*
Y53495D01*
X30865D01*
Y53472D01*
Y53449D01*
X30889D01*
Y53426D01*
Y53402D01*
X30912D01*
Y53379D01*
Y53356D01*
X30935D01*
Y53333D01*
X30959D01*
Y53309D01*
Y53286D01*
X30982D01*
Y53263D01*
Y53240D01*
X31005D01*
Y53216D01*
X31028D01*
Y53193D01*
Y53170D01*
X31051D01*
Y53146D01*
X31075D01*
Y53123D01*
Y53100D01*
X31098D01*
Y53077D01*
X31121D01*
Y53053D01*
X31144D01*
Y53030D01*
Y53007D01*
X31168D01*
Y52984D01*
X31191D01*
Y52961D01*
X31214D01*
Y52937D01*
X31238D01*
Y52914D01*
X31261D01*
Y52891D01*
Y52868D01*
X31284D01*
Y52844D01*
X31307D01*
Y52821D01*
X31330D01*
Y52798D01*
X31354D01*
Y52775D01*
X31377D01*
Y52751D01*
X31400D01*
Y52728D01*
X31447D01*
Y52705D01*
X31470D01*
Y52682D01*
X31493D01*
Y52658D01*
X31517D01*
Y52635D01*
X31540D01*
Y52612D01*
X31563D01*
Y52589D01*
X31609D01*
Y52565D01*
X31633D01*
Y52542D01*
X31656D01*
Y52519D01*
X31703D01*
Y52496D01*
X31726D01*
Y52472D01*
X31772D01*
Y52449D01*
X31795D01*
Y52426D01*
X31842D01*
Y52403D01*
X31888D01*
Y52379D01*
X31935D01*
Y52356D01*
X31982D01*
Y52333D01*
X32028D01*
Y52310D01*
X32074D01*
Y52286D01*
X32121D01*
Y52263D01*
X32168D01*
Y52240D01*
X32237D01*
Y52217D01*
X32307D01*
Y52193D01*
X32377D01*
Y52170D01*
X32447D01*
Y52147D01*
X32539D01*
Y52124D01*
X32656D01*
Y52100D01*
X32818D01*
Y52077D01*
X33121D01*
Y52054D01*
X33307D01*
Y52077D01*
X33609D01*
Y52100D01*
X33772D01*
Y52124D01*
X33888D01*
Y52147D01*
X33981D01*
Y52170D01*
X34074D01*
Y52193D01*
X34167D01*
Y52217D01*
X34237D01*
Y52240D01*
X34306D01*
Y52263D01*
X34353D01*
Y52286D01*
X34423D01*
Y52310D01*
X34469D01*
Y52333D01*
X34539D01*
Y52356D01*
X34585D01*
Y52379D01*
X34632D01*
Y52403D01*
X34678D01*
Y52426D01*
Y52449D01*
Y52472D01*
Y52496D01*
Y52519D01*
Y52542D01*
Y52565D01*
Y52589D01*
Y52612D01*
Y52635D01*
Y52658D01*
Y52682D01*
Y52705D01*
Y52728D01*
Y52751D01*
Y52775D01*
Y52798D01*
Y52821D01*
Y52844D01*
Y52868D01*
Y52891D01*
Y52914D01*
Y52937D01*
Y52961D01*
Y52984D01*
Y53007D01*
Y53030D01*
Y53053D01*
Y53077D01*
Y53100D01*
Y53123D01*
Y53146D01*
Y53170D01*
Y53193D01*
Y53216D01*
Y53240D01*
Y53263D01*
Y53286D01*
Y53309D01*
Y53333D01*
Y53356D01*
Y53379D01*
Y53402D01*
Y53426D01*
Y53449D01*
Y53472D01*
Y53495D01*
Y53518D01*
Y53542D01*
Y53565D01*
Y53588D01*
Y53611D01*
Y53635D01*
Y53658D01*
Y53681D01*
Y53705D01*
Y53728D01*
Y53751D01*
Y53774D01*
Y53798D01*
Y53821D01*
Y53844D01*
Y53867D01*
Y53891D01*
X34655D01*
Y53914D01*
X33307D01*
Y53937D01*
X33260D01*
Y53960D01*
X33214D01*
Y53983D01*
X33167D01*
Y54007D01*
X33144D01*
Y54030D01*
X33121D01*
Y54053D01*
X33097D01*
Y54076D01*
X33074D01*
Y54100D01*
X33051D01*
Y54123D01*
X33028D01*
Y54146D01*
Y54169D01*
X33004D01*
Y54193D01*
Y54216D01*
X32981D01*
Y54239D01*
Y54263D01*
Y54286D01*
Y54309D01*
X32958D01*
Y54332D01*
Y54356D01*
Y54379D01*
Y54402D01*
Y54425D01*
Y54448D01*
X32981D01*
Y54472D01*
Y54495D01*
Y54518D01*
Y54541D01*
X33004D01*
Y54565D01*
Y54588D01*
X33028D01*
Y54611D01*
Y54634D01*
X33051D01*
Y54658D01*
Y54681D01*
X33074D01*
Y54704D01*
X33097D01*
Y54728D01*
X33121D01*
Y54751D01*
X33167D01*
Y54774D01*
X33190D01*
Y54797D01*
X33237D01*
Y54821D01*
X33283D01*
Y54844D01*
X33400D01*
Y54867D01*
X35190D01*
Y54844D01*
X35283D01*
Y54821D01*
X35353D01*
Y54797D01*
X35399D01*
Y54774D01*
X35422D01*
Y54751D01*
X35446D01*
Y54728D01*
X35492D01*
Y54704D01*
Y54681D01*
X35515D01*
Y54658D01*
X35539D01*
Y54634D01*
X35562D01*
Y54611D01*
Y54588D01*
X35585D01*
Y54565D01*
Y54541D01*
Y54518D01*
X35608D01*
Y54495D01*
Y54472D01*
Y54448D01*
Y54425D01*
Y54402D01*
X35632D01*
Y54379D01*
Y54356D01*
Y54332D01*
Y54309D01*
Y54286D01*
Y54263D01*
Y54239D01*
Y54216D01*
Y54193D01*
Y54169D01*
Y54146D01*
Y54123D01*
Y54100D01*
Y54076D01*
Y54053D01*
Y54030D01*
Y54007D01*
Y53983D01*
Y53960D01*
Y53937D01*
Y53914D01*
Y53891D01*
Y53867D01*
Y53844D01*
Y53821D01*
Y53798D01*
Y53774D01*
Y53751D01*
Y53728D01*
Y53705D01*
Y53681D01*
Y53658D01*
Y53635D01*
Y53611D01*
Y53588D01*
Y53565D01*
Y53542D01*
Y53518D01*
Y53495D01*
Y53472D01*
Y53449D01*
Y53426D01*
Y53402D01*
Y53379D01*
Y53356D01*
Y53333D01*
Y53309D01*
Y53286D01*
Y53263D01*
Y53240D01*
Y53216D01*
Y53193D01*
Y53170D01*
Y53146D01*
Y53123D01*
Y53100D01*
Y53077D01*
Y53053D01*
Y53030D01*
Y53007D01*
Y52984D01*
Y52961D01*
Y52937D01*
Y52914D01*
Y52891D01*
Y52868D01*
Y52844D01*
Y52821D01*
Y52798D01*
Y52775D01*
Y52751D01*
Y52728D01*
Y52705D01*
Y52682D01*
Y52658D01*
Y52635D01*
Y52612D01*
Y52589D01*
Y52565D01*
Y52542D01*
Y52519D01*
Y52496D01*
Y52472D01*
Y52449D01*
Y52426D01*
Y52403D01*
Y52379D01*
Y52356D01*
Y52333D01*
Y52310D01*
Y52286D01*
Y52263D01*
Y52240D01*
Y52217D01*
Y52193D01*
Y52170D01*
Y52147D01*
Y52124D01*
Y52100D01*
X35608D01*
Y52077D01*
Y52054D01*
Y52031D01*
Y52007D01*
Y51984D01*
X35585D01*
Y51961D01*
Y51938D01*
Y51914D01*
X35562D01*
Y51891D01*
Y51868D01*
X35539D01*
Y51845D01*
X35515D01*
Y51821D01*
Y51798D01*
X35492D01*
Y51775D01*
X35469D01*
Y51752D01*
X35422D01*
Y51728D01*
X35399D01*
Y51705D01*
X35353D01*
Y51682D01*
X35306D01*
Y51659D01*
X35260D01*
Y51635D01*
X35213D01*
Y51612D01*
X35167D01*
Y51589D01*
X35120D01*
Y51566D01*
X35074D01*
Y51542D01*
X35027D01*
Y51519D01*
X34981D01*
Y51496D01*
X34934D01*
Y51473D01*
X34864D01*
Y51449D01*
X34818D01*
Y51426D01*
X34748D01*
Y51403D01*
X34702D01*
Y51380D01*
X34632D01*
Y51356D01*
X34562D01*
Y51333D01*
X34492D01*
Y51310D01*
X34423D01*
Y51287D01*
X34353D01*
Y51263D01*
X34260D01*
Y51240D01*
X34167D01*
Y51217D01*
X34074D01*
Y51194D01*
X33958D01*
Y51170D01*
X33818D01*
Y51147D01*
X33632D01*
Y51124D01*
X32795D01*
Y51147D01*
X32609D01*
Y51170D01*
X32470D01*
Y51194D01*
X32377D01*
Y51217D01*
X32261D01*
Y51240D01*
X32191D01*
Y51263D01*
X32098D01*
Y51287D01*
X32028D01*
Y51310D01*
X31958D01*
Y51333D01*
X31888D01*
Y51356D01*
X31842D01*
Y51380D01*
X31772D01*
Y51403D01*
X31726D01*
Y51426D01*
X31679D01*
Y51449D01*
X31633D01*
Y51473D01*
X31563D01*
Y51496D01*
X31517D01*
Y51519D01*
X31493D01*
Y51542D01*
X31447D01*
Y51566D01*
X31400D01*
Y51589D01*
X31354D01*
Y51612D01*
X31330D01*
Y51635D01*
X31284D01*
Y51659D01*
X31238D01*
Y51682D01*
X31214D01*
Y51705D01*
X31168D01*
Y51728D01*
X31144D01*
Y51752D01*
X31098D01*
Y51775D01*
X31075D01*
Y51798D01*
X31051D01*
Y51821D01*
X31005D01*
Y51845D01*
X30982D01*
Y51868D01*
X30959D01*
Y51891D01*
X30935D01*
Y51914D01*
X30889D01*
Y51938D01*
X30865D01*
Y51961D01*
X30842D01*
Y51984D01*
X30819D01*
Y52007D01*
X30796D01*
Y52031D01*
X30773D01*
Y52054D01*
X30749D01*
Y52077D01*
X30726D01*
Y52100D01*
X30703D01*
Y52124D01*
X30680D01*
Y52147D01*
X30656D01*
Y52170D01*
X30633D01*
Y52193D01*
X30610D01*
Y52217D01*
X30586D01*
Y52240D01*
X30563D01*
Y52263D01*
X30540D01*
Y52286D01*
X30517D01*
Y52310D01*
X30494D01*
Y52333D01*
Y52356D01*
X30470D01*
Y52379D01*
X30447D01*
Y52403D01*
X30424D01*
Y52426D01*
X30400D01*
Y52449D01*
X30377D01*
Y52472D01*
Y52496D01*
X30354D01*
Y52519D01*
X30331D01*
Y52542D01*
Y52565D01*
X30307D01*
Y52589D01*
X30284D01*
Y52612D01*
X30261D01*
Y52635D01*
Y52658D01*
X30238D01*
Y52682D01*
X30215D01*
Y52705D01*
Y52728D01*
X30191D01*
Y52751D01*
Y52775D01*
X30168D01*
Y52798D01*
X30145D01*
Y52821D01*
Y52844D01*
X30122D01*
Y52868D01*
Y52891D01*
X30098D01*
Y52914D01*
X30075D01*
Y52937D01*
Y52961D01*
X30052D01*
Y52984D01*
Y53007D01*
X30029D01*
Y53030D01*
Y53053D01*
X30005D01*
Y53077D01*
Y53100D01*
X29982D01*
Y53123D01*
Y53146D01*
X29959D01*
Y53170D01*
Y53193D01*
Y53216D01*
X29936D01*
Y53240D01*
Y53263D01*
X29912D01*
Y53286D01*
Y53309D01*
X29889D01*
Y53333D01*
Y53356D01*
Y53379D01*
X29866D01*
Y53402D01*
Y53426D01*
Y53449D01*
X29843D01*
Y53472D01*
Y53495D01*
Y53518D01*
X29819D01*
Y53542D01*
Y53565D01*
Y53588D01*
X29796D01*
Y53611D01*
Y53635D01*
Y53658D01*
X29773D01*
Y53681D01*
Y53705D01*
Y53728D01*
Y53751D01*
X29750D01*
Y53774D01*
Y53798D01*
Y53821D01*
Y53844D01*
X29726D01*
Y53867D01*
Y53891D01*
Y53914D01*
Y53937D01*
Y53960D01*
X29703D01*
Y53983D01*
Y54007D01*
Y54030D01*
Y54053D01*
Y54076D01*
Y54100D01*
X29680D01*
Y54123D01*
Y54146D01*
Y54169D01*
Y54193D01*
Y54216D01*
Y54239D01*
Y54263D01*
X29657D01*
Y54286D01*
Y54309D01*
Y54332D01*
Y54356D01*
Y54379D01*
Y54402D01*
Y54425D01*
Y54448D01*
Y54472D01*
Y54495D01*
Y54518D01*
Y54541D01*
Y54565D01*
Y54588D01*
Y54611D01*
Y54634D01*
Y54658D01*
Y54681D01*
Y54704D01*
Y54728D01*
Y54751D01*
Y54774D01*
Y54797D01*
Y54821D01*
Y54844D01*
Y54867D01*
Y54890D01*
Y54914D01*
Y54937D01*
Y54960D01*
Y54983D01*
Y55006D01*
X29680D01*
Y55030D01*
Y55053D01*
Y55076D01*
Y55099D01*
Y55123D01*
Y55146D01*
Y55169D01*
Y55193D01*
X29703D01*
Y55216D01*
Y55239D01*
Y55262D01*
Y55286D01*
Y55309D01*
Y55332D01*
X29726D01*
Y55355D01*
Y55379D01*
Y55402D01*
Y55425D01*
Y55448D01*
X29750D01*
Y55471D01*
Y55495D01*
Y55518D01*
Y55541D01*
X29773D01*
Y55564D01*
Y55588D01*
Y55611D01*
Y55634D01*
X29796D01*
Y55657D01*
Y55681D01*
Y55704D01*
X29819D01*
Y55727D01*
Y55750D01*
Y55774D01*
X29843D01*
Y55797D01*
Y55820D01*
Y55843D01*
X29866D01*
Y55867D01*
Y55890D01*
Y55913D01*
X29889D01*
Y55936D01*
Y55960D01*
Y55983D01*
X29912D01*
Y56006D01*
Y56029D01*
X29936D01*
Y56053D01*
Y56076D01*
X29959D01*
Y56099D01*
Y56122D01*
Y56146D01*
X29982D01*
Y56169D01*
Y56192D01*
X30005D01*
Y56215D01*
Y56239D01*
X30029D01*
Y56262D01*
Y56285D01*
X30052D01*
Y56308D01*
Y56332D01*
X30075D01*
Y56355D01*
Y56378D01*
X30098D01*
Y56401D01*
X30122D01*
Y56425D01*
Y56448D01*
X30145D01*
Y56471D01*
Y56494D01*
X30168D01*
Y56518D01*
Y56541D01*
X30191D01*
Y56564D01*
X30215D01*
Y56587D01*
Y56611D01*
X30238D01*
Y56634D01*
X30261D01*
Y56657D01*
Y56680D01*
X30284D01*
Y56704D01*
X30307D01*
Y56727D01*
Y56750D01*
X30331D01*
Y56773D01*
X30354D01*
Y56797D01*
X30377D01*
Y56820D01*
Y56843D01*
X30400D01*
Y56866D01*
X30424D01*
Y56890D01*
X30447D01*
Y56913D01*
X30470D01*
Y56936D01*
Y56959D01*
X30494D01*
Y56983D01*
X30517D01*
Y57006D01*
X30540D01*
Y57029D01*
X30563D01*
Y57052D01*
X30586D01*
Y57076D01*
X30610D01*
Y57099D01*
X30633D01*
Y57122D01*
X30656D01*
Y57145D01*
X30680D01*
Y57169D01*
X30703D01*
Y57192D01*
X30726D01*
Y57215D01*
X30749D01*
Y57238D01*
X30773D01*
Y57262D01*
X30796D01*
Y57285D01*
X30819D01*
Y57308D01*
X30842D01*
Y57331D01*
X30865D01*
Y57355D01*
X30889D01*
Y57378D01*
X30912D01*
Y57401D01*
X30935D01*
Y57424D01*
X30982D01*
Y57448D01*
X31005D01*
Y57471D01*
X31028D01*
Y57494D01*
X31051D01*
Y57517D01*
X31098D01*
Y57541D01*
X31121D01*
Y57564D01*
X31168D01*
Y57587D01*
X31191D01*
Y57610D01*
X31214D01*
Y57634D01*
X31261D01*
Y57657D01*
X31284D01*
Y57680D01*
X31330D01*
Y57703D01*
X31377D01*
Y57727D01*
X31400D01*
Y57750D01*
X31447D01*
Y57773D01*
X31493D01*
Y57796D01*
X31517D01*
Y57820D01*
X31563D01*
Y57843D01*
X31609D01*
Y57866D01*
X31656D01*
Y57889D01*
X31703D01*
Y57913D01*
X31772D01*
Y57936D01*
X31819D01*
Y57959D01*
X31865D01*
Y57982D01*
X31935D01*
Y58006D01*
X31982D01*
Y58029D01*
X32051D01*
Y58052D01*
X32121D01*
Y58075D01*
X32191D01*
Y58099D01*
X32261D01*
Y58122D01*
X32353D01*
Y58145D01*
X32447D01*
Y58168D01*
X32563D01*
Y58192D01*
X32726D01*
Y58215D01*
X32935D01*
Y58238D01*
X33376D01*
Y58215D01*
D02*
G37*
G36*
X43234Y58238D02*
X43466D01*
Y58215D01*
X43606D01*
Y58192D01*
X43745D01*
Y58168D01*
X43839D01*
Y58145D01*
X43931D01*
Y58122D01*
X44025D01*
Y58099D01*
X44094D01*
Y58075D01*
X44164D01*
Y58052D01*
X44234D01*
Y58029D01*
X44280D01*
Y58006D01*
X44350D01*
Y57982D01*
X44396D01*
Y57959D01*
X44466D01*
Y57936D01*
X44513D01*
Y57913D01*
X44559D01*
Y57889D01*
X44606D01*
Y57866D01*
X44652D01*
Y57843D01*
X44699D01*
Y57820D01*
X44745D01*
Y57796D01*
X44769D01*
Y57773D01*
X44815D01*
Y57750D01*
X44862D01*
Y57727D01*
X44885D01*
Y57703D01*
X44931D01*
Y57680D01*
X44954D01*
Y57657D01*
X45001D01*
Y57634D01*
X45024D01*
Y57610D01*
X45071D01*
Y57587D01*
X45094D01*
Y57564D01*
X45117D01*
Y57541D01*
X45164D01*
Y57517D01*
X45187D01*
Y57494D01*
X45210D01*
Y57471D01*
X45234D01*
Y57448D01*
X45280D01*
Y57424D01*
X45303D01*
Y57401D01*
X45326D01*
Y57378D01*
X45350D01*
Y57355D01*
X45373D01*
Y57331D01*
X45396D01*
Y57308D01*
X45419D01*
Y57285D01*
X45443D01*
Y57262D01*
X45466D01*
Y57238D01*
X45489D01*
Y57215D01*
X45512D01*
Y57192D01*
X45536D01*
Y57169D01*
X45559D01*
Y57145D01*
X45582D01*
Y57122D01*
X45605D01*
Y57099D01*
X45629D01*
Y57076D01*
X45652D01*
Y57052D01*
X45675D01*
Y57029D01*
Y57006D01*
X45698D01*
Y56983D01*
X45722D01*
Y56959D01*
X45745D01*
Y56936D01*
X45768D01*
Y56913D01*
Y56890D01*
X45791D01*
Y56866D01*
X45815D01*
Y56843D01*
X45838D01*
Y56820D01*
Y56797D01*
X45861D01*
Y56773D01*
X45884D01*
Y56750D01*
X45908D01*
Y56727D01*
Y56704D01*
X45931D01*
Y56680D01*
Y56657D01*
X45954D01*
Y56634D01*
X45977D01*
Y56611D01*
Y56587D01*
X46001D01*
Y56564D01*
X46024D01*
Y56541D01*
Y56518D01*
X46047D01*
Y56494D01*
Y56471D01*
X46070D01*
Y56448D01*
Y56425D01*
X46094D01*
Y56401D01*
Y56378D01*
X46117D01*
Y56355D01*
X46140D01*
Y56332D01*
Y56308D01*
Y56285D01*
X46163D01*
Y56262D01*
Y56239D01*
X46187D01*
Y56215D01*
Y56192D01*
X46210D01*
Y56169D01*
Y56146D01*
X46233D01*
Y56122D01*
Y56099D01*
Y56076D01*
X46256D01*
Y56053D01*
Y56029D01*
X46280D01*
Y56006D01*
Y55983D01*
Y55960D01*
X46303D01*
Y55936D01*
Y55913D01*
Y55890D01*
X46326D01*
Y55867D01*
Y55843D01*
Y55820D01*
X46349D01*
Y55797D01*
Y55774D01*
Y55750D01*
X46373D01*
Y55727D01*
Y55704D01*
Y55681D01*
X46396D01*
Y55657D01*
Y55634D01*
Y55611D01*
Y55588D01*
X46419D01*
Y55564D01*
Y55541D01*
Y55518D01*
Y55495D01*
Y55471D01*
X46442D01*
Y55448D01*
Y55425D01*
Y55402D01*
Y55379D01*
Y55355D01*
X46466D01*
Y55332D01*
Y55309D01*
Y55286D01*
Y55262D01*
Y55239D01*
Y55216D01*
X46489D01*
Y55193D01*
Y55169D01*
Y55146D01*
Y55123D01*
Y55099D01*
Y55076D01*
Y55053D01*
Y55030D01*
Y55006D01*
X46512D01*
Y54983D01*
Y54960D01*
Y54937D01*
Y54914D01*
Y54890D01*
Y54867D01*
Y54844D01*
Y54821D01*
Y54797D01*
Y54774D01*
Y54751D01*
Y54728D01*
Y54704D01*
Y54681D01*
Y54658D01*
Y54634D01*
Y54611D01*
Y54588D01*
Y54565D01*
Y54541D01*
Y54518D01*
Y54495D01*
Y54472D01*
Y54448D01*
X46489D01*
Y54425D01*
Y54402D01*
Y54379D01*
Y54356D01*
Y54332D01*
Y54309D01*
Y54286D01*
Y54263D01*
Y54239D01*
X46466D01*
Y54216D01*
Y54193D01*
Y54169D01*
Y54146D01*
Y54123D01*
Y54100D01*
X46442D01*
Y54076D01*
Y54053D01*
Y54030D01*
Y54007D01*
Y53983D01*
Y53960D01*
X46419D01*
Y53937D01*
Y53914D01*
Y53891D01*
Y53867D01*
X46396D01*
Y53844D01*
Y53821D01*
Y53798D01*
Y53774D01*
X46373D01*
Y53751D01*
Y53728D01*
Y53705D01*
X46349D01*
Y53681D01*
Y53658D01*
Y53635D01*
Y53611D01*
X46326D01*
Y53588D01*
Y53565D01*
Y53542D01*
X46303D01*
Y53518D01*
Y53495D01*
X46280D01*
Y53472D01*
Y53449D01*
Y53426D01*
X46256D01*
Y53402D01*
Y53379D01*
Y53356D01*
X46233D01*
Y53333D01*
Y53309D01*
X46210D01*
Y53286D01*
Y53263D01*
Y53240D01*
X46187D01*
Y53216D01*
Y53193D01*
X46163D01*
Y53170D01*
Y53146D01*
X46140D01*
Y53123D01*
Y53100D01*
X46117D01*
Y53077D01*
Y53053D01*
X46094D01*
Y53030D01*
Y53007D01*
X46070D01*
Y52984D01*
Y52961D01*
X46047D01*
Y52937D01*
X46024D01*
Y52914D01*
Y52891D01*
X46001D01*
Y52868D01*
Y52844D01*
X45977D01*
Y52821D01*
X45954D01*
Y52798D01*
Y52775D01*
X45931D01*
Y52751D01*
X45908D01*
Y52728D01*
Y52705D01*
X45884D01*
Y52682D01*
X45861D01*
Y52658D01*
Y52635D01*
X45838D01*
Y52612D01*
X45815D01*
Y52589D01*
Y52565D01*
X45791D01*
Y52542D01*
X45768D01*
Y52519D01*
X45745D01*
Y52496D01*
X45722D01*
Y52472D01*
Y52449D01*
X45698D01*
Y52426D01*
X45675D01*
Y52403D01*
X45652D01*
Y52379D01*
X45629D01*
Y52356D01*
X45605D01*
Y52333D01*
Y52310D01*
X45582D01*
Y52286D01*
X45559D01*
Y52263D01*
X45536D01*
Y52240D01*
X45512D01*
Y52217D01*
X45489D01*
Y52193D01*
X45466D01*
Y52170D01*
X45443D01*
Y52147D01*
X45419D01*
Y52124D01*
X45396D01*
Y52100D01*
X45373D01*
Y52077D01*
X45350D01*
Y52054D01*
X45326D01*
Y52031D01*
X45280D01*
Y52007D01*
X45257D01*
Y51984D01*
X45234D01*
Y51961D01*
X45210D01*
Y51938D01*
X45187D01*
Y51914D01*
X45140D01*
Y51891D01*
X45117D01*
Y51868D01*
X45094D01*
Y51845D01*
X45071D01*
Y51821D01*
X45024D01*
Y51798D01*
X45001D01*
Y51775D01*
X44954D01*
Y51752D01*
X44931D01*
Y51728D01*
X44885D01*
Y51705D01*
X44862D01*
Y51682D01*
X44815D01*
Y51659D01*
X44792D01*
Y51635D01*
X44745D01*
Y51612D01*
X44699D01*
Y51589D01*
X44675D01*
Y51566D01*
X44629D01*
Y51542D01*
X44583D01*
Y51519D01*
X44536D01*
Y51496D01*
X44489D01*
Y51473D01*
X44443D01*
Y51449D01*
X44396D01*
Y51426D01*
X44327D01*
Y51403D01*
X44280D01*
Y51380D01*
X44234D01*
Y51356D01*
X44164D01*
Y51333D01*
X44094D01*
Y51310D01*
X44025D01*
Y51287D01*
X43955D01*
Y51263D01*
X43885D01*
Y51240D01*
X43792D01*
Y51217D01*
X43676D01*
Y51194D01*
X43560D01*
Y51170D01*
X43397D01*
Y51147D01*
X43118D01*
Y51124D01*
X42885D01*
Y51147D01*
X42583D01*
Y51170D01*
X42420D01*
Y51194D01*
X42304D01*
Y51217D01*
X42188D01*
Y51240D01*
X42095D01*
Y51263D01*
X42002D01*
Y51287D01*
X41932D01*
Y51310D01*
X41862D01*
Y51333D01*
X41793D01*
Y51356D01*
X41723D01*
Y51380D01*
X41653D01*
Y51403D01*
X41583D01*
Y51426D01*
X41537D01*
Y51449D01*
X41467D01*
Y51473D01*
X41421D01*
Y51496D01*
X41374D01*
Y51519D01*
X41304D01*
Y51542D01*
X41258D01*
Y51566D01*
X41211D01*
Y51589D01*
X41165D01*
Y51612D01*
X41118D01*
Y51635D01*
X41072D01*
Y51659D01*
X41025D01*
Y51682D01*
X40979D01*
Y51705D01*
X40932D01*
Y51728D01*
X40886D01*
Y51752D01*
X40863D01*
Y51775D01*
X40816D01*
Y51798D01*
X40770D01*
Y51821D01*
X40723D01*
Y51845D01*
X40700D01*
Y51868D01*
X40653D01*
Y51891D01*
X40607D01*
Y51914D01*
X40584D01*
Y51938D01*
X40537D01*
Y51961D01*
X40514D01*
Y51984D01*
X40467D01*
Y52007D01*
X40444D01*
Y52031D01*
X40398D01*
Y52054D01*
X40374D01*
Y52077D01*
X40328D01*
Y52100D01*
X40305D01*
Y52124D01*
X40258D01*
Y52147D01*
X40235D01*
Y52170D01*
X40188D01*
Y52193D01*
X40165D01*
Y52217D01*
X40119D01*
Y52240D01*
X40095D01*
Y52263D01*
X40072D01*
Y52286D01*
X40026D01*
Y52310D01*
X40002D01*
Y52333D01*
X39956D01*
Y52356D01*
X39933D01*
Y52379D01*
X39909D01*
Y52403D01*
X39863D01*
Y52426D01*
X39840D01*
Y52449D01*
X39816D01*
Y52472D01*
X39793D01*
Y52496D01*
X39747D01*
Y52519D01*
X39723D01*
Y52542D01*
X39700D01*
Y52565D01*
X39654D01*
Y52589D01*
X39630D01*
Y52612D01*
X39607D01*
Y52635D01*
X39584D01*
Y52658D01*
X39537D01*
Y52682D01*
X39514D01*
Y52705D01*
X39491D01*
Y52728D01*
X39468D01*
Y52751D01*
X39421D01*
Y52775D01*
X39398D01*
Y52798D01*
X39375D01*
Y52821D01*
X39351D01*
Y52844D01*
X39328D01*
Y52868D01*
X39282D01*
Y52891D01*
X39258D01*
Y52914D01*
X39235D01*
Y52937D01*
X39212D01*
Y52961D01*
X39189D01*
Y52984D01*
X39142D01*
Y53007D01*
X39119D01*
Y53030D01*
X39096D01*
Y53053D01*
X39072D01*
Y53077D01*
X39049D01*
Y53100D01*
X39026D01*
Y53123D01*
X39003D01*
Y53146D01*
X38980D01*
Y53170D01*
X38956D01*
Y53193D01*
X38933D01*
Y53216D01*
X38910D01*
Y53240D01*
X38886D01*
Y53263D01*
X38863D01*
Y53286D01*
X38840D01*
Y53309D01*
X38794D01*
Y53333D01*
X38770D01*
Y53356D01*
X38747D01*
Y53379D01*
X38724D01*
Y53402D01*
X38701D01*
Y53426D01*
X38677D01*
Y53449D01*
X38654D01*
Y53472D01*
X38631D01*
Y53495D01*
X38607D01*
Y53518D01*
X38584D01*
Y53542D01*
X38561D01*
Y53565D01*
X38538D01*
Y53588D01*
X38515D01*
Y53611D01*
X38491D01*
Y53635D01*
X38468D01*
Y53658D01*
X38445D01*
Y53681D01*
X38421D01*
Y53705D01*
X38398D01*
Y53728D01*
X38375D01*
Y53751D01*
X38352D01*
Y53774D01*
X38328D01*
Y53798D01*
X38305D01*
Y53821D01*
X38282D01*
Y53844D01*
X38259D01*
Y53867D01*
X38236D01*
Y53891D01*
X38212D01*
Y53914D01*
X38189D01*
Y53937D01*
X38142D01*
Y53960D01*
X38119D01*
Y53983D01*
X38096D01*
Y54007D01*
X38073D01*
Y53983D01*
X38050D01*
Y53960D01*
X38026D01*
Y53937D01*
X38003D01*
Y53914D01*
X37980D01*
Y53891D01*
X37957D01*
Y53867D01*
X37933D01*
Y53844D01*
X37910D01*
Y53821D01*
X37887D01*
Y53798D01*
X37863D01*
Y53774D01*
X37840D01*
Y53751D01*
X37817D01*
Y53728D01*
X37794D01*
Y53705D01*
X37771D01*
Y53681D01*
Y53658D01*
X37747D01*
Y53635D01*
X37724D01*
Y53611D01*
X37701D01*
Y53588D01*
X37677D01*
Y53565D01*
X37654D01*
Y53542D01*
X37631D01*
Y53518D01*
X37608D01*
Y53495D01*
X37584D01*
Y53472D01*
X37561D01*
Y53449D01*
X37538D01*
Y53426D01*
X37515D01*
Y53402D01*
X37492D01*
Y53379D01*
X37468D01*
Y53356D01*
X37445D01*
Y53333D01*
X37422D01*
Y53309D01*
X37398D01*
Y53286D01*
X37375D01*
Y53263D01*
X37352D01*
Y53240D01*
X37329D01*
Y53216D01*
X37306D01*
Y53193D01*
X37282D01*
Y53170D01*
X37259D01*
Y53146D01*
X37236D01*
Y53123D01*
X37212D01*
Y53100D01*
X37189D01*
Y53077D01*
X37143D01*
Y53053D01*
X37119D01*
Y53030D01*
X37096D01*
Y53007D01*
X37073D01*
Y52984D01*
X37050D01*
Y52961D01*
X37027D01*
Y52937D01*
X37003D01*
Y52914D01*
X36980D01*
Y52891D01*
X36957D01*
Y52868D01*
X36933D01*
Y52844D01*
X36910D01*
Y52821D01*
X36887D01*
Y52798D01*
X36864D01*
Y52775D01*
X36841D01*
Y52751D01*
X36794D01*
Y52728D01*
X36771D01*
Y52705D01*
X36748D01*
Y52682D01*
X36724D01*
Y52658D01*
X36701D01*
Y52635D01*
X36678D01*
Y52612D01*
X36654D01*
Y52589D01*
X36631D01*
Y52565D01*
X36585D01*
Y52542D01*
X36562D01*
Y52519D01*
X36538D01*
Y52496D01*
X36515D01*
Y52472D01*
X36492D01*
Y52449D01*
X36468D01*
Y52426D01*
X36422D01*
Y52403D01*
X36399D01*
Y52379D01*
X36376D01*
Y52356D01*
X36352D01*
Y52333D01*
X36306D01*
Y52310D01*
X36283D01*
Y52286D01*
X36259D01*
Y52263D01*
X36236D01*
Y52240D01*
X36190D01*
Y52217D01*
X36166D01*
Y52193D01*
X36143D01*
Y52170D01*
X36097D01*
Y52147D01*
X36073D01*
Y52124D01*
X36050D01*
Y52100D01*
X36004D01*
Y52077D01*
X35980D01*
Y52054D01*
X35934D01*
Y52031D01*
X35911D01*
Y52007D01*
X35864D01*
Y51984D01*
X35841D01*
Y51961D01*
X35794D01*
Y51938D01*
X35771D01*
Y51914D01*
X35725D01*
Y51891D01*
X35678D01*
Y51868D01*
X35655D01*
Y51891D01*
Y51914D01*
X35678D01*
Y51938D01*
Y51961D01*
Y51984D01*
X35701D01*
Y52007D01*
Y52031D01*
Y52054D01*
Y52077D01*
Y52100D01*
Y52124D01*
Y52147D01*
Y52170D01*
Y52193D01*
Y52217D01*
Y52240D01*
Y52263D01*
Y52286D01*
Y52310D01*
Y52333D01*
Y52356D01*
Y52379D01*
Y52403D01*
Y52426D01*
Y52449D01*
Y52472D01*
Y52496D01*
Y52519D01*
Y52542D01*
Y52565D01*
Y52589D01*
Y52612D01*
Y52635D01*
Y52658D01*
Y52682D01*
Y52705D01*
Y52728D01*
Y52751D01*
Y52775D01*
Y52798D01*
Y52821D01*
Y52844D01*
Y52868D01*
Y52891D01*
Y52914D01*
Y52937D01*
Y52961D01*
Y52984D01*
Y53007D01*
Y53030D01*
Y53053D01*
Y53077D01*
X35748D01*
Y53100D01*
X35771D01*
Y53123D01*
X35794D01*
Y53146D01*
X35818D01*
Y53170D01*
X35864D01*
Y53193D01*
X35887D01*
Y53216D01*
X35911D01*
Y53240D01*
X35934D01*
Y53263D01*
X35957D01*
Y53286D01*
X35980D01*
Y53309D01*
X36027D01*
Y53333D01*
X36050D01*
Y53356D01*
X36073D01*
Y53379D01*
X36097D01*
Y53402D01*
X36120D01*
Y53426D01*
X36143D01*
Y53449D01*
X36166D01*
Y53472D01*
X36190D01*
Y53495D01*
X36213D01*
Y53518D01*
X36259D01*
Y53542D01*
X36283D01*
Y53565D01*
X36306D01*
Y53588D01*
X36329D01*
Y53611D01*
X36352D01*
Y53635D01*
X36376D01*
Y53658D01*
X36399D01*
Y53681D01*
X36422D01*
Y53705D01*
X36445D01*
Y53728D01*
X36468D01*
Y53751D01*
X36492D01*
Y53774D01*
X36515D01*
Y53798D01*
X36538D01*
Y53821D01*
X36562D01*
Y53844D01*
X36585D01*
Y53867D01*
X36608D01*
Y53891D01*
X36631D01*
Y53914D01*
X36654D01*
Y53937D01*
X36678D01*
Y53960D01*
X36701D01*
Y53983D01*
X36724D01*
Y54007D01*
X36748D01*
Y54030D01*
X36771D01*
Y54053D01*
X36794D01*
Y54076D01*
X36817D01*
Y54100D01*
X36841D01*
Y54123D01*
X36864D01*
Y54146D01*
X36887D01*
Y54169D01*
X36910D01*
Y54193D01*
X36933D01*
Y54216D01*
X36957D01*
Y54239D01*
X36980D01*
Y54263D01*
X37003D01*
Y54286D01*
X37027D01*
Y54309D01*
X37050D01*
Y54332D01*
X37073D01*
Y54356D01*
X37096D01*
Y54379D01*
X37119D01*
Y54402D01*
X37143D01*
Y54425D01*
X37166D01*
Y54448D01*
X37189D01*
Y54472D01*
X37212D01*
Y54495D01*
X37236D01*
Y54518D01*
X37259D01*
Y54541D01*
X37282D01*
Y54565D01*
X37306D01*
Y54588D01*
X37329D01*
Y54611D01*
X37352D01*
Y54634D01*
X37375D01*
Y54658D01*
Y54681D01*
Y54704D01*
X37352D01*
Y54728D01*
X37329D01*
Y54751D01*
X37306D01*
Y54774D01*
X37282D01*
Y54797D01*
X37259D01*
Y54821D01*
X37236D01*
Y54844D01*
X37212D01*
Y54867D01*
X37189D01*
Y54890D01*
X37166D01*
Y54914D01*
X37119D01*
Y54937D01*
X37096D01*
Y54960D01*
X37073D01*
Y54983D01*
X37050D01*
Y55006D01*
X37027D01*
Y55030D01*
X37003D01*
Y55053D01*
X36980D01*
Y55076D01*
X36957D01*
Y55099D01*
X36933D01*
Y55123D01*
X36910D01*
Y55146D01*
X36887D01*
Y55169D01*
X36864D01*
Y55193D01*
X36841D01*
Y55216D01*
X36794D01*
Y55239D01*
X36771D01*
Y55262D01*
X36748D01*
Y55286D01*
X36724D01*
Y55309D01*
X36701D01*
Y55332D01*
X36678D01*
Y55355D01*
X36654D01*
Y55379D01*
X36631D01*
Y55402D01*
X36608D01*
Y55425D01*
X36585D01*
Y55448D01*
X36562D01*
Y55471D01*
X36515D01*
Y55495D01*
X36492D01*
Y55518D01*
X36468D01*
Y55541D01*
X36445D01*
Y55564D01*
X36422D01*
Y55588D01*
X36399D01*
Y55611D01*
X36376D01*
Y55634D01*
X36352D01*
Y55657D01*
X36306D01*
Y55681D01*
X36283D01*
Y55704D01*
X36259D01*
Y55727D01*
X36236D01*
Y55750D01*
X36213D01*
Y55774D01*
X36190D01*
Y55797D01*
X36166D01*
Y55820D01*
X36120D01*
Y55843D01*
X36097D01*
Y55867D01*
X36073D01*
Y55890D01*
X36050D01*
Y55913D01*
X36027D01*
Y55936D01*
X36004D01*
Y55960D01*
X35957D01*
Y55983D01*
X35934D01*
Y56006D01*
X35911D01*
Y56029D01*
X35887D01*
Y56053D01*
X35864D01*
Y56076D01*
X35841D01*
Y56099D01*
X35794D01*
Y56122D01*
X35771D01*
Y56146D01*
X35748D01*
Y56169D01*
X35725D01*
Y56192D01*
X35678D01*
Y56215D01*
X35655D01*
Y56239D01*
X35632D01*
Y56262D01*
X35608D01*
Y56285D01*
X35562D01*
Y56308D01*
X35539D01*
Y56332D01*
X35515D01*
Y56355D01*
X35469D01*
Y56378D01*
X35446D01*
Y56401D01*
X35422D01*
Y56425D01*
X35376D01*
Y56448D01*
X35353D01*
Y56471D01*
X35469D01*
Y56494D01*
X35539D01*
Y56518D01*
X35585D01*
Y56541D01*
X35632D01*
Y56564D01*
X35678D01*
Y56587D01*
X35701D01*
Y56611D01*
X35725D01*
Y56634D01*
X35748D01*
Y56657D01*
X35771D01*
Y56680D01*
X35794D01*
Y56704D01*
Y56727D01*
X35818D01*
Y56750D01*
Y56773D01*
X35841D01*
Y56797D01*
Y56820D01*
X35864D01*
Y56843D01*
Y56866D01*
Y56890D01*
X35887D01*
Y56913D01*
Y56936D01*
Y56959D01*
Y56983D01*
Y57006D01*
Y57029D01*
Y57052D01*
Y57076D01*
Y57099D01*
Y57122D01*
Y57145D01*
Y57169D01*
X35864D01*
Y57192D01*
Y57215D01*
Y57238D01*
X35841D01*
Y57262D01*
Y57285D01*
X35864D01*
Y57262D01*
X35887D01*
Y57238D01*
X35934D01*
Y57215D01*
X35957D01*
Y57192D01*
X35980D01*
Y57169D01*
X36027D01*
Y57145D01*
X36050D01*
Y57122D01*
X36073D01*
Y57099D01*
X36120D01*
Y57076D01*
X36143D01*
Y57052D01*
X36166D01*
Y57029D01*
X36213D01*
Y57006D01*
X36236D01*
Y56983D01*
X36259D01*
Y56959D01*
X36283D01*
Y56936D01*
X36329D01*
Y56913D01*
X36352D01*
Y56890D01*
X36376D01*
Y56866D01*
X36399D01*
Y56843D01*
X36445D01*
Y56820D01*
X36468D01*
Y56797D01*
X36492D01*
Y56773D01*
X36515D01*
Y56750D01*
X36538D01*
Y56727D01*
X36585D01*
Y56704D01*
X36608D01*
Y56680D01*
X36631D01*
Y56657D01*
X36654D01*
Y56634D01*
X36678D01*
Y56611D01*
X36701D01*
Y56587D01*
X36748D01*
Y56564D01*
X36771D01*
Y56541D01*
X36794D01*
Y56518D01*
X36817D01*
Y56494D01*
X36841D01*
Y56471D01*
X36864D01*
Y56448D01*
X36887D01*
Y56425D01*
X36933D01*
Y56401D01*
X36957D01*
Y56378D01*
X36980D01*
Y56355D01*
X37003D01*
Y56332D01*
X37027D01*
Y56308D01*
X37050D01*
Y56285D01*
X37073D01*
Y56262D01*
X37096D01*
Y56239D01*
X37143D01*
Y56215D01*
X37166D01*
Y56192D01*
X37189D01*
Y56169D01*
X37212D01*
Y56146D01*
X37236D01*
Y56122D01*
X37259D01*
Y56099D01*
X37282D01*
Y56076D01*
X37306D01*
Y56053D01*
X37329D01*
Y56029D01*
X37352D01*
Y56006D01*
X37398D01*
Y55983D01*
X37422D01*
Y55960D01*
X37445D01*
Y55936D01*
X37468D01*
Y55913D01*
X37492D01*
Y55890D01*
X37515D01*
Y55867D01*
X37538D01*
Y55843D01*
X37561D01*
Y55820D01*
X37584D01*
Y55797D01*
X37608D01*
Y55774D01*
X37631D01*
Y55750D01*
X37654D01*
Y55727D01*
X37701D01*
Y55704D01*
X37724D01*
Y55681D01*
X37747D01*
Y55657D01*
X37771D01*
Y55634D01*
X37794D01*
Y55611D01*
X37817D01*
Y55588D01*
X37840D01*
Y55564D01*
X37863D01*
Y55541D01*
X37887D01*
Y55518D01*
X37910D01*
Y55495D01*
X37933D01*
Y55471D01*
X37957D01*
Y55448D01*
X37980D01*
Y55425D01*
X38003D01*
Y55402D01*
X38026D01*
Y55379D01*
X38073D01*
Y55402D01*
X38096D01*
Y55425D01*
X38119D01*
Y55448D01*
X38142D01*
Y55471D01*
X38166D01*
Y55495D01*
X38189D01*
Y55518D01*
X38212D01*
Y55541D01*
X38236D01*
Y55564D01*
X38259D01*
Y55588D01*
X38282D01*
Y55611D01*
X38305D01*
Y55634D01*
X38328D01*
Y55657D01*
X38352D01*
Y55681D01*
X38375D01*
Y55704D01*
X38398D01*
Y55727D01*
X38421D01*
Y55750D01*
X38445D01*
Y55774D01*
X38468D01*
Y55797D01*
X38491D01*
Y55820D01*
X38515D01*
Y55843D01*
X38538D01*
Y55867D01*
X38561D01*
Y55890D01*
X38584D01*
Y55913D01*
X38607D01*
Y55936D01*
X38631D01*
Y55960D01*
X38654D01*
Y55983D01*
X38677D01*
Y56006D01*
X38701D01*
Y56029D01*
X38724D01*
Y56053D01*
X38747D01*
Y56076D01*
X38770D01*
Y56099D01*
X38794D01*
Y56122D01*
X38817D01*
Y56146D01*
X38840D01*
Y56169D01*
X38863D01*
Y56192D01*
X38886D01*
Y56215D01*
X38910D01*
Y56239D01*
X38933D01*
Y56262D01*
X38956D01*
Y56285D01*
X38980D01*
Y56308D01*
X39003D01*
Y56332D01*
X39049D01*
Y56355D01*
X39072D01*
Y56378D01*
X39096D01*
Y56401D01*
X39119D01*
Y56425D01*
X39142D01*
Y56448D01*
X39165D01*
Y56471D01*
X39189D01*
Y56494D01*
X39212D01*
Y56518D01*
X39235D01*
Y56541D01*
X39258D01*
Y56564D01*
X39282D01*
Y56587D01*
X39328D01*
Y56611D01*
X39351D01*
Y56634D01*
X39375D01*
Y56657D01*
X39398D01*
Y56680D01*
X39421D01*
Y56704D01*
X39444D01*
Y56727D01*
X39468D01*
Y56750D01*
X39514D01*
Y56773D01*
X39537D01*
Y56797D01*
X39561D01*
Y56820D01*
X39584D01*
Y56843D01*
X39607D01*
Y56866D01*
X39630D01*
Y56890D01*
X39677D01*
Y56913D01*
X39700D01*
Y56936D01*
X39723D01*
Y56959D01*
X39747D01*
Y56983D01*
X39793D01*
Y57006D01*
X39816D01*
Y57029D01*
X39840D01*
Y57052D01*
X39863D01*
Y57076D01*
X39909D01*
Y57099D01*
X39933D01*
Y57122D01*
X39956D01*
Y57145D01*
X40002D01*
Y57169D01*
X40026D01*
Y57192D01*
X40049D01*
Y57215D01*
X40095D01*
Y57238D01*
X40119D01*
Y57262D01*
X40142D01*
Y57285D01*
X40188D01*
Y57308D01*
X40212D01*
Y57331D01*
X40258D01*
Y57355D01*
X40281D01*
Y57378D01*
X40328D01*
Y57401D01*
X40351D01*
Y57424D01*
X40398D01*
Y57448D01*
X40421D01*
Y57471D01*
X40467D01*
Y57494D01*
X40491D01*
Y57517D01*
X40537D01*
Y57541D01*
X40584D01*
Y57564D01*
X40607D01*
Y57587D01*
X40653D01*
Y57610D01*
X40700D01*
Y57634D01*
X40723D01*
Y57657D01*
X40770D01*
Y57680D01*
X40816D01*
Y57703D01*
X40863D01*
Y57727D01*
X40909D01*
Y57750D01*
X40956D01*
Y57773D01*
X41002D01*
Y57796D01*
X41049D01*
Y57820D01*
X41095D01*
Y57843D01*
X41142D01*
Y57866D01*
X41188D01*
Y57889D01*
X41258D01*
Y57913D01*
X41304D01*
Y57936D01*
X41374D01*
Y57959D01*
X41421D01*
Y57982D01*
X41490D01*
Y58006D01*
X41560D01*
Y58029D01*
X41630D01*
Y58052D01*
X41700D01*
Y58075D01*
X41769D01*
Y58099D01*
X41839D01*
Y58122D01*
X41932D01*
Y58145D01*
X42025D01*
Y58168D01*
X42141D01*
Y58192D01*
X42258D01*
Y58215D01*
X42420D01*
Y58238D01*
X42653D01*
Y58261D01*
X43234D01*
Y58238D01*
D02*
G37*
G36*
X34492Y50519D02*
X34585D01*
Y50496D01*
X34632D01*
Y50473D01*
X34678D01*
Y50450D01*
X34725D01*
Y50426D01*
X34771D01*
Y50403D01*
X34795D01*
Y50380D01*
X34818D01*
Y50357D01*
Y50333D01*
X34795D01*
Y50310D01*
X34771D01*
Y50287D01*
X34702D01*
Y50310D01*
X34678D01*
Y50333D01*
X34655D01*
Y50357D01*
X34609D01*
Y50380D01*
X34562D01*
Y50403D01*
X34492D01*
Y50426D01*
X34167D01*
Y50403D01*
X34097D01*
Y50380D01*
X34027D01*
Y50357D01*
X34004D01*
Y50333D01*
X33958D01*
Y50310D01*
X33934D01*
Y50287D01*
X33911D01*
Y50264D01*
X33888D01*
Y50240D01*
X33865D01*
Y50217D01*
X33841D01*
Y50194D01*
X33818D01*
Y50171D01*
Y50147D01*
X33795D01*
Y50124D01*
Y50101D01*
X33772D01*
Y50078D01*
Y50054D01*
X33748D01*
Y50031D01*
Y50008D01*
Y49985D01*
Y49961D01*
X33725D01*
Y49938D01*
Y49915D01*
Y49892D01*
Y49868D01*
Y49845D01*
Y49822D01*
Y49799D01*
Y49775D01*
Y49752D01*
Y49729D01*
X33748D01*
Y49706D01*
Y49682D01*
Y49659D01*
X33772D01*
Y49636D01*
Y49613D01*
Y49589D01*
X33795D01*
Y49566D01*
X33818D01*
Y49543D01*
Y49520D01*
X33841D01*
Y49496D01*
X33865D01*
Y49473D01*
X33888D01*
Y49450D01*
X33911D01*
Y49427D01*
X33934D01*
Y49403D01*
X33958D01*
Y49380D01*
X33981D01*
Y49357D01*
X34027D01*
Y49334D01*
X34074D01*
Y49310D01*
X34144D01*
Y49287D01*
X34283D01*
Y49264D01*
X34353D01*
Y49287D01*
X34492D01*
Y49310D01*
X34562D01*
Y49334D01*
X34632D01*
Y49357D01*
X34655D01*
Y49380D01*
X34678D01*
Y49403D01*
X34702D01*
Y49427D01*
Y49450D01*
Y49473D01*
Y49496D01*
Y49520D01*
Y49543D01*
Y49566D01*
Y49589D01*
Y49613D01*
Y49636D01*
Y49659D01*
Y49682D01*
Y49706D01*
Y49729D01*
Y49752D01*
Y49775D01*
Y49799D01*
Y49822D01*
Y49845D01*
X34818D01*
Y49822D01*
Y49799D01*
Y49775D01*
Y49752D01*
Y49729D01*
Y49706D01*
Y49682D01*
Y49659D01*
Y49636D01*
Y49613D01*
Y49589D01*
Y49566D01*
Y49543D01*
Y49520D01*
Y49496D01*
Y49473D01*
Y49450D01*
Y49427D01*
Y49403D01*
Y49380D01*
Y49357D01*
Y49334D01*
Y49310D01*
X34771D01*
Y49287D01*
X34748D01*
Y49264D01*
X34702D01*
Y49241D01*
X34655D01*
Y49218D01*
X34609D01*
Y49194D01*
X34516D01*
Y49171D01*
X34120D01*
Y49194D01*
X34051D01*
Y49218D01*
X33981D01*
Y49241D01*
X33934D01*
Y49264D01*
X33911D01*
Y49287D01*
X33865D01*
Y49310D01*
X33841D01*
Y49334D01*
X33818D01*
Y49357D01*
X33795D01*
Y49380D01*
X33772D01*
Y49403D01*
X33748D01*
Y49427D01*
X33725D01*
Y49450D01*
X33702D01*
Y49473D01*
Y49496D01*
X33679D01*
Y49520D01*
Y49543D01*
X33655D01*
Y49566D01*
Y49589D01*
X33632D01*
Y49613D01*
Y49636D01*
Y49659D01*
X33609D01*
Y49682D01*
Y49706D01*
Y49729D01*
Y49752D01*
Y49775D01*
Y49799D01*
Y49822D01*
Y49845D01*
Y49868D01*
Y49892D01*
Y49915D01*
Y49938D01*
Y49961D01*
Y49985D01*
Y50008D01*
Y50031D01*
Y50054D01*
X33632D01*
Y50078D01*
Y50101D01*
Y50124D01*
X33655D01*
Y50147D01*
Y50171D01*
X33679D01*
Y50194D01*
Y50217D01*
X33702D01*
Y50240D01*
X33725D01*
Y50264D01*
Y50287D01*
X33748D01*
Y50310D01*
X33772D01*
Y50333D01*
X33795D01*
Y50357D01*
X33818D01*
Y50380D01*
X33841D01*
Y50403D01*
X33865D01*
Y50426D01*
X33911D01*
Y50450D01*
X33958D01*
Y50473D01*
X34004D01*
Y50496D01*
X34051D01*
Y50519D01*
X34144D01*
Y50543D01*
X34492D01*
Y50519D01*
D02*
G37*
G36*
X42606D02*
X42583D01*
Y50496D01*
Y50473D01*
X42560D01*
Y50450D01*
X42537D01*
Y50426D01*
Y50403D01*
X42513D01*
Y50380D01*
Y50357D01*
X42490D01*
Y50333D01*
X42467D01*
Y50310D01*
Y50287D01*
X42444D01*
Y50264D01*
X42420D01*
Y50240D01*
Y50217D01*
X42397D01*
Y50194D01*
Y50171D01*
X42374D01*
Y50147D01*
X42351D01*
Y50124D01*
Y50101D01*
X42327D01*
Y50078D01*
Y50054D01*
X42304D01*
Y50031D01*
X42281D01*
Y50008D01*
Y49985D01*
X42258D01*
Y49961D01*
Y49938D01*
X42234D01*
Y49915D01*
X42211D01*
Y49892D01*
Y49868D01*
X42188D01*
Y49845D01*
X42165D01*
Y49822D01*
Y49799D01*
X42141D01*
Y49775D01*
Y49752D01*
X42118D01*
Y49729D01*
X42095D01*
Y49706D01*
Y49682D01*
X42072D01*
Y49659D01*
Y49636D01*
X42048D01*
Y49613D01*
Y49589D01*
Y49566D01*
Y49543D01*
Y49520D01*
Y49496D01*
Y49473D01*
Y49450D01*
Y49427D01*
Y49403D01*
Y49380D01*
Y49357D01*
Y49334D01*
Y49310D01*
Y49287D01*
Y49264D01*
Y49241D01*
Y49218D01*
Y49194D01*
Y49171D01*
X41932D01*
Y49194D01*
Y49218D01*
Y49241D01*
Y49264D01*
Y49287D01*
Y49310D01*
Y49334D01*
Y49357D01*
Y49380D01*
Y49403D01*
Y49427D01*
Y49450D01*
Y49473D01*
Y49496D01*
Y49520D01*
Y49543D01*
Y49566D01*
Y49589D01*
Y49613D01*
Y49636D01*
Y49659D01*
X41909D01*
Y49682D01*
X41886D01*
Y49706D01*
Y49729D01*
X41862D01*
Y49752D01*
Y49775D01*
X41839D01*
Y49799D01*
X41816D01*
Y49822D01*
Y49845D01*
X41793D01*
Y49868D01*
Y49892D01*
X41769D01*
Y49915D01*
X41746D01*
Y49938D01*
Y49961D01*
X41723D01*
Y49985D01*
Y50008D01*
X41700D01*
Y50031D01*
X41676D01*
Y50054D01*
Y50078D01*
X41653D01*
Y50101D01*
X41630D01*
Y50124D01*
Y50147D01*
X41607D01*
Y50171D01*
Y50194D01*
X41583D01*
Y50217D01*
X41560D01*
Y50240D01*
Y50264D01*
X41537D01*
Y50287D01*
Y50310D01*
X41514D01*
Y50333D01*
X41490D01*
Y50357D01*
Y50380D01*
X41467D01*
Y50403D01*
Y50426D01*
X41444D01*
Y50450D01*
X41421D01*
Y50473D01*
Y50496D01*
X41397D01*
Y50519D01*
X41374D01*
Y50543D01*
X41537D01*
Y50519D01*
Y50496D01*
X41560D01*
Y50473D01*
Y50450D01*
X41583D01*
Y50426D01*
X41607D01*
Y50403D01*
Y50380D01*
X41630D01*
Y50357D01*
Y50333D01*
X41653D01*
Y50310D01*
X41676D01*
Y50287D01*
Y50264D01*
X41700D01*
Y50240D01*
X41723D01*
Y50217D01*
Y50194D01*
X41746D01*
Y50171D01*
Y50147D01*
X41769D01*
Y50124D01*
X41793D01*
Y50101D01*
Y50078D01*
X41816D01*
Y50054D01*
Y50031D01*
X41839D01*
Y50008D01*
X41862D01*
Y49985D01*
Y49961D01*
X41886D01*
Y49938D01*
Y49915D01*
X41909D01*
Y49892D01*
X41932D01*
Y49868D01*
Y49845D01*
X41955D01*
Y49822D01*
X41979D01*
Y49799D01*
Y49775D01*
X42025D01*
Y49799D01*
Y49822D01*
X42048D01*
Y49845D01*
Y49868D01*
X42072D01*
Y49892D01*
X42095D01*
Y49915D01*
Y49938D01*
X42118D01*
Y49961D01*
X42141D01*
Y49985D01*
Y50008D01*
X42165D01*
Y50031D01*
Y50054D01*
X42188D01*
Y50078D01*
X42211D01*
Y50101D01*
Y50124D01*
X42234D01*
Y50147D01*
Y50171D01*
X42258D01*
Y50194D01*
X42281D01*
Y50217D01*
Y50240D01*
X42304D01*
Y50264D01*
Y50287D01*
X42327D01*
Y50310D01*
X42351D01*
Y50333D01*
Y50357D01*
X42374D01*
Y50380D01*
Y50403D01*
X42397D01*
Y50426D01*
X42420D01*
Y50450D01*
Y50473D01*
X42444D01*
Y50496D01*
X42467D01*
Y50519D01*
Y50543D01*
X42606D01*
Y50519D01*
D02*
G37*
G36*
X39886D02*
Y50496D01*
Y50473D01*
Y50450D01*
Y50426D01*
Y50403D01*
Y50380D01*
Y50357D01*
Y50333D01*
Y50310D01*
Y50287D01*
Y50264D01*
Y50240D01*
Y50217D01*
Y50194D01*
Y50171D01*
Y50147D01*
Y50124D01*
Y50101D01*
Y50078D01*
Y50054D01*
Y50031D01*
Y50008D01*
Y49985D01*
Y49961D01*
Y49938D01*
Y49915D01*
Y49892D01*
Y49868D01*
Y49845D01*
Y49822D01*
Y49799D01*
Y49775D01*
Y49752D01*
Y49729D01*
Y49706D01*
Y49682D01*
Y49659D01*
Y49636D01*
Y49613D01*
Y49589D01*
Y49566D01*
Y49543D01*
Y49520D01*
Y49496D01*
Y49473D01*
Y49450D01*
Y49427D01*
Y49403D01*
Y49380D01*
Y49357D01*
Y49334D01*
Y49310D01*
Y49287D01*
Y49264D01*
Y49241D01*
Y49218D01*
Y49194D01*
Y49171D01*
X39770D01*
Y49194D01*
X39747D01*
Y49218D01*
X39723D01*
Y49241D01*
Y49264D01*
X39700D01*
Y49287D01*
X39677D01*
Y49310D01*
X39654D01*
Y49334D01*
X39630D01*
Y49357D01*
Y49380D01*
X39607D01*
Y49403D01*
X39584D01*
Y49427D01*
X39561D01*
Y49450D01*
X39537D01*
Y49473D01*
Y49496D01*
X39514D01*
Y49520D01*
X39491D01*
Y49543D01*
X39468D01*
Y49566D01*
Y49589D01*
X39444D01*
Y49613D01*
X39421D01*
Y49636D01*
X39398D01*
Y49659D01*
X39375D01*
Y49682D01*
Y49706D01*
X39351D01*
Y49729D01*
X39328D01*
Y49752D01*
X39305D01*
Y49775D01*
X39282D01*
Y49799D01*
Y49822D01*
X39258D01*
Y49845D01*
X39235D01*
Y49868D01*
X39212D01*
Y49892D01*
X39189D01*
Y49915D01*
Y49938D01*
X39165D01*
Y49961D01*
X39142D01*
Y49985D01*
X39119D01*
Y50008D01*
X39096D01*
Y50031D01*
Y50054D01*
X39072D01*
Y50078D01*
X39049D01*
Y50101D01*
X39026D01*
Y50124D01*
Y50147D01*
X39003D01*
Y50171D01*
X38980D01*
Y50194D01*
X38956D01*
Y50217D01*
X38933D01*
Y50240D01*
Y50264D01*
X38910D01*
Y50287D01*
X38886D01*
Y50264D01*
Y50240D01*
Y50217D01*
Y50194D01*
Y50171D01*
Y50147D01*
Y50124D01*
Y50101D01*
Y50078D01*
Y50054D01*
Y50031D01*
Y50008D01*
Y49985D01*
Y49961D01*
Y49938D01*
Y49915D01*
Y49892D01*
Y49868D01*
Y49845D01*
Y49822D01*
Y49799D01*
Y49775D01*
Y49752D01*
Y49729D01*
Y49706D01*
Y49682D01*
Y49659D01*
Y49636D01*
Y49613D01*
Y49589D01*
Y49566D01*
Y49543D01*
Y49520D01*
Y49496D01*
Y49473D01*
Y49450D01*
Y49427D01*
Y49403D01*
Y49380D01*
Y49357D01*
Y49334D01*
Y49310D01*
Y49287D01*
Y49264D01*
Y49241D01*
Y49218D01*
Y49194D01*
Y49171D01*
X38747D01*
Y49194D01*
Y49218D01*
Y49241D01*
Y49264D01*
Y49287D01*
Y49310D01*
Y49334D01*
Y49357D01*
Y49380D01*
Y49403D01*
Y49427D01*
Y49450D01*
Y49473D01*
Y49496D01*
Y49520D01*
Y49543D01*
Y49566D01*
Y49589D01*
Y49613D01*
Y49636D01*
Y49659D01*
Y49682D01*
Y49706D01*
Y49729D01*
Y49752D01*
Y49775D01*
Y49799D01*
Y49822D01*
Y49845D01*
Y49868D01*
Y49892D01*
Y49915D01*
Y49938D01*
Y49961D01*
Y49985D01*
Y50008D01*
Y50031D01*
Y50054D01*
Y50078D01*
Y50101D01*
Y50124D01*
Y50147D01*
Y50171D01*
Y50194D01*
Y50217D01*
Y50240D01*
Y50264D01*
Y50287D01*
Y50310D01*
Y50333D01*
Y50357D01*
Y50380D01*
Y50403D01*
Y50426D01*
Y50450D01*
Y50473D01*
Y50496D01*
Y50519D01*
Y50543D01*
X38863D01*
Y50519D01*
X38886D01*
Y50496D01*
X38910D01*
Y50473D01*
X38933D01*
Y50450D01*
Y50426D01*
X38956D01*
Y50403D01*
X38980D01*
Y50380D01*
X39003D01*
Y50357D01*
X39026D01*
Y50333D01*
Y50310D01*
X39049D01*
Y50287D01*
X39072D01*
Y50264D01*
X39096D01*
Y50240D01*
X39119D01*
Y50217D01*
Y50194D01*
X39142D01*
Y50171D01*
X39165D01*
Y50147D01*
X39189D01*
Y50124D01*
X39212D01*
Y50101D01*
Y50078D01*
X39235D01*
Y50054D01*
X39258D01*
Y50031D01*
X39282D01*
Y50008D01*
X39305D01*
Y49985D01*
Y49961D01*
X39328D01*
Y49938D01*
X39351D01*
Y49915D01*
X39375D01*
Y49892D01*
Y49868D01*
X39398D01*
Y49845D01*
X39421D01*
Y49822D01*
X39444D01*
Y49799D01*
X39468D01*
Y49775D01*
Y49752D01*
X39491D01*
Y49729D01*
X39514D01*
Y49706D01*
X39537D01*
Y49682D01*
X39561D01*
Y49659D01*
Y49636D01*
X39584D01*
Y49613D01*
X39607D01*
Y49589D01*
X39630D01*
Y49566D01*
X39654D01*
Y49543D01*
Y49520D01*
X39677D01*
Y49496D01*
X39700D01*
Y49473D01*
X39723D01*
Y49450D01*
X39770D01*
Y49473D01*
Y49496D01*
Y49520D01*
Y49543D01*
Y49566D01*
Y49589D01*
Y49613D01*
Y49636D01*
Y49659D01*
Y49682D01*
Y49706D01*
Y49729D01*
Y49752D01*
Y49775D01*
Y49799D01*
Y49822D01*
Y49845D01*
Y49868D01*
Y49892D01*
Y49915D01*
Y49938D01*
Y49961D01*
Y49985D01*
Y50008D01*
Y50031D01*
Y50054D01*
Y50078D01*
Y50101D01*
Y50124D01*
Y50147D01*
Y50171D01*
Y50194D01*
Y50217D01*
Y50240D01*
Y50264D01*
Y50287D01*
Y50310D01*
Y50333D01*
Y50357D01*
Y50380D01*
Y50403D01*
Y50426D01*
Y50450D01*
Y50473D01*
Y50496D01*
Y50519D01*
Y50543D01*
X39886D01*
Y50519D01*
D02*
G37*
G36*
X37701D02*
Y50496D01*
Y50473D01*
Y50450D01*
Y50426D01*
Y50403D01*
Y50380D01*
Y50357D01*
Y50333D01*
Y50310D01*
Y50287D01*
Y50264D01*
Y50240D01*
Y50217D01*
Y50194D01*
Y50171D01*
Y50147D01*
Y50124D01*
Y50101D01*
Y50078D01*
Y50054D01*
Y50031D01*
Y50008D01*
Y49985D01*
Y49961D01*
Y49938D01*
Y49915D01*
Y49892D01*
Y49868D01*
Y49845D01*
Y49822D01*
Y49799D01*
Y49775D01*
Y49752D01*
Y49729D01*
Y49706D01*
Y49682D01*
Y49659D01*
Y49636D01*
Y49613D01*
Y49589D01*
Y49566D01*
Y49543D01*
Y49520D01*
Y49496D01*
Y49473D01*
Y49450D01*
Y49427D01*
Y49403D01*
Y49380D01*
Y49357D01*
Y49334D01*
Y49310D01*
Y49287D01*
Y49264D01*
Y49241D01*
Y49218D01*
Y49194D01*
Y49171D01*
X37584D01*
Y49194D01*
X37561D01*
Y49218D01*
X37538D01*
Y49241D01*
X37515D01*
Y49264D01*
X37492D01*
Y49287D01*
Y49310D01*
X37468D01*
Y49334D01*
X37445D01*
Y49357D01*
X37422D01*
Y49380D01*
X37398D01*
Y49403D01*
Y49427D01*
X37375D01*
Y49450D01*
X37352D01*
Y49473D01*
X37329D01*
Y49496D01*
X37306D01*
Y49520D01*
Y49543D01*
X37282D01*
Y49566D01*
X37259D01*
Y49589D01*
X37236D01*
Y49613D01*
X37212D01*
Y49636D01*
Y49659D01*
X37189D01*
Y49682D01*
X37166D01*
Y49706D01*
X37143D01*
Y49729D01*
X37119D01*
Y49752D01*
Y49775D01*
X37096D01*
Y49799D01*
X37073D01*
Y49822D01*
X37050D01*
Y49845D01*
Y49868D01*
X37027D01*
Y49892D01*
X37003D01*
Y49915D01*
X36980D01*
Y49938D01*
X36957D01*
Y49961D01*
Y49985D01*
X36933D01*
Y50008D01*
X36910D01*
Y50031D01*
X36887D01*
Y50054D01*
X36864D01*
Y50078D01*
Y50101D01*
X36841D01*
Y50124D01*
X36817D01*
Y50147D01*
X36794D01*
Y50171D01*
X36771D01*
Y50194D01*
Y50217D01*
X36748D01*
Y50240D01*
X36724D01*
Y50264D01*
X36678D01*
Y50240D01*
Y50217D01*
Y50194D01*
Y50171D01*
Y50147D01*
Y50124D01*
Y50101D01*
Y50078D01*
Y50054D01*
Y50031D01*
Y50008D01*
Y49985D01*
Y49961D01*
Y49938D01*
Y49915D01*
Y49892D01*
Y49868D01*
Y49845D01*
Y49822D01*
Y49799D01*
Y49775D01*
Y49752D01*
Y49729D01*
Y49706D01*
Y49682D01*
Y49659D01*
Y49636D01*
Y49613D01*
Y49589D01*
Y49566D01*
Y49543D01*
Y49520D01*
Y49496D01*
Y49473D01*
Y49450D01*
Y49427D01*
Y49403D01*
Y49380D01*
Y49357D01*
Y49334D01*
Y49310D01*
Y49287D01*
Y49264D01*
Y49241D01*
Y49218D01*
Y49194D01*
Y49171D01*
X36562D01*
Y49194D01*
Y49218D01*
Y49241D01*
Y49264D01*
Y49287D01*
Y49310D01*
Y49334D01*
Y49357D01*
Y49380D01*
Y49403D01*
Y49427D01*
Y49450D01*
Y49473D01*
Y49496D01*
Y49520D01*
Y49543D01*
Y49566D01*
Y49589D01*
Y49613D01*
Y49636D01*
Y49659D01*
Y49682D01*
Y49706D01*
Y49729D01*
Y49752D01*
Y49775D01*
Y49799D01*
Y49822D01*
Y49845D01*
Y49868D01*
Y49892D01*
Y49915D01*
Y49938D01*
Y49961D01*
Y49985D01*
Y50008D01*
Y50031D01*
Y50054D01*
Y50078D01*
Y50101D01*
Y50124D01*
Y50147D01*
Y50171D01*
Y50194D01*
Y50217D01*
Y50240D01*
Y50264D01*
Y50287D01*
Y50310D01*
Y50333D01*
Y50357D01*
Y50380D01*
Y50403D01*
Y50426D01*
Y50450D01*
Y50473D01*
Y50496D01*
Y50519D01*
Y50543D01*
X36678D01*
Y50519D01*
X36701D01*
Y50496D01*
Y50473D01*
X36724D01*
Y50450D01*
X36748D01*
Y50426D01*
X36771D01*
Y50403D01*
X36794D01*
Y50380D01*
Y50357D01*
X36817D01*
Y50333D01*
X36841D01*
Y50310D01*
X36864D01*
Y50287D01*
Y50264D01*
X36887D01*
Y50240D01*
X36910D01*
Y50217D01*
X36933D01*
Y50194D01*
X36957D01*
Y50171D01*
Y50147D01*
X36980D01*
Y50124D01*
X37003D01*
Y50101D01*
X37027D01*
Y50078D01*
X37050D01*
Y50054D01*
Y50031D01*
X37073D01*
Y50008D01*
X37096D01*
Y49985D01*
X37119D01*
Y49961D01*
X37143D01*
Y49938D01*
Y49915D01*
X37166D01*
Y49892D01*
X37189D01*
Y49868D01*
X37212D01*
Y49845D01*
X37236D01*
Y49822D01*
Y49799D01*
X37259D01*
Y49775D01*
X37282D01*
Y49752D01*
X37306D01*
Y49729D01*
X37329D01*
Y49706D01*
Y49682D01*
X37352D01*
Y49659D01*
X37375D01*
Y49636D01*
X37398D01*
Y49613D01*
X37422D01*
Y49589D01*
Y49566D01*
X37445D01*
Y49543D01*
X37468D01*
Y49520D01*
X37492D01*
Y49496D01*
Y49473D01*
X37515D01*
Y49450D01*
X37538D01*
Y49427D01*
X37561D01*
Y49450D01*
Y49473D01*
Y49496D01*
Y49520D01*
Y49543D01*
Y49566D01*
Y49589D01*
Y49613D01*
Y49636D01*
Y49659D01*
Y49682D01*
Y49706D01*
Y49729D01*
Y49752D01*
Y49775D01*
Y49799D01*
Y49822D01*
Y49845D01*
Y49868D01*
Y49892D01*
Y49915D01*
Y49938D01*
Y49961D01*
Y49985D01*
Y50008D01*
Y50031D01*
Y50054D01*
Y50078D01*
Y50101D01*
Y50124D01*
Y50147D01*
Y50171D01*
Y50194D01*
Y50217D01*
Y50240D01*
Y50264D01*
Y50287D01*
Y50310D01*
Y50333D01*
Y50357D01*
Y50380D01*
Y50403D01*
Y50426D01*
Y50450D01*
Y50473D01*
Y50496D01*
Y50519D01*
Y50543D01*
X37701D01*
Y50519D01*
D02*
G37*
G36*
X41281D02*
Y50496D01*
Y50473D01*
Y50450D01*
Y50426D01*
X40491D01*
Y50403D01*
Y50380D01*
Y50357D01*
Y50333D01*
Y50310D01*
Y50287D01*
Y50264D01*
Y50240D01*
Y50217D01*
Y50194D01*
Y50171D01*
Y50147D01*
Y50124D01*
Y50101D01*
Y50078D01*
Y50054D01*
Y50031D01*
Y50008D01*
Y49985D01*
Y49961D01*
Y49938D01*
Y49915D01*
Y49892D01*
Y49868D01*
X41188D01*
Y49845D01*
Y49822D01*
Y49799D01*
Y49775D01*
Y49752D01*
X40491D01*
Y49729D01*
Y49706D01*
Y49682D01*
Y49659D01*
Y49636D01*
Y49613D01*
Y49589D01*
Y49566D01*
Y49543D01*
Y49520D01*
Y49496D01*
Y49473D01*
Y49450D01*
Y49427D01*
Y49403D01*
Y49380D01*
Y49357D01*
Y49334D01*
Y49310D01*
Y49287D01*
Y49264D01*
Y49241D01*
Y49218D01*
Y49194D01*
Y49171D01*
X40351D01*
Y49194D01*
Y49218D01*
Y49241D01*
Y49264D01*
Y49287D01*
Y49310D01*
Y49334D01*
Y49357D01*
Y49380D01*
Y49403D01*
Y49427D01*
Y49450D01*
Y49473D01*
Y49496D01*
Y49520D01*
Y49543D01*
Y49566D01*
Y49589D01*
Y49613D01*
Y49636D01*
Y49659D01*
Y49682D01*
Y49706D01*
Y49729D01*
Y49752D01*
Y49775D01*
Y49799D01*
Y49822D01*
Y49845D01*
Y49868D01*
Y49892D01*
Y49915D01*
Y49938D01*
Y49961D01*
Y49985D01*
Y50008D01*
Y50031D01*
Y50054D01*
Y50078D01*
Y50101D01*
Y50124D01*
Y50147D01*
Y50171D01*
Y50194D01*
Y50217D01*
Y50240D01*
Y50264D01*
Y50287D01*
Y50310D01*
Y50333D01*
Y50357D01*
Y50380D01*
Y50403D01*
Y50426D01*
Y50450D01*
Y50473D01*
Y50496D01*
Y50519D01*
Y50543D01*
X41281D01*
Y50519D01*
D02*
G37*
G36*
X38282D02*
Y50496D01*
Y50473D01*
Y50450D01*
Y50426D01*
Y50403D01*
Y50380D01*
Y50357D01*
Y50333D01*
Y50310D01*
Y50287D01*
Y50264D01*
Y50240D01*
Y50217D01*
Y50194D01*
Y50171D01*
Y50147D01*
Y50124D01*
Y50101D01*
Y50078D01*
Y50054D01*
Y50031D01*
Y50008D01*
Y49985D01*
Y49961D01*
Y49938D01*
Y49915D01*
Y49892D01*
Y49868D01*
Y49845D01*
Y49822D01*
Y49799D01*
Y49775D01*
Y49752D01*
Y49729D01*
Y49706D01*
Y49682D01*
Y49659D01*
Y49636D01*
Y49613D01*
Y49589D01*
Y49566D01*
Y49543D01*
Y49520D01*
Y49496D01*
Y49473D01*
Y49450D01*
Y49427D01*
Y49403D01*
Y49380D01*
Y49357D01*
Y49334D01*
Y49310D01*
Y49287D01*
Y49264D01*
Y49241D01*
Y49218D01*
Y49194D01*
Y49171D01*
X38166D01*
Y49194D01*
Y49218D01*
Y49241D01*
Y49264D01*
Y49287D01*
Y49310D01*
Y49334D01*
Y49357D01*
Y49380D01*
Y49403D01*
Y49427D01*
Y49450D01*
Y49473D01*
Y49496D01*
Y49520D01*
Y49543D01*
Y49566D01*
Y49589D01*
Y49613D01*
Y49636D01*
Y49659D01*
Y49682D01*
Y49706D01*
Y49729D01*
Y49752D01*
Y49775D01*
Y49799D01*
Y49822D01*
Y49845D01*
Y49868D01*
Y49892D01*
Y49915D01*
Y49938D01*
Y49961D01*
Y49985D01*
Y50008D01*
Y50031D01*
Y50054D01*
Y50078D01*
Y50101D01*
Y50124D01*
Y50147D01*
Y50171D01*
Y50194D01*
Y50217D01*
Y50240D01*
Y50264D01*
Y50287D01*
Y50310D01*
Y50333D01*
Y50357D01*
Y50380D01*
Y50403D01*
Y50426D01*
Y50450D01*
Y50473D01*
Y50496D01*
Y50519D01*
Y50543D01*
X38282D01*
Y50519D01*
D02*
G37*
G36*
X36166D02*
Y50496D01*
Y50473D01*
Y50450D01*
Y50426D01*
X35376D01*
Y50403D01*
Y50380D01*
Y50357D01*
Y50333D01*
Y50310D01*
Y50287D01*
Y50264D01*
Y50240D01*
Y50217D01*
Y50194D01*
Y50171D01*
Y50147D01*
Y50124D01*
Y50101D01*
Y50078D01*
Y50054D01*
Y50031D01*
Y50008D01*
Y49985D01*
Y49961D01*
Y49938D01*
Y49915D01*
X36073D01*
Y49892D01*
Y49868D01*
Y49845D01*
Y49822D01*
X35399D01*
Y49799D01*
X35376D01*
Y49775D01*
Y49752D01*
Y49729D01*
Y49706D01*
Y49682D01*
Y49659D01*
Y49636D01*
Y49613D01*
Y49589D01*
Y49566D01*
Y49543D01*
Y49520D01*
Y49496D01*
Y49473D01*
Y49450D01*
Y49427D01*
Y49403D01*
Y49380D01*
Y49357D01*
Y49334D01*
Y49310D01*
Y49287D01*
X36190D01*
Y49264D01*
Y49241D01*
Y49218D01*
Y49194D01*
Y49171D01*
X35236D01*
Y49194D01*
Y49218D01*
Y49241D01*
Y49264D01*
Y49287D01*
Y49310D01*
Y49334D01*
Y49357D01*
Y49380D01*
Y49403D01*
Y49427D01*
Y49450D01*
Y49473D01*
Y49496D01*
Y49520D01*
Y49543D01*
Y49566D01*
Y49589D01*
Y49613D01*
Y49636D01*
Y49659D01*
Y49682D01*
Y49706D01*
Y49729D01*
Y49752D01*
Y49775D01*
Y49799D01*
Y49822D01*
Y49845D01*
Y49868D01*
Y49892D01*
Y49915D01*
Y49938D01*
Y49961D01*
Y49985D01*
Y50008D01*
Y50031D01*
Y50054D01*
Y50078D01*
Y50101D01*
Y50124D01*
Y50147D01*
Y50171D01*
Y50194D01*
Y50217D01*
Y50240D01*
Y50264D01*
Y50287D01*
Y50310D01*
Y50333D01*
Y50357D01*
Y50380D01*
Y50403D01*
Y50426D01*
Y50450D01*
Y50473D01*
Y50496D01*
Y50519D01*
Y50543D01*
X36166D01*
Y50519D01*
D02*
G37*
%LPC*%
G36*
X43118Y120300D02*
X42746D01*
Y120277D01*
X42513D01*
Y120254D01*
X42374D01*
Y120230D01*
X42257D01*
Y120207D01*
X42164D01*
Y120184D01*
X42072D01*
Y120161D01*
X42002D01*
Y120138D01*
X41909D01*
Y120114D01*
X41862D01*
Y120091D01*
X41793D01*
Y120068D01*
X41723D01*
Y120045D01*
X41676D01*
Y120021D01*
X41630D01*
Y119998D01*
X41560D01*
Y119975D01*
X41513D01*
Y119951D01*
X41467D01*
Y119928D01*
X41421D01*
Y119905D01*
X41374D01*
Y119882D01*
X41328D01*
Y119859D01*
X41281D01*
Y119835D01*
X41234D01*
Y119812D01*
X41211D01*
Y119789D01*
X41165D01*
Y119765D01*
X41118D01*
Y119742D01*
X41095D01*
Y119719D01*
X41048D01*
Y119696D01*
X41002D01*
Y119673D01*
X40979D01*
Y119649D01*
X40932D01*
Y119626D01*
X40909D01*
Y119603D01*
X40863D01*
Y119580D01*
X40839D01*
Y119556D01*
X40793D01*
Y119533D01*
X40769D01*
Y119510D01*
X40723D01*
Y119486D01*
X40700D01*
Y119463D01*
X40653D01*
Y119440D01*
X40630D01*
Y119417D01*
X40607D01*
Y119394D01*
X40560D01*
Y119370D01*
X40537D01*
Y119347D01*
X40514D01*
Y119324D01*
X40467D01*
Y119300D01*
X40444D01*
Y119277D01*
X40421D01*
Y119254D01*
X40398D01*
Y119231D01*
X40351D01*
Y119208D01*
X40328D01*
Y119184D01*
X40304D01*
Y119161D01*
X40281D01*
Y119138D01*
X40235D01*
Y119115D01*
X40211D01*
Y119091D01*
X40188D01*
Y119068D01*
X40165D01*
Y119045D01*
X40142D01*
Y119022D01*
X40119D01*
Y118998D01*
X40072D01*
Y118975D01*
X40049D01*
Y118952D01*
X40025D01*
Y118929D01*
X40002D01*
Y118905D01*
X39979D01*
Y118882D01*
X39956D01*
Y118859D01*
X39933D01*
Y118836D01*
X39909D01*
Y118812D01*
X39863D01*
Y118789D01*
X39840D01*
Y118766D01*
X39816D01*
Y118743D01*
X39793D01*
Y118719D01*
X39770D01*
Y118696D01*
X39747D01*
Y118673D01*
X39723D01*
Y118650D01*
X39700D01*
Y118626D01*
X39677D01*
Y118603D01*
X39654D01*
Y118580D01*
X39630D01*
Y118557D01*
X39607D01*
Y118533D01*
X39584D01*
Y118510D01*
X39561D01*
Y118487D01*
X39537D01*
Y118464D01*
X39491D01*
Y118440D01*
X39468D01*
Y118417D01*
X39444D01*
Y118394D01*
X39421D01*
Y118371D01*
X39398D01*
Y118347D01*
X39375D01*
Y118324D01*
X39351D01*
Y118301D01*
X39328D01*
Y118278D01*
X39305D01*
Y118254D01*
X39282D01*
Y118231D01*
X39258D01*
Y118208D01*
X39235D01*
Y118185D01*
X39212D01*
Y118161D01*
X39189D01*
Y118138D01*
X39165D01*
Y118115D01*
X39142D01*
Y118092D01*
X39119D01*
Y118068D01*
X39096D01*
Y118045D01*
X39072D01*
Y118022D01*
X39049D01*
Y117999D01*
X39026D01*
Y117975D01*
X39003D01*
Y117952D01*
X38979D01*
Y117929D01*
X38956D01*
Y117906D01*
X38933D01*
Y117882D01*
X38910D01*
Y117859D01*
X38886D01*
Y117836D01*
X38863D01*
Y117813D01*
X38840D01*
Y117789D01*
X38817D01*
Y117766D01*
X38793D01*
Y117743D01*
X38770D01*
Y117720D01*
X38747D01*
Y117696D01*
X38770D01*
Y117673D01*
X38793D01*
Y117650D01*
X38817D01*
Y117627D01*
X38840D01*
Y117603D01*
X38863D01*
Y117580D01*
X38886D01*
Y117557D01*
X38910D01*
Y117534D01*
X38933D01*
Y117510D01*
X38956D01*
Y117487D01*
X38979D01*
Y117464D01*
X39003D01*
Y117441D01*
X39026D01*
Y117417D01*
X39049D01*
Y117394D01*
X39072D01*
Y117371D01*
X39096D01*
Y117348D01*
X39119D01*
Y117324D01*
X39142D01*
Y117301D01*
X39165D01*
Y117278D01*
X39189D01*
Y117255D01*
X39212D01*
Y117231D01*
X39235D01*
Y117208D01*
X39258D01*
Y117185D01*
X39305D01*
Y117162D01*
X39328D01*
Y117138D01*
X39351D01*
Y117115D01*
X39375D01*
Y117092D01*
X39398D01*
Y117069D01*
X39421D01*
Y117045D01*
X39444D01*
Y117022D01*
X39468D01*
Y116999D01*
X39491D01*
Y116976D01*
X39514D01*
Y116952D01*
X39537D01*
Y116929D01*
X39561D01*
Y116906D01*
X39584D01*
Y116883D01*
X39607D01*
Y116859D01*
X39630D01*
Y116836D01*
X39654D01*
Y116813D01*
X39677D01*
Y116790D01*
X39700D01*
Y116766D01*
X39723D01*
Y116743D01*
X39770D01*
Y116720D01*
X39793D01*
Y116697D01*
X39816D01*
Y116673D01*
X39840D01*
Y116650D01*
X39863D01*
Y116627D01*
X39886D01*
Y116604D01*
X39933D01*
Y116580D01*
X39956D01*
Y116557D01*
X39979D01*
Y116534D01*
X40002D01*
Y116511D01*
X40025D01*
Y116487D01*
X40072D01*
Y116464D01*
X40095D01*
Y116441D01*
X40119D01*
Y116418D01*
X40142D01*
Y116394D01*
X40188D01*
Y116371D01*
X40211D01*
Y116348D01*
X40235D01*
Y116325D01*
X40258D01*
Y116301D01*
X40304D01*
Y116278D01*
X40328D01*
Y116255D01*
X40351D01*
Y116232D01*
X40398D01*
Y116208D01*
X40421D01*
Y116185D01*
X40444D01*
Y116162D01*
X40490D01*
Y116139D01*
X40514D01*
Y116115D01*
X40537D01*
Y116092D01*
X40584D01*
Y116069D01*
X40607D01*
Y116046D01*
X40630D01*
Y116022D01*
X40677D01*
Y115999D01*
X40700D01*
Y115976D01*
X40746D01*
Y115953D01*
X40769D01*
Y115929D01*
X40793D01*
Y115906D01*
X40839D01*
Y115883D01*
X40863D01*
Y115860D01*
X40909D01*
Y115836D01*
X40932D01*
Y115813D01*
X40979D01*
Y115790D01*
X41002D01*
Y115767D01*
X41048D01*
Y115743D01*
X41095D01*
Y115720D01*
X41118D01*
Y115697D01*
X41165D01*
Y115674D01*
X41211D01*
Y115650D01*
X41234D01*
Y115627D01*
X41281D01*
Y115604D01*
X41328D01*
Y115581D01*
X41374D01*
Y115557D01*
X41397D01*
Y115534D01*
X41444D01*
Y115511D01*
X41490D01*
Y115488D01*
X41537D01*
Y115464D01*
X41583D01*
Y115441D01*
X41630D01*
Y115418D01*
X41676D01*
Y115395D01*
X41746D01*
Y115372D01*
X41793D01*
Y115348D01*
X41839D01*
Y115325D01*
X41909D01*
Y115302D01*
X41955D01*
Y115278D01*
X42025D01*
Y115255D01*
X42095D01*
Y115232D01*
X42164D01*
Y115209D01*
X42234D01*
Y115185D01*
X42327D01*
Y115162D01*
X42420D01*
Y115139D01*
X42537D01*
Y115116D01*
X42676D01*
Y115093D01*
X43304D01*
Y115116D01*
X43466D01*
Y115139D01*
X43559D01*
Y115162D01*
X43652D01*
Y115185D01*
X43722D01*
Y115209D01*
X43792D01*
Y115232D01*
X43862D01*
Y115255D01*
X43908D01*
Y115278D01*
X43978D01*
Y115302D01*
X44024D01*
Y115325D01*
X44071D01*
Y115348D01*
X44117D01*
Y115372D01*
X44164D01*
Y115395D01*
X44187D01*
Y115418D01*
X44234D01*
Y115441D01*
X44280D01*
Y115464D01*
X44327D01*
Y115488D01*
X44350D01*
Y115511D01*
X44396D01*
Y115534D01*
X44420D01*
Y115557D01*
X44443D01*
Y115581D01*
X44489D01*
Y115604D01*
X44513D01*
Y115627D01*
X44536D01*
Y115650D01*
X44582D01*
Y115674D01*
X44606D01*
Y115697D01*
X44629D01*
Y115720D01*
X44652D01*
Y115743D01*
X44675D01*
Y115767D01*
X44699D01*
Y115790D01*
X44745D01*
Y115813D01*
X44768D01*
Y115836D01*
X44792D01*
Y115860D01*
X44815D01*
Y115883D01*
Y115906D01*
X44838D01*
Y115929D01*
X44861D01*
Y115953D01*
X44885D01*
Y115976D01*
X44908D01*
Y115999D01*
X44931D01*
Y116022D01*
X44954D01*
Y116046D01*
X44978D01*
Y116069D01*
Y116092D01*
X45001D01*
Y116115D01*
X45024D01*
Y116139D01*
X45047D01*
Y116162D01*
Y116185D01*
X45071D01*
Y116208D01*
X45094D01*
Y116232D01*
X45117D01*
Y116255D01*
Y116278D01*
X45140D01*
Y116301D01*
Y116325D01*
X45164D01*
Y116348D01*
X45187D01*
Y116371D01*
Y116394D01*
X45210D01*
Y116418D01*
Y116441D01*
X45233D01*
Y116464D01*
X45257D01*
Y116487D01*
Y116511D01*
X45280D01*
Y116534D01*
Y116557D01*
X45303D01*
Y116580D01*
Y116604D01*
X45326D01*
Y116627D01*
Y116650D01*
Y116673D01*
X45350D01*
Y116697D01*
Y116720D01*
X45373D01*
Y116743D01*
Y116766D01*
Y116790D01*
X45396D01*
Y116813D01*
Y116836D01*
X45419D01*
Y116859D01*
Y116883D01*
Y116906D01*
X45443D01*
Y116929D01*
Y116952D01*
Y116976D01*
Y116999D01*
X45466D01*
Y117022D01*
Y117045D01*
Y117069D01*
Y117092D01*
X45489D01*
Y117115D01*
Y117138D01*
Y117162D01*
Y117185D01*
X45512D01*
Y117208D01*
Y117231D01*
Y117255D01*
Y117278D01*
Y117301D01*
Y117324D01*
X45536D01*
Y117348D01*
Y117371D01*
Y117394D01*
Y117417D01*
Y117441D01*
Y117464D01*
Y117487D01*
Y117510D01*
Y117534D01*
Y117557D01*
X45559D01*
Y117580D01*
Y117603D01*
Y117627D01*
Y117650D01*
Y117673D01*
Y117696D01*
Y117720D01*
Y117743D01*
Y117766D01*
Y117789D01*
Y117813D01*
Y117836D01*
Y117859D01*
Y117882D01*
X45536D01*
Y117906D01*
Y117929D01*
Y117952D01*
Y117975D01*
Y117999D01*
Y118022D01*
Y118045D01*
Y118068D01*
Y118092D01*
Y118115D01*
X45512D01*
Y118138D01*
Y118161D01*
Y118185D01*
Y118208D01*
Y118231D01*
Y118254D01*
X45489D01*
Y118278D01*
Y118301D01*
Y118324D01*
Y118347D01*
X45466D01*
Y118371D01*
Y118394D01*
Y118417D01*
Y118440D01*
X45443D01*
Y118464D01*
Y118487D01*
Y118510D01*
X45419D01*
Y118533D01*
Y118557D01*
Y118580D01*
X45396D01*
Y118603D01*
Y118626D01*
Y118650D01*
X45373D01*
Y118673D01*
Y118696D01*
Y118719D01*
X45350D01*
Y118743D01*
Y118766D01*
X45326D01*
Y118789D01*
Y118812D01*
X45303D01*
Y118836D01*
Y118859D01*
X45280D01*
Y118882D01*
Y118905D01*
X45257D01*
Y118929D01*
Y118952D01*
X45233D01*
Y118975D01*
Y118998D01*
X45210D01*
Y119022D01*
Y119045D01*
X45187D01*
Y119068D01*
X45164D01*
Y119091D01*
Y119115D01*
X45140D01*
Y119138D01*
Y119161D01*
X45117D01*
Y119184D01*
X45094D01*
Y119208D01*
Y119231D01*
X45071D01*
Y119254D01*
X45047D01*
Y119277D01*
X45024D01*
Y119300D01*
Y119324D01*
X45001D01*
Y119347D01*
X44978D01*
Y119370D01*
X44954D01*
Y119394D01*
X44931D01*
Y119417D01*
Y119440D01*
X44908D01*
Y119463D01*
X44885D01*
Y119486D01*
X44861D01*
Y119510D01*
X44838D01*
Y119533D01*
X44815D01*
Y119556D01*
X44792D01*
Y119580D01*
X44768D01*
Y119603D01*
X44745D01*
Y119626D01*
X44722D01*
Y119649D01*
X44699D01*
Y119673D01*
X44675D01*
Y119696D01*
X44629D01*
Y119719D01*
X44606D01*
Y119742D01*
X44582D01*
Y119765D01*
X44559D01*
Y119789D01*
X44513D01*
Y119812D01*
X44489D01*
Y119835D01*
X44443D01*
Y119859D01*
X44420D01*
Y119882D01*
X44373D01*
Y119905D01*
X44350D01*
Y119928D01*
X44303D01*
Y119951D01*
X44257D01*
Y119975D01*
X44234D01*
Y119998D01*
X44187D01*
Y120021D01*
X44141D01*
Y120045D01*
X44094D01*
Y120068D01*
X44024D01*
Y120091D01*
X43978D01*
Y120114D01*
X43931D01*
Y120138D01*
X43862D01*
Y120161D01*
X43792D01*
Y120184D01*
X43699D01*
Y120207D01*
X43606D01*
Y120230D01*
X43513D01*
Y120254D01*
X43373D01*
Y120277D01*
X43118D01*
Y120300D01*
D02*
G37*
G36*
X90916Y68772D02*
X90848D01*
Y68705D01*
X90781D01*
Y68637D01*
X90713D01*
Y68570D01*
X90646D01*
Y68502D01*
X90578D01*
Y68435D01*
X90511D01*
Y68367D01*
X90443D01*
Y68300D01*
X90376D01*
Y68232D01*
X90308D01*
Y68165D01*
X90241D01*
Y68097D01*
X90173D01*
Y68030D01*
X90106D01*
Y67962D01*
X90038D01*
Y67895D01*
X89971D01*
Y67827D01*
X89903D01*
Y67760D01*
X89836D01*
Y67692D01*
X89768D01*
Y67625D01*
X89701D01*
Y67557D01*
X89633D01*
Y67490D01*
X89566D01*
Y67422D01*
X89498D01*
Y67355D01*
X89431D01*
Y67287D01*
X89363D01*
Y67152D01*
X89296D01*
Y67085D01*
X89228D01*
Y67017D01*
X89161D01*
Y66950D01*
X89093D01*
Y66882D01*
X89026D01*
Y66815D01*
X88958D01*
Y66747D01*
X88891D01*
Y66680D01*
X88823D01*
Y66612D01*
X88756D01*
Y66545D01*
X88688D01*
Y66477D01*
X88621D01*
Y66410D01*
X88553D01*
Y66342D01*
X88486D01*
Y66275D01*
X88418D01*
Y66207D01*
X88351D01*
Y66140D01*
X88283D01*
Y66072D01*
X88216D01*
Y66005D01*
X88148D01*
Y65937D01*
X88081D01*
Y65802D01*
X88013D01*
Y65735D01*
X87945D01*
Y65667D01*
X87878D01*
Y65600D01*
X87810D01*
Y65532D01*
X87743D01*
Y65465D01*
X87675D01*
Y65329D01*
X87608D01*
Y65262D01*
X87541D01*
Y65194D01*
X87473D01*
Y65127D01*
X87406D01*
Y65060D01*
X87338D01*
Y64925D01*
X87270D01*
Y64857D01*
X87203D01*
Y64789D01*
X87135D01*
Y64722D01*
X87068D01*
Y64587D01*
X87001D01*
Y64520D01*
X86933D01*
Y64452D01*
X86865D01*
Y64385D01*
X86798D01*
Y64249D01*
X86730D01*
Y64182D01*
X86663D01*
Y64114D01*
X86595D01*
Y63979D01*
X86528D01*
Y63912D01*
X86460D01*
Y63844D01*
X86393D01*
Y63709D01*
X86325D01*
Y63642D01*
X86258D01*
Y63574D01*
X86190D01*
Y63439D01*
X86123D01*
Y63372D01*
X86055D01*
Y63304D01*
X85988D01*
Y63169D01*
X85920D01*
Y63102D01*
X85853D01*
Y62967D01*
X85785D01*
Y62899D01*
X85718D01*
Y62832D01*
X85650D01*
Y62697D01*
X85583D01*
Y62629D01*
X85515D01*
Y62494D01*
X85448D01*
Y62427D01*
X85380D01*
Y62292D01*
X85313D01*
Y62224D01*
X85245D01*
Y62089D01*
X85178D01*
Y61954D01*
X85110D01*
Y61887D01*
X85043D01*
Y61752D01*
X84975D01*
Y61617D01*
X84908D01*
Y61549D01*
X84840D01*
Y61414D01*
X84773D01*
Y61279D01*
X84705D01*
Y61144D01*
X84638D01*
Y61077D01*
X84570D01*
Y60942D01*
X84503D01*
Y60807D01*
X84435D01*
Y60672D01*
X84368D01*
Y60537D01*
X84300D01*
Y60402D01*
X84233D01*
Y60267D01*
X84165D01*
Y60064D01*
X84098D01*
Y59929D01*
X84030D01*
Y59794D01*
X83963D01*
Y59592D01*
X83895D01*
Y59457D01*
X83828D01*
Y59254D01*
X83760D01*
Y59052D01*
X83693D01*
Y58849D01*
X83625D01*
Y58647D01*
X83558D01*
Y58376D01*
X83490D01*
Y58106D01*
X83423D01*
Y57769D01*
X83355D01*
Y57364D01*
X83288D01*
Y55541D01*
X83355D01*
Y55069D01*
X83423D01*
Y54799D01*
X83490D01*
Y54529D01*
X83558D01*
Y54326D01*
X83625D01*
Y54124D01*
X83693D01*
Y53921D01*
X83760D01*
Y53786D01*
X83828D01*
Y53584D01*
X83895D01*
Y53449D01*
X83963D01*
Y53313D01*
X84030D01*
Y53179D01*
X84098D01*
Y53044D01*
X84165D01*
Y52976D01*
X84233D01*
Y52841D01*
X84300D01*
Y52706D01*
X84368D01*
Y52571D01*
X84435D01*
Y52504D01*
X84503D01*
Y52368D01*
X84570D01*
Y52301D01*
X84638D01*
Y52233D01*
X84705D01*
Y52098D01*
X84773D01*
Y52031D01*
X84840D01*
Y51963D01*
X84908D01*
Y51828D01*
X84975D01*
Y51761D01*
X85043D01*
Y51693D01*
X85110D01*
Y51626D01*
X85178D01*
Y51558D01*
X85245D01*
Y51491D01*
X85313D01*
Y51356D01*
X85380D01*
Y51288D01*
X85448D01*
Y51221D01*
X85515D01*
Y51153D01*
X85650D01*
Y51086D01*
X85718D01*
Y51018D01*
X85785D01*
Y50951D01*
X85853D01*
Y50883D01*
X85920D01*
Y50816D01*
X85988D01*
Y50748D01*
X86055D01*
Y50681D01*
X86190D01*
Y50613D01*
X86258D01*
Y50546D01*
X86325D01*
Y50478D01*
X86460D01*
Y50411D01*
X86528D01*
Y50343D01*
X86595D01*
Y50276D01*
X86730D01*
Y50208D01*
X86865D01*
Y50141D01*
X86933D01*
Y50073D01*
X87068D01*
Y50006D01*
X87203D01*
Y49938D01*
X87270D01*
Y49871D01*
X87406D01*
Y49803D01*
X87541D01*
Y49736D01*
X87675D01*
Y49668D01*
X87878D01*
Y49601D01*
X88013D01*
Y49533D01*
X88216D01*
Y49466D01*
X88351D01*
Y49398D01*
X88553D01*
Y49331D01*
X88823D01*
Y49263D01*
X89093D01*
Y49196D01*
X89363D01*
Y49128D01*
X89768D01*
Y49061D01*
X90443D01*
Y48993D01*
X91388D01*
Y49061D01*
X92063D01*
Y49128D01*
X92468D01*
Y49196D01*
X92738D01*
Y49263D01*
X93009D01*
Y49331D01*
X93211D01*
Y49398D01*
X93414D01*
Y49466D01*
X93616D01*
Y49533D01*
X93818D01*
Y49601D01*
X93954D01*
Y49668D01*
X94089D01*
Y49736D01*
X94224D01*
Y49803D01*
X94359D01*
Y49871D01*
X94494D01*
Y49938D01*
X94629D01*
Y50006D01*
X94764D01*
Y50073D01*
X94831D01*
Y50141D01*
X94966D01*
Y50208D01*
X95101D01*
Y50276D01*
X95169D01*
Y50343D01*
X95304D01*
Y50411D01*
X95371D01*
Y50478D01*
X95439D01*
Y50546D01*
X95574D01*
Y50613D01*
X95641D01*
Y50681D01*
X95709D01*
Y50748D01*
X95776D01*
Y50816D01*
X95911D01*
Y50883D01*
X95979D01*
Y50951D01*
X96046D01*
Y51018D01*
X96114D01*
Y51086D01*
X96181D01*
Y51153D01*
X96249D01*
Y51221D01*
X96316D01*
Y51288D01*
X96384D01*
Y51356D01*
X96451D01*
Y51423D01*
X96519D01*
Y51491D01*
X96586D01*
Y51558D01*
X96654D01*
Y51693D01*
X96721D01*
Y51761D01*
X96789D01*
Y51828D01*
X96856D01*
Y51896D01*
X96924D01*
Y52031D01*
X96991D01*
Y52098D01*
X97059D01*
Y52233D01*
X97126D01*
Y52301D01*
X97194D01*
Y52436D01*
X97261D01*
Y52504D01*
X97329D01*
Y52639D01*
X97396D01*
Y52773D01*
X97464D01*
Y52841D01*
X97531D01*
Y52976D01*
X97599D01*
Y53111D01*
X97666D01*
Y53246D01*
X97734D01*
Y53449D01*
X97801D01*
Y53584D01*
X97869D01*
Y53719D01*
X97936D01*
Y53921D01*
X98004D01*
Y54124D01*
X98071D01*
Y54394D01*
X98139D01*
Y54664D01*
X98206D01*
Y54934D01*
X98274D01*
Y55339D01*
X98341D01*
Y56081D01*
X98409D01*
Y57161D01*
X98341D01*
Y57836D01*
X98274D01*
Y58241D01*
X98206D01*
Y58579D01*
X98139D01*
Y58849D01*
X98071D01*
Y59119D01*
X98004D01*
Y59321D01*
X97936D01*
Y59592D01*
X97869D01*
Y59727D01*
X97801D01*
Y59929D01*
X97734D01*
Y60132D01*
X97666D01*
Y60267D01*
X97599D01*
Y60402D01*
X97531D01*
Y60604D01*
X97464D01*
Y60739D01*
X97396D01*
Y60874D01*
X97329D01*
Y61009D01*
X97261D01*
Y61144D01*
X97194D01*
Y61279D01*
X97126D01*
Y61414D01*
X97059D01*
Y61549D01*
X96991D01*
Y61617D01*
X96924D01*
Y61752D01*
X96856D01*
Y61887D01*
X96789D01*
Y61954D01*
X96721D01*
Y62089D01*
X96654D01*
Y62224D01*
X96586D01*
Y62292D01*
X96519D01*
Y62427D01*
X96451D01*
Y62494D01*
X96384D01*
Y62629D01*
X96316D01*
Y62697D01*
X96249D01*
Y62832D01*
X96181D01*
Y62899D01*
X96114D01*
Y63034D01*
X96046D01*
Y63102D01*
X95979D01*
Y63237D01*
X95911D01*
Y63304D01*
X95844D01*
Y63372D01*
X95776D01*
Y63507D01*
X95709D01*
Y63574D01*
X95641D01*
Y63642D01*
X95574D01*
Y63777D01*
X95506D01*
Y63844D01*
X95439D01*
Y63912D01*
X95371D01*
Y63979D01*
X95304D01*
Y64114D01*
X95236D01*
Y64182D01*
X95169D01*
Y64249D01*
X95101D01*
Y64317D01*
X95034D01*
Y64452D01*
X94966D01*
Y64520D01*
X94899D01*
Y64587D01*
X94831D01*
Y64654D01*
X94764D01*
Y64722D01*
X94696D01*
Y64789D01*
X94629D01*
Y64925D01*
X94561D01*
Y64992D01*
X94494D01*
Y65060D01*
X94426D01*
Y65127D01*
X94359D01*
Y65194D01*
X94291D01*
Y65262D01*
X94224D01*
Y65329D01*
X94156D01*
Y65397D01*
X94089D01*
Y65532D01*
X94021D01*
Y65600D01*
X93954D01*
Y65667D01*
X93886D01*
Y65735D01*
X93818D01*
Y65802D01*
X93751D01*
Y65870D01*
X93683D01*
Y65937D01*
X93616D01*
Y66005D01*
X93549D01*
Y66072D01*
X93481D01*
Y66140D01*
X93414D01*
Y66207D01*
X93346D01*
Y66275D01*
X93278D01*
Y66342D01*
X93211D01*
Y66410D01*
X93143D01*
Y66477D01*
X93076D01*
Y66612D01*
X93009D01*
Y66680D01*
X92941D01*
Y66747D01*
X92873D01*
Y66815D01*
X92806D01*
Y66882D01*
X92738D01*
Y66950D01*
X92671D01*
Y67017D01*
X92603D01*
Y67085D01*
X92536D01*
Y67152D01*
X92468D01*
Y67220D01*
X92401D01*
Y67287D01*
X92333D01*
Y67355D01*
X92266D01*
Y67422D01*
X92198D01*
Y67490D01*
X92131D01*
Y67557D01*
X92063D01*
Y67625D01*
X91996D01*
Y67692D01*
X91928D01*
Y67760D01*
X91861D01*
Y67827D01*
X91793D01*
Y67895D01*
X91726D01*
Y67962D01*
X91658D01*
Y68030D01*
X91591D01*
Y68097D01*
X91523D01*
Y68165D01*
X91456D01*
Y68232D01*
X91388D01*
Y68300D01*
X91321D01*
Y68367D01*
X91253D01*
Y68435D01*
X91186D01*
Y68502D01*
X91118D01*
Y68570D01*
X91051D01*
Y68637D01*
X90983D01*
Y68705D01*
X90916D01*
Y68772D01*
D02*
G37*
G36*
X43118Y57308D02*
X42746D01*
Y57285D01*
X42513D01*
Y57262D01*
X42374D01*
Y57238D01*
X42258D01*
Y57215D01*
X42165D01*
Y57192D01*
X42072D01*
Y57169D01*
X42002D01*
Y57145D01*
X41909D01*
Y57122D01*
X41862D01*
Y57099D01*
X41793D01*
Y57076D01*
X41723D01*
Y57052D01*
X41676D01*
Y57029D01*
X41630D01*
Y57006D01*
X41560D01*
Y56983D01*
X41514D01*
Y56959D01*
X41467D01*
Y56936D01*
X41421D01*
Y56913D01*
X41374D01*
Y56890D01*
X41328D01*
Y56866D01*
X41281D01*
Y56843D01*
X41235D01*
Y56820D01*
X41211D01*
Y56797D01*
X41165D01*
Y56773D01*
X41118D01*
Y56750D01*
X41095D01*
Y56727D01*
X41049D01*
Y56704D01*
X41002D01*
Y56680D01*
X40979D01*
Y56657D01*
X40932D01*
Y56634D01*
X40909D01*
Y56611D01*
X40863D01*
Y56587D01*
X40839D01*
Y56564D01*
X40793D01*
Y56541D01*
X40770D01*
Y56518D01*
X40723D01*
Y56494D01*
X40700D01*
Y56471D01*
X40653D01*
Y56448D01*
X40630D01*
Y56425D01*
X40607D01*
Y56401D01*
X40560D01*
Y56378D01*
X40537D01*
Y56355D01*
X40514D01*
Y56332D01*
X40467D01*
Y56308D01*
X40444D01*
Y56285D01*
X40421D01*
Y56262D01*
X40398D01*
Y56239D01*
X40351D01*
Y56215D01*
X40328D01*
Y56192D01*
X40305D01*
Y56169D01*
X40281D01*
Y56146D01*
X40235D01*
Y56122D01*
X40212D01*
Y56099D01*
X40188D01*
Y56076D01*
X40165D01*
Y56053D01*
X40142D01*
Y56029D01*
X40119D01*
Y56006D01*
X40072D01*
Y55983D01*
X40049D01*
Y55960D01*
X40026D01*
Y55936D01*
X40002D01*
Y55913D01*
X39979D01*
Y55890D01*
X39956D01*
Y55867D01*
X39933D01*
Y55843D01*
X39909D01*
Y55820D01*
X39863D01*
Y55797D01*
X39840D01*
Y55774D01*
X39816D01*
Y55750D01*
X39793D01*
Y55727D01*
X39770D01*
Y55704D01*
X39747D01*
Y55681D01*
X39723D01*
Y55657D01*
X39700D01*
Y55634D01*
X39677D01*
Y55611D01*
X39654D01*
Y55588D01*
X39630D01*
Y55564D01*
X39607D01*
Y55541D01*
X39584D01*
Y55518D01*
X39561D01*
Y55495D01*
X39537D01*
Y55471D01*
X39491D01*
Y55448D01*
X39468D01*
Y55425D01*
X39444D01*
Y55402D01*
X39421D01*
Y55379D01*
X39398D01*
Y55355D01*
X39375D01*
Y55332D01*
X39351D01*
Y55309D01*
X39328D01*
Y55286D01*
X39305D01*
Y55262D01*
X39282D01*
Y55239D01*
X39258D01*
Y55216D01*
X39235D01*
Y55193D01*
X39212D01*
Y55169D01*
X39189D01*
Y55146D01*
X39165D01*
Y55123D01*
X39142D01*
Y55099D01*
X39119D01*
Y55076D01*
X39096D01*
Y55053D01*
X39072D01*
Y55030D01*
X39049D01*
Y55006D01*
X39026D01*
Y54983D01*
X39003D01*
Y54960D01*
X38980D01*
Y54937D01*
X38956D01*
Y54914D01*
X38933D01*
Y54890D01*
X38910D01*
Y54867D01*
X38886D01*
Y54844D01*
X38863D01*
Y54821D01*
X38840D01*
Y54797D01*
X38817D01*
Y54774D01*
X38794D01*
Y54751D01*
X38770D01*
Y54728D01*
X38747D01*
Y54704D01*
X38770D01*
Y54681D01*
X38794D01*
Y54658D01*
X38817D01*
Y54634D01*
X38840D01*
Y54611D01*
X38863D01*
Y54588D01*
X38886D01*
Y54565D01*
X38910D01*
Y54541D01*
X38933D01*
Y54518D01*
X38956D01*
Y54495D01*
X38980D01*
Y54472D01*
X39003D01*
Y54448D01*
X39026D01*
Y54425D01*
X39049D01*
Y54402D01*
X39072D01*
Y54379D01*
X39096D01*
Y54356D01*
X39119D01*
Y54332D01*
X39142D01*
Y54309D01*
X39165D01*
Y54286D01*
X39189D01*
Y54263D01*
X39212D01*
Y54239D01*
X39235D01*
Y54216D01*
X39258D01*
Y54193D01*
X39305D01*
Y54169D01*
X39328D01*
Y54146D01*
X39351D01*
Y54123D01*
X39375D01*
Y54100D01*
X39398D01*
Y54076D01*
X39421D01*
Y54053D01*
X39444D01*
Y54030D01*
X39468D01*
Y54007D01*
X39491D01*
Y53983D01*
X39514D01*
Y53960D01*
X39537D01*
Y53937D01*
X39561D01*
Y53914D01*
X39584D01*
Y53891D01*
X39607D01*
Y53867D01*
X39630D01*
Y53844D01*
X39654D01*
Y53821D01*
X39677D01*
Y53798D01*
X39700D01*
Y53774D01*
X39723D01*
Y53751D01*
X39770D01*
Y53728D01*
X39793D01*
Y53705D01*
X39816D01*
Y53681D01*
X39840D01*
Y53658D01*
X39863D01*
Y53635D01*
X39886D01*
Y53611D01*
X39933D01*
Y53588D01*
X39956D01*
Y53565D01*
X39979D01*
Y53542D01*
X40002D01*
Y53518D01*
X40026D01*
Y53495D01*
X40072D01*
Y53472D01*
X40095D01*
Y53449D01*
X40119D01*
Y53426D01*
X40142D01*
Y53402D01*
X40188D01*
Y53379D01*
X40212D01*
Y53356D01*
X40235D01*
Y53333D01*
X40258D01*
Y53309D01*
X40305D01*
Y53286D01*
X40328D01*
Y53263D01*
X40351D01*
Y53240D01*
X40398D01*
Y53216D01*
X40421D01*
Y53193D01*
X40444D01*
Y53170D01*
X40491D01*
Y53146D01*
X40514D01*
Y53123D01*
X40537D01*
Y53100D01*
X40584D01*
Y53077D01*
X40607D01*
Y53053D01*
X40630D01*
Y53030D01*
X40677D01*
Y53007D01*
X40700D01*
Y52984D01*
X40746D01*
Y52961D01*
X40770D01*
Y52937D01*
X40793D01*
Y52914D01*
X40839D01*
Y52891D01*
X40863D01*
Y52868D01*
X40909D01*
Y52844D01*
X40932D01*
Y52821D01*
X40979D01*
Y52798D01*
X41002D01*
Y52775D01*
X41049D01*
Y52751D01*
X41095D01*
Y52728D01*
X41118D01*
Y52705D01*
X41165D01*
Y52682D01*
X41211D01*
Y52658D01*
X41235D01*
Y52635D01*
X41281D01*
Y52612D01*
X41328D01*
Y52589D01*
X41374D01*
Y52565D01*
X41397D01*
Y52542D01*
X41444D01*
Y52519D01*
X41490D01*
Y52496D01*
X41537D01*
Y52472D01*
X41583D01*
Y52449D01*
X41630D01*
Y52426D01*
X41676D01*
Y52403D01*
X41746D01*
Y52379D01*
X41793D01*
Y52356D01*
X41839D01*
Y52333D01*
X41909D01*
Y52310D01*
X41955D01*
Y52286D01*
X42025D01*
Y52263D01*
X42095D01*
Y52240D01*
X42165D01*
Y52217D01*
X42234D01*
Y52193D01*
X42327D01*
Y52170D01*
X42420D01*
Y52147D01*
X42537D01*
Y52124D01*
X42676D01*
Y52100D01*
X43304D01*
Y52124D01*
X43466D01*
Y52147D01*
X43560D01*
Y52170D01*
X43652D01*
Y52193D01*
X43722D01*
Y52217D01*
X43792D01*
Y52240D01*
X43862D01*
Y52263D01*
X43908D01*
Y52286D01*
X43978D01*
Y52310D01*
X44025D01*
Y52333D01*
X44071D01*
Y52356D01*
X44118D01*
Y52379D01*
X44164D01*
Y52403D01*
X44187D01*
Y52426D01*
X44234D01*
Y52449D01*
X44280D01*
Y52472D01*
X44327D01*
Y52496D01*
X44350D01*
Y52519D01*
X44396D01*
Y52542D01*
X44420D01*
Y52565D01*
X44443D01*
Y52589D01*
X44489D01*
Y52612D01*
X44513D01*
Y52635D01*
X44536D01*
Y52658D01*
X44583D01*
Y52682D01*
X44606D01*
Y52705D01*
X44629D01*
Y52728D01*
X44652D01*
Y52751D01*
X44675D01*
Y52775D01*
X44699D01*
Y52798D01*
X44745D01*
Y52821D01*
X44769D01*
Y52844D01*
X44792D01*
Y52868D01*
X44815D01*
Y52891D01*
Y52914D01*
X44838D01*
Y52937D01*
X44862D01*
Y52961D01*
X44885D01*
Y52984D01*
X44908D01*
Y53007D01*
X44931D01*
Y53030D01*
X44954D01*
Y53053D01*
X44978D01*
Y53077D01*
Y53100D01*
X45001D01*
Y53123D01*
X45024D01*
Y53146D01*
X45048D01*
Y53170D01*
Y53193D01*
X45071D01*
Y53216D01*
X45094D01*
Y53240D01*
X45117D01*
Y53263D01*
Y53286D01*
X45140D01*
Y53309D01*
Y53333D01*
X45164D01*
Y53356D01*
X45187D01*
Y53379D01*
Y53402D01*
X45210D01*
Y53426D01*
Y53449D01*
X45234D01*
Y53472D01*
X45257D01*
Y53495D01*
Y53518D01*
X45280D01*
Y53542D01*
Y53565D01*
X45303D01*
Y53588D01*
Y53611D01*
X45326D01*
Y53635D01*
Y53658D01*
Y53681D01*
X45350D01*
Y53705D01*
Y53728D01*
X45373D01*
Y53751D01*
Y53774D01*
Y53798D01*
X45396D01*
Y53821D01*
Y53844D01*
X45419D01*
Y53867D01*
Y53891D01*
Y53914D01*
X45443D01*
Y53937D01*
Y53960D01*
Y53983D01*
Y54007D01*
X45466D01*
Y54030D01*
Y54053D01*
Y54076D01*
Y54100D01*
X45489D01*
Y54123D01*
Y54146D01*
Y54169D01*
Y54193D01*
X45512D01*
Y54216D01*
Y54239D01*
Y54263D01*
Y54286D01*
Y54309D01*
Y54332D01*
X45536D01*
Y54356D01*
Y54379D01*
Y54402D01*
Y54425D01*
Y54448D01*
Y54472D01*
Y54495D01*
Y54518D01*
Y54541D01*
Y54565D01*
X45559D01*
Y54588D01*
Y54611D01*
Y54634D01*
Y54658D01*
Y54681D01*
Y54704D01*
Y54728D01*
Y54751D01*
Y54774D01*
Y54797D01*
Y54821D01*
Y54844D01*
Y54867D01*
Y54890D01*
X45536D01*
Y54914D01*
Y54937D01*
Y54960D01*
Y54983D01*
Y55006D01*
Y55030D01*
Y55053D01*
Y55076D01*
Y55099D01*
Y55123D01*
X45512D01*
Y55146D01*
Y55169D01*
Y55193D01*
Y55216D01*
Y55239D01*
Y55262D01*
X45489D01*
Y55286D01*
Y55309D01*
Y55332D01*
Y55355D01*
X45466D01*
Y55379D01*
Y55402D01*
Y55425D01*
Y55448D01*
X45443D01*
Y55471D01*
Y55495D01*
Y55518D01*
X45419D01*
Y55541D01*
Y55564D01*
Y55588D01*
X45396D01*
Y55611D01*
Y55634D01*
Y55657D01*
X45373D01*
Y55681D01*
Y55704D01*
Y55727D01*
X45350D01*
Y55750D01*
Y55774D01*
X45326D01*
Y55797D01*
Y55820D01*
X45303D01*
Y55843D01*
Y55867D01*
X45280D01*
Y55890D01*
Y55913D01*
X45257D01*
Y55936D01*
Y55960D01*
X45234D01*
Y55983D01*
Y56006D01*
X45210D01*
Y56029D01*
Y56053D01*
X45187D01*
Y56076D01*
X45164D01*
Y56099D01*
Y56122D01*
X45140D01*
Y56146D01*
Y56169D01*
X45117D01*
Y56192D01*
X45094D01*
Y56215D01*
Y56239D01*
X45071D01*
Y56262D01*
X45048D01*
Y56285D01*
X45024D01*
Y56308D01*
Y56332D01*
X45001D01*
Y56355D01*
X44978D01*
Y56378D01*
X44954D01*
Y56401D01*
X44931D01*
Y56425D01*
Y56448D01*
X44908D01*
Y56471D01*
X44885D01*
Y56494D01*
X44862D01*
Y56518D01*
X44838D01*
Y56541D01*
X44815D01*
Y56564D01*
X44792D01*
Y56587D01*
X44769D01*
Y56611D01*
X44745D01*
Y56634D01*
X44722D01*
Y56657D01*
X44699D01*
Y56680D01*
X44675D01*
Y56704D01*
X44629D01*
Y56727D01*
X44606D01*
Y56750D01*
X44583D01*
Y56773D01*
X44559D01*
Y56797D01*
X44513D01*
Y56820D01*
X44489D01*
Y56843D01*
X44443D01*
Y56866D01*
X44420D01*
Y56890D01*
X44373D01*
Y56913D01*
X44350D01*
Y56936D01*
X44304D01*
Y56959D01*
X44257D01*
Y56983D01*
X44234D01*
Y57006D01*
X44187D01*
Y57029D01*
X44141D01*
Y57052D01*
X44094D01*
Y57076D01*
X44025D01*
Y57099D01*
X43978D01*
Y57122D01*
X43931D01*
Y57145D01*
X43862D01*
Y57169D01*
X43792D01*
Y57192D01*
X43699D01*
Y57215D01*
X43606D01*
Y57238D01*
X43513D01*
Y57262D01*
X43374D01*
Y57285D01*
X43118D01*
Y57308D01*
D02*
G37*
%LPD*%
D10*
X122835Y344094D02*
Y351966D01*
X126770D01*
X128082Y350654D01*
Y348030D01*
X126770Y346718D01*
X122835D01*
X130706Y344094D02*
Y351966D01*
X134642D01*
X135954Y350654D01*
Y348030D01*
X134642Y346718D01*
X130706D01*
X133330D02*
X135954Y344094D01*
X138578D02*
Y349342D01*
X141201Y351966D01*
X143825Y349342D01*
Y344094D01*
Y348030D01*
X138578D01*
X146449Y344094D02*
Y351966D01*
X151697Y344094D01*
Y351966D01*
X154321Y344094D02*
Y349342D01*
X156944Y351966D01*
X159568Y349342D01*
Y344094D01*
Y348030D01*
X154321D01*
X162192Y351966D02*
Y346718D01*
X164816Y344094D01*
X167440Y346718D01*
Y351966D01*
X183183Y350654D02*
X181871Y351966D01*
X179247D01*
X177935Y350654D01*
Y349342D01*
X179247Y348030D01*
X181871D01*
X183183Y346718D01*
Y345406D01*
X181871Y344094D01*
X179247D01*
X177935Y345406D01*
X185807Y344094D02*
Y351966D01*
X189742D01*
X191054Y350654D01*
Y348030D01*
X189742Y346718D01*
X185807D01*
X188430D02*
X191054Y344094D01*
X193678Y351966D02*
X196302D01*
X194990D01*
Y344094D01*
X193678D01*
X196302D01*
X200237D02*
Y351966D01*
X205485Y344094D01*
Y351966D01*
X208109D02*
X210733D01*
X209421D01*
Y344094D01*
X208109D01*
X210733D01*
X214669Y351966D02*
Y346718D01*
X217292Y344094D01*
X219916Y346718D01*
Y351966D01*
X222540Y344094D02*
Y349342D01*
X225164Y351966D01*
X227788Y349342D01*
Y344094D01*
Y348030D01*
X222540D01*
X235659Y350654D02*
X234347Y351966D01*
X231723D01*
X230412Y350654D01*
Y349342D01*
X231723Y348030D01*
X234347D01*
X235659Y346718D01*
Y345406D01*
X234347Y344094D01*
X231723D01*
X230412Y345406D01*
D12*
X28038Y136361D02*
X27054Y137345D01*
X25086D01*
X24102Y136361D01*
Y135377D01*
X25086Y134393D01*
X27054D01*
X28038Y133409D01*
Y132425D01*
X27054Y131441D01*
X25086D01*
X24102Y132425D01*
X30006Y137345D02*
Y131441D01*
X32958D01*
X33942Y132425D01*
Y133409D01*
X32958Y134393D01*
X30006D01*
X32958D01*
X33942Y135377D01*
Y136361D01*
X32958Y137345D01*
X30006D01*
X35910Y134393D02*
X39845D01*
X45749Y136361D02*
X44765Y137345D01*
X42797D01*
X41813Y136361D01*
Y132425D01*
X42797Y131441D01*
X44765D01*
X45749Y132425D01*
X47717Y134393D02*
X51652D01*
X57556Y136361D02*
X56572Y137345D01*
X54604D01*
X53620Y136361D01*
Y132425D01*
X54604Y131441D01*
X56572D01*
X57556Y132425D01*
X62476Y137345D02*
X60508D01*
X59524Y136361D01*
Y132425D01*
X60508Y131441D01*
X62476D01*
X63460Y132425D01*
Y136361D01*
X62476Y137345D01*
X65428Y131441D02*
Y137345D01*
X69363Y131441D01*
Y137345D01*
X71331Y131441D02*
Y137345D01*
X75267Y131441D01*
Y137345D01*
X81170D02*
X77235D01*
Y131441D01*
X81170D01*
X77235Y134393D02*
X79203D01*
X87074Y136361D02*
X86090Y137345D01*
X84122D01*
X83138Y136361D01*
Y132425D01*
X84122Y131441D01*
X86090D01*
X87074Y132425D01*
X89042Y137345D02*
X92978D01*
X91010D01*
Y131441D01*
X97897Y137345D02*
X95929D01*
X94946Y136361D01*
Y132425D01*
X95929Y131441D01*
X97897D01*
X98881Y132425D01*
Y136361D01*
X97897Y137345D01*
X100849Y131441D02*
Y137345D01*
X103801D01*
X104785Y136361D01*
Y134393D01*
X103801Y133409D01*
X100849D01*
X102817D02*
X104785Y131441D01*
D13*
X104661Y185287D02*
X133008D01*
Y296986D01*
X104661D02*
X133008D01*
X104661Y185287D02*
Y296986D01*
D56*
X194488Y282185D02*
G03*
X194488Y282185I0J-492D01*
G01*
X124433Y31051D02*
G03*
X124433Y31051I-492J0D01*
G01*
X110229Y16000D02*
G03*
X110229Y16000I-492J0D01*
G01*
X110228Y111000D02*
G03*
X110228Y111000I-492J0D01*
G01*
X276673Y66929D02*
G03*
X276673Y66929I-492J0D01*
G01*
Y26969D02*
G03*
X276673Y26969I-492J0D01*
G01*
X279823Y203346D02*
G03*
X279823Y203346I492J0D01*
G01*
X280217Y161417D02*
G03*
X280217Y161417I492J0D01*
G01*
X85618Y206638D02*
G03*
X85618Y206638I-492J0D01*
G01*
X100382Y262543D02*
G03*
X100382Y262543I-492J0D01*
G01*
D57*
X207874Y313386D02*
X185236D01*
X207874Y284252D02*
Y313386D01*
X185236Y284252D02*
Y313386D01*
X207874Y284252D02*
X185236D01*
X214370Y279331D02*
Y318307D01*
X232087D02*
X214370D01*
X232087Y279331D02*
X214370D01*
X232087D02*
Y318307D01*
X162205Y279331D02*
Y318307D01*
X179921D02*
X162205D01*
X179921Y279331D02*
X162205D01*
X179921D02*
Y318307D01*
X173622Y243701D02*
X169686D01*
Y245669D01*
X170342Y246325D01*
X171654D01*
X172310Y245669D01*
Y243701D01*
X169686Y247637D02*
X173622D01*
X172310Y248948D01*
X173622Y250260D01*
X169686D01*
X173622Y251572D02*
X169686D01*
Y253540D01*
X170342Y254196D01*
X171654D01*
X172310Y253540D01*
Y251572D01*
Y252884D02*
X173622Y254196D01*
X169686Y259444D02*
Y260756D01*
Y260100D01*
X173622D01*
Y259444D01*
Y260756D01*
Y262723D02*
X169686D01*
X173622Y265347D01*
X169686D01*
X173622Y266659D02*
X169686D01*
Y268627D01*
X170342Y269283D01*
X171654D01*
X172310Y268627D01*
Y266659D01*
X169686Y270595D02*
X172966D01*
X173622Y271251D01*
Y272563D01*
X172966Y273219D01*
X169686D01*
Y274531D02*
Y277155D01*
Y275843D01*
X173622D01*
X223230Y243701D02*
Y245013D01*
Y244357D01*
X227165D01*
Y243701D01*
Y245013D01*
Y249604D02*
Y246981D01*
X224541Y249604D01*
X223886D01*
X223230Y248948D01*
Y247637D01*
X223886Y246981D01*
Y253540D02*
X223230Y252884D01*
Y251572D01*
X223886Y250916D01*
X226509D01*
X227165Y251572D01*
Y252884D01*
X226509Y253540D01*
X225198Y254852D02*
Y257476D01*
X223886Y261412D02*
X223230Y260756D01*
Y259444D01*
X223886Y258788D01*
X224541D01*
X225198Y259444D01*
Y260756D01*
X225853Y261412D01*
X226509D01*
X227165Y260756D01*
Y259444D01*
X226509Y258788D01*
X223230Y265347D02*
Y262723D01*
X227165D01*
Y265347D01*
X225198Y262723D02*
Y264035D01*
X223886Y269283D02*
X223230Y268627D01*
Y267315D01*
X223886Y266659D01*
X226509D01*
X227165Y267315D01*
Y268627D01*
X226509Y269283D01*
X225198Y270595D02*
Y273219D01*
X223230Y274531D02*
X227165D01*
Y276499D01*
X226509Y277155D01*
X223886D01*
X223230Y276499D01*
Y274531D01*
X196850Y246325D02*
Y243701D01*
X194227Y246325D01*
X193571D01*
X192915Y245669D01*
Y244357D01*
X193571Y243701D01*
X196850Y249604D02*
X192915D01*
X194883Y247637D01*
Y250260D01*
X194227Y251572D02*
X196850Y252884D01*
X194227Y254196D01*
X192915Y259444D02*
Y260756D01*
Y260100D01*
X196850D01*
Y259444D01*
Y260756D01*
Y262723D02*
X192915D01*
X196850Y265347D01*
X192915D01*
X196850Y266659D02*
X192915D01*
Y268627D01*
X193571Y269283D01*
X194883D01*
X195538Y268627D01*
Y266659D01*
X192915Y270595D02*
X196194D01*
X196850Y271251D01*
Y272563D01*
X196194Y273219D01*
X192915D01*
Y274531D02*
Y277155D01*
Y275843D01*
X196850D01*
X112295Y2614D02*
Y25252D01*
X141429D01*
X112295Y2614D02*
X141429D01*
Y25252D01*
X112642Y89713D02*
X135476D01*
X112642Y33413D02*
Y89713D01*
Y33413D02*
X135476D01*
Y89713D01*
X141429Y97614D02*
Y120252D01*
X112295Y97614D02*
X141429D01*
X112295Y120252D02*
X141429D01*
X112295Y97614D02*
Y120252D01*
X99228Y20787D02*
X100540D01*
X99884D01*
Y24723D01*
X99228Y24067D01*
X105132Y20787D02*
X102508D01*
X105132Y23411D01*
Y24067D01*
X104476Y24723D01*
X103164D01*
X102508Y24067D01*
X106444Y24723D02*
Y22099D01*
X107756Y20787D01*
X109068Y22099D01*
Y24723D01*
X98728Y105067D02*
X99384Y105723D01*
X100696D01*
X101352Y105067D01*
Y104411D01*
X100696Y103755D01*
X100040D01*
X100696D01*
X101352Y103099D01*
Y102443D01*
X100696Y101787D01*
X99384D01*
X98728Y102443D01*
X102664Y105723D02*
Y103099D01*
X103976Y101787D01*
X105288Y103099D01*
Y105723D01*
X106600Y105067D02*
X107256Y105723D01*
X108568D01*
X109224Y105067D01*
Y104411D01*
X108568Y103755D01*
X107912D01*
X108568D01*
X109224Y103099D01*
Y102443D01*
X108568Y101787D01*
X107256D01*
X106600Y102443D01*
X105874Y47411D02*
X105218Y46755D01*
Y45443D01*
X105874Y44787D01*
X106530D01*
X107186Y45443D01*
Y46755D01*
X107842Y47411D01*
X108498D01*
X109153Y46755D01*
Y45443D01*
X108498Y44787D01*
X105218Y51347D02*
Y48723D01*
X109153D01*
Y51347D01*
X107186Y48723D02*
Y50035D01*
X105874Y55283D02*
X105218Y54627D01*
Y53315D01*
X105874Y52659D01*
X108498D01*
X109153Y53315D01*
Y54627D01*
X108498Y55283D01*
X105218Y56595D02*
Y59218D01*
Y57907D01*
X109153D01*
X105218Y60530D02*
Y61842D01*
Y61186D01*
X109153D01*
Y60530D01*
Y61842D01*
X105218Y65778D02*
Y64466D01*
X105874Y63810D01*
X108498D01*
X109153Y64466D01*
Y65778D01*
X108498Y66434D01*
X105874D01*
X105218Y65778D01*
X109153Y67746D02*
X105218D01*
X109153Y70370D01*
X105218D01*
Y75617D02*
X109153D01*
Y77585D01*
X108498Y78241D01*
X105874D01*
X105218Y77585D01*
Y75617D01*
X298228Y88583D02*
X305315D01*
X298228D02*
Y98819D01*
X305315D01*
Y88583D02*
Y98819D01*
X298228Y48228D02*
X305315D01*
X298228D02*
Y58465D01*
X305315D01*
Y48228D02*
Y58465D01*
Y70669D02*
Y84055D01*
X298228Y70669D02*
X305315D01*
X298228D02*
Y84055D01*
X305315D01*
Y70669D02*
Y84055D01*
X298228Y70669D02*
X305315D01*
X298228D02*
Y84055D01*
X305315D01*
Y29528D02*
Y42913D01*
X298228Y29528D02*
X305315D01*
X298228D02*
Y42913D01*
X305315D01*
Y29528D02*
Y42913D01*
X298228Y29528D02*
X305315D01*
X298228D02*
Y42913D01*
X305315D01*
X266929Y98622D02*
X289567D01*
Y69488D02*
Y98622D01*
X266929Y69488D02*
Y98622D01*
Y69488D02*
X289567D01*
X266929Y58661D02*
X289567D01*
Y29528D02*
Y58661D01*
X266929Y29528D02*
Y58661D01*
Y29528D02*
X289567D01*
X308858Y50787D02*
Y49475D01*
Y50131D01*
X312794D01*
X312138Y50787D01*
X308858Y44884D02*
Y47508D01*
X311482Y44884D01*
X312138D01*
X312794Y45540D01*
Y46852D01*
X312138Y47508D01*
X312794Y43572D02*
X310170D01*
X308858Y42260D01*
X310170Y40948D01*
X312794D01*
X308858Y88321D02*
Y90945D01*
X311482Y88321D01*
X312138D01*
X312794Y88977D01*
Y90289D01*
X312138Y90945D01*
X308858Y85041D02*
X312794D01*
X310826Y87009D01*
Y84385D01*
X312794Y83073D02*
X310170D01*
X308858Y81761D01*
X310170Y80450D01*
X312794D01*
X293701Y235039D02*
X271063D01*
X293701D02*
Y205906D01*
X271063Y235039D02*
Y205906D01*
X293701D02*
X271063D01*
X294094Y193110D02*
X271457D01*
X294094D02*
Y163976D01*
X271457Y193110D02*
Y163976D01*
X294094D02*
X271457D01*
X268110Y173622D02*
Y174934D01*
Y174278D01*
X264175D01*
X264830Y173622D01*
X268110Y179526D02*
Y176902D01*
X265486Y179526D01*
X264830D01*
X264175Y178870D01*
Y177558D01*
X264830Y176902D01*
X264175Y180838D02*
X266798D01*
X268110Y182150D01*
X266798Y183461D01*
X264175D01*
X267717Y218372D02*
Y215748D01*
X265093Y218372D01*
X264437D01*
X263781Y217716D01*
Y216404D01*
X264437Y215748D01*
X267717Y221652D02*
X263781D01*
X265749Y219684D01*
Y222308D01*
X263781Y223620D02*
X266405D01*
X267717Y224931D01*
X266405Y226243D01*
X263781D01*
X296988Y359114D02*
Y278366D01*
Y359114D02*
X261555D01*
X296988Y278366D02*
X261555D01*
Y359114D02*
Y278366D01*
X349606Y342520D02*
X353542D01*
X352230Y341208D01*
X353542Y339896D01*
X349606D01*
X353542Y336616D02*
Y337928D01*
X352886Y338584D01*
X350262D01*
X349606Y337928D01*
Y336616D01*
X350262Y335960D01*
X352886D01*
X353542Y336616D01*
Y334648D02*
Y332024D01*
Y333336D01*
X349606D01*
X353542Y328745D02*
Y330057D01*
X352886Y330713D01*
X350262D01*
X349606Y330057D01*
Y328745D01*
X350262Y328089D01*
X352886D01*
X353542Y328745D01*
X349606Y326777D02*
X353542D01*
Y324809D01*
X352886Y324153D01*
X351574D01*
X350918Y324809D01*
Y326777D01*
Y325465D02*
X349606Y324153D01*
Y318905D02*
X353542D01*
X352230Y317593D01*
X353542Y316281D01*
X349606D01*
X353542Y313002D02*
Y314314D01*
X352886Y314969D01*
X350262D01*
X349606Y314314D01*
Y313002D01*
X350262Y312346D01*
X352886D01*
X353542Y313002D01*
Y311034D02*
X349606D01*
Y309066D01*
X350262Y308410D01*
X352886D01*
X353542Y309066D01*
Y311034D01*
Y307098D02*
X350262D01*
X349606Y306442D01*
Y305130D01*
X350262Y304474D01*
X353542D01*
Y303162D02*
X349606D01*
Y300538D01*
X353542Y296603D02*
Y299226D01*
X349606D01*
Y296603D01*
X351574Y299226D02*
Y297915D01*
X349606Y291355D02*
X353542D01*
X352230Y290043D01*
X353542Y288731D01*
X349606D01*
X352886Y284795D02*
X353542Y285452D01*
Y286763D01*
X352886Y287419D01*
X352230D01*
X351574Y286763D01*
Y285452D01*
X350918Y284795D01*
X350262D01*
X349606Y285452D01*
Y286763D01*
X350262Y287419D01*
X345537Y300787D02*
X342913Y299476D01*
X345537Y298164D01*
X342913Y296852D02*
Y295540D01*
Y296196D01*
X346849D01*
X346193Y296852D01*
X342913Y293572D02*
X343569D01*
Y292916D01*
X342913D01*
Y293572D01*
X346193Y290292D02*
X346849Y289636D01*
Y288324D01*
X346193Y287668D01*
X343569D01*
X342913Y288324D01*
Y289636D01*
X343569Y290292D01*
X346193D01*
X323752Y333203D02*
X324408Y333859D01*
Y335171D01*
X323752Y335827D01*
X323096D01*
X322440Y335171D01*
Y333859D01*
X321784Y333203D01*
X321128D01*
X320472Y333859D01*
Y335171D01*
X321128Y335827D01*
X324408Y329267D02*
Y331891D01*
X320472D01*
Y329267D01*
X322440Y331891D02*
Y330579D01*
X323752Y325331D02*
X324408Y325987D01*
Y327299D01*
X323752Y327955D01*
X321128D01*
X320472Y327299D01*
Y325987D01*
X321128Y325331D01*
X324408Y324020D02*
Y321396D01*
Y322708D01*
X320472D01*
X324408Y320084D02*
Y318772D01*
Y319428D01*
X320472D01*
Y320084D01*
Y318772D01*
X324408Y314836D02*
Y316148D01*
X323752Y316804D01*
X321128D01*
X320472Y316148D01*
Y314836D01*
X321128Y314180D01*
X323752D01*
X324408Y314836D01*
X320472Y312868D02*
X324408D01*
X320472Y310244D01*
X324408D01*
Y304997D02*
X320472D01*
Y303029D01*
X321128Y302373D01*
X323752D01*
X324408Y303029D01*
Y304997D01*
X201181Y19468D02*
Y100216D01*
X165748D02*
X201181D01*
X165748Y19468D02*
X201181D01*
X165748D02*
Y100216D01*
X185827Y5906D02*
Y12992D01*
X196063D01*
Y5906D02*
Y12992D01*
X185827Y5906D02*
X196063D01*
X169291D02*
X182677D01*
X169291D02*
Y12992D01*
X182677D01*
Y5906D02*
Y12992D01*
X169291Y5906D02*
X182677D01*
X169291D02*
Y12992D01*
X182677D01*
Y5906D02*
Y12992D01*
X202099Y14567D02*
X202755Y13911D01*
Y12599D01*
X202099Y11943D01*
X201443D01*
X200787Y12599D01*
Y13255D01*
Y12599D01*
X200131Y11943D01*
X199475D01*
X198819Y12599D01*
Y13911D01*
X199475Y14567D01*
X202755Y10631D02*
X200131D01*
X198819Y9319D01*
X200131Y8007D01*
X202755D01*
X202099Y6695D02*
X202755Y6039D01*
Y4728D01*
X202099Y4072D01*
X201443D01*
X200787Y4728D01*
Y5384D01*
Y4728D01*
X200131Y4072D01*
X199475D01*
X198819Y4728D01*
Y6039D01*
X199475Y6695D01*
X224016Y82677D02*
X227952D01*
X226640Y81365D01*
X227952Y80053D01*
X224016D01*
X227952Y76774D02*
Y78086D01*
X227296Y78741D01*
X224672D01*
X224016Y78086D01*
Y76774D01*
X224672Y76118D01*
X227296D01*
X227952Y76774D01*
Y74806D02*
Y72182D01*
Y73494D01*
X224016D01*
X227952Y68902D02*
Y70214D01*
X227296Y70870D01*
X224672D01*
X224016Y70214D01*
Y68902D01*
X224672Y68246D01*
X227296D01*
X227952Y68902D01*
X224016Y66934D02*
X227952D01*
Y64966D01*
X227296Y64310D01*
X225984D01*
X225328Y64966D01*
Y66934D01*
Y65622D02*
X224016Y64310D01*
Y59063D02*
X227952D01*
X226640Y57751D01*
X227952Y56439D01*
X224016D01*
X227952Y53159D02*
Y54471D01*
X227296Y55127D01*
X224672D01*
X224016Y54471D01*
Y53159D01*
X224672Y52503D01*
X227296D01*
X227952Y53159D01*
Y51191D02*
X224016D01*
Y49223D01*
X224672Y48567D01*
X227296D01*
X227952Y49223D01*
Y51191D01*
Y47256D02*
X224672D01*
X224016Y46600D01*
Y45288D01*
X224672Y44632D01*
X227952D01*
Y43320D02*
X224016D01*
Y40696D01*
X227952Y36760D02*
Y39384D01*
X224016D01*
Y36760D01*
X225984Y39384D02*
Y38072D01*
X59469Y194299D02*
G03*
X59469Y194299I-394J0D01*
G01*
X65047Y229378D02*
X96543D01*
X65047D02*
Y241378D01*
X96543D01*
Y229378D02*
Y241378D01*
X82961Y165496D02*
X93197D01*
X82961Y158410D02*
Y165496D01*
Y158410D02*
X93197D01*
Y165496D01*
X66228Y158410D02*
X79614D01*
X66228D02*
Y165496D01*
X79614D01*
Y158410D02*
Y165496D01*
X66228Y158410D02*
X79614D01*
X66228D02*
Y165496D01*
X79614D01*
Y158410D02*
Y165496D01*
X82961Y149945D02*
X93197D01*
X82961Y142858D02*
Y149945D01*
Y142858D02*
X93197D01*
Y149945D01*
X79614Y142858D02*
Y149945D01*
X66228D02*
X79614D01*
X66228Y142858D02*
Y149945D01*
Y142858D02*
X79614D01*
Y149945D01*
X66228D02*
X79614D01*
X66228Y142858D02*
Y149945D01*
Y142858D02*
X79614D01*
X71504Y199551D02*
X73709D01*
X71504D02*
Y202331D01*
X83000Y199551D02*
Y202331D01*
X80795Y199551D02*
X83000D01*
X116425Y168449D02*
X117606D01*
X133354Y136953D02*
Y168449D01*
X125874D02*
X133354D01*
X125874Y136953D02*
X133354D01*
X116425D02*
X117606D01*
X97331Y253291D02*
Y275929D01*
X68197Y253291D02*
X97331D01*
X68197Y275929D02*
X97331D01*
X68197Y253291D02*
Y275929D01*
X2055Y221382D02*
Y302130D01*
Y221382D02*
X37488D01*
X2055Y302130D02*
X37488D01*
Y221382D02*
Y302130D01*
X73315Y215693D02*
Y222780D01*
X83551D01*
Y215693D02*
Y222780D01*
X73315Y215693D02*
X83551D01*
X93197Y173961D02*
Y181047D01*
X82961Y173961D02*
X93197D01*
X82961D02*
Y181047D01*
X93197D01*
X66228Y173961D02*
X79614D01*
X66228D02*
Y181047D01*
X79614D01*
Y173961D02*
Y181047D01*
X66228Y173961D02*
X79614D01*
X66228D02*
Y181047D01*
X79614D01*
Y173961D02*
Y181047D01*
X70907Y183473D02*
X68283D01*
X70907Y186097D01*
Y186753D01*
X70251Y187409D01*
X68939D01*
X68283Y186753D01*
X74186Y183473D02*
Y187409D01*
X72219Y185441D01*
X74843D01*
X76154Y186097D02*
X77466Y183473D01*
X78778Y186097D01*
X72789Y171597D02*
X70165D01*
Y169629D01*
X71477Y170285D01*
X72133D01*
X72789Y169629D01*
Y168317D01*
X72133Y167661D01*
X70821D01*
X70165Y168317D01*
X74101Y170285D02*
X75413Y167661D01*
X76725Y170285D01*
X67803Y155193D02*
X68459Y155849D01*
X69771D01*
X70427Y155193D01*
Y154537D01*
X69771Y153881D01*
X69115D01*
X69771D01*
X70427Y153225D01*
Y152569D01*
X69771Y151913D01*
X68459D01*
X67803Y152569D01*
X71739Y154537D02*
X73051Y151913D01*
X74363Y154537D01*
X75675Y155193D02*
X76331Y155849D01*
X77643D01*
X78298Y155193D01*
Y154537D01*
X77643Y153881D01*
X76986D01*
X77643D01*
X78298Y153225D01*
Y152569D01*
X77643Y151913D01*
X76331D01*
X75675Y152569D01*
X70821Y284197D02*
X68197D01*
X70821Y286821D01*
Y287477D01*
X70165Y288133D01*
X68853D01*
X68197Y287477D01*
X74101Y284197D02*
Y288133D01*
X72133Y286165D01*
X74756D01*
X76068Y286821D02*
X77380Y284197D01*
X78692Y286821D01*
X70427Y281177D02*
X69771Y281833D01*
X68459D01*
X67803Y281177D01*
Y280521D01*
X68459Y279866D01*
X69771D01*
X70427Y279210D01*
Y278554D01*
X69771Y277898D01*
X68459D01*
X67803Y278554D01*
X74363Y281833D02*
X71739D01*
Y277898D01*
X74363D01*
X71739Y279866D02*
X73051D01*
X78298Y281177D02*
X77643Y281833D01*
X76331D01*
X75675Y281177D01*
Y278554D01*
X76331Y277898D01*
X77643D01*
X78298Y278554D01*
X81578Y281833D02*
X80266D01*
X79610Y281177D01*
Y278554D01*
X80266Y277898D01*
X81578D01*
X82234Y278554D01*
Y281177D01*
X81578Y281833D01*
X83546Y277898D02*
Y281833D01*
X86170Y277898D01*
Y281833D01*
X87482D02*
Y277898D01*
X89450D01*
X90106Y278554D01*
Y281177D01*
X89450Y281833D01*
X87482D01*
X91418Y277898D02*
Y280521D01*
X92730Y281833D01*
X94041Y280521D01*
Y277898D01*
Y279866D01*
X91418D01*
X95353Y277898D02*
Y281833D01*
X97321D01*
X97977Y281177D01*
Y279866D01*
X97321Y279210D01*
X95353D01*
X96665D02*
X97977Y277898D01*
X99289Y281833D02*
Y281177D01*
X100601Y279866D01*
X101913Y281177D01*
Y281833D01*
X100601Y279866D02*
Y277898D01*
X63603Y276455D02*
X64259Y277111D01*
Y278423D01*
X63603Y279079D01*
X62947D01*
X62291Y278423D01*
Y277111D01*
X61635Y276455D01*
X60979D01*
X60323Y277111D01*
Y278423D01*
X60979Y279079D01*
X64259Y272519D02*
Y275143D01*
X60323D01*
Y272519D01*
X62291Y275143D02*
Y273831D01*
X63603Y268583D02*
X64259Y269239D01*
Y270551D01*
X63603Y271207D01*
X60979D01*
X60323Y270551D01*
Y269239D01*
X60979Y268583D01*
X64259Y267271D02*
Y264648D01*
Y265960D01*
X60323D01*
X64259Y263336D02*
Y262024D01*
Y262680D01*
X60323D01*
Y263336D01*
Y262024D01*
X64259Y258088D02*
Y259400D01*
X63603Y260056D01*
X60979D01*
X60323Y259400D01*
Y258088D01*
X60979Y257432D01*
X63603D01*
X64259Y258088D01*
X60323Y256120D02*
X64259D01*
X60323Y253496D01*
X64259D01*
X63603Y245625D02*
X64259Y246281D01*
Y247593D01*
X63603Y248249D01*
X60979D01*
X60323Y247593D01*
Y246281D01*
X60979Y245625D01*
X243898Y200947D02*
Y199372D01*
X241142Y200947D02*
Y199372D01*
X166142Y219122D02*
Y138374D01*
X201575D02*
X166142D01*
X201575Y219122D02*
X166142D01*
X201575D02*
Y138374D01*
X243898Y161425D02*
Y159850D01*
X241142Y161425D02*
Y159850D01*
X238189Y167331D02*
Y168643D01*
Y167987D01*
X234253D01*
X234909Y167331D01*
X238189Y173234D02*
Y170610D01*
X235565Y173234D01*
X234909D01*
X234253Y172578D01*
Y171266D01*
X234909Y170610D01*
X234253Y174546D02*
X236877D01*
X238189Y175858D01*
X236877Y177170D01*
X234253D01*
X234909Y182291D02*
X234253Y182947D01*
Y184259D01*
X234909Y184915D01*
X235565D01*
X236221Y184259D01*
Y183603D01*
Y184259D01*
X236877Y184915D01*
X237533D01*
X238189Y184259D01*
Y182947D01*
X237533Y182291D01*
X234253Y186227D02*
X236877D01*
X238189Y187539D01*
X236877Y188851D01*
X234253D01*
X234909Y190163D02*
X234253Y190819D01*
Y192131D01*
X234909Y192787D01*
X235565D01*
X236221Y192131D01*
Y191475D01*
Y192131D01*
X236877Y192787D01*
X237533D01*
X238189Y192131D01*
Y190819D01*
X237533Y190163D01*
X228083Y193053D02*
X228739Y193709D01*
Y195021D01*
X228083Y195677D01*
X225459D01*
X224803Y195021D01*
Y193709D01*
X225459Y193053D01*
X228083Y189118D02*
X228739Y189773D01*
Y191085D01*
X228083Y191741D01*
X225459D01*
X224803Y191085D01*
Y189773D01*
X225459Y189118D01*
X228739Y183870D02*
X224803D01*
Y181902D01*
X225459Y181246D01*
X228083D01*
X228739Y181902D01*
Y183870D01*
X224803Y179934D02*
X228739D01*
Y177966D01*
X228083Y177310D01*
X226771D01*
X226115Y177966D01*
Y179934D01*
Y178622D02*
X224803Y177310D01*
X228739Y175998D02*
Y174687D01*
Y175343D01*
X224803D01*
Y175998D01*
Y174687D01*
X228739Y172719D02*
X226115D01*
X224803Y171407D01*
X226115Y170095D01*
X228739D01*
Y166159D02*
Y168783D01*
X224803D01*
Y166159D01*
X226771Y168783D02*
Y167471D01*
X224803Y164847D02*
X228739D01*
Y162879D01*
X228083Y162223D01*
X226771D01*
X226115Y162879D01*
Y164847D01*
Y163535D02*
X224803Y162223D01*
X42299Y308563D02*
X3323D01*
Y326279D01*
X42299Y308563D02*
Y326279D01*
X3323D01*
X44543Y339705D02*
X37457D01*
X44543Y329468D02*
Y339705D01*
Y329468D02*
X37457D01*
Y339705D01*
X19457Y329468D02*
Y339705D01*
X26543Y329468D02*
X19457D01*
X26543D02*
Y339705D01*
X19457D01*
X28457Y329468D02*
Y339705D01*
X35543Y329468D02*
X28457D01*
X35543D02*
Y339705D01*
X28457D01*
X53370Y347610D02*
X92347D01*
Y329894D01*
X53370Y347610D02*
Y329894D01*
X92347D01*
X51126Y316469D02*
X58213D01*
X51126Y326705D02*
Y316469D01*
Y326705D02*
X58213D01*
Y316469D01*
X76213Y326705D02*
Y316469D01*
X69126Y326705D02*
X76213D01*
X69126D02*
Y316469D01*
X76213D01*
X67213Y326705D02*
Y316469D01*
X60126Y326705D02*
X67213D01*
X60126D02*
Y316469D01*
X67213D01*
X51181Y85827D02*
X58268D01*
Y75591D02*
Y85827D01*
X51181Y75591D02*
X58268D01*
X51181D02*
Y85827D01*
X2362Y82087D02*
Y121063D01*
X20079D01*
X2362Y82087D02*
X20079D01*
Y121063D01*
X57480Y87615D02*
Y98639D01*
Y87615D02*
X64567D01*
Y98639D01*
X57480D02*
X64567D01*
X44685Y102256D02*
Y109343D01*
X31299D02*
X44685D01*
X31299Y102256D02*
Y109343D01*
Y102256D02*
X44685D01*
Y109343D01*
X31299D02*
X44685D01*
X31299Y102256D02*
Y109343D01*
Y102256D02*
X44685D01*
X32283Y75484D02*
Y85720D01*
Y75484D02*
X39370D01*
Y85720D01*
X32283D02*
X39370D01*
X48819Y75484D02*
Y85720D01*
X41732D02*
X48819D01*
X41732Y75484D02*
Y85720D01*
Y75484D02*
X48819D01*
X51181Y22835D02*
X58268D01*
Y12598D02*
Y22835D01*
X51181Y12598D02*
X58268D01*
X51181D02*
Y22835D01*
X2362Y19094D02*
Y58071D01*
X20079D01*
X2362Y19094D02*
X20079D01*
Y58071D01*
X57480Y24623D02*
Y35647D01*
Y24623D02*
X64567D01*
Y35647D01*
X57480D02*
X64567D01*
X44685Y39264D02*
Y46350D01*
X31299D02*
X44685D01*
X31299Y39264D02*
Y46350D01*
Y39264D02*
X44685D01*
Y46350D01*
X31299D02*
X44685D01*
X31299Y39264D02*
Y46350D01*
Y39264D02*
X44685D01*
X32283Y12492D02*
Y22728D01*
Y12492D02*
X39370D01*
Y22728D01*
X32283D02*
X39370D01*
X48819Y12492D02*
Y22728D01*
X41732D02*
X48819D01*
X41732Y12492D02*
Y22728D01*
Y12492D02*
X48819D01*
D58*
X301574Y71260D02*
D03*
D03*
X301575Y30118D02*
D03*
D03*
D59*
X312773Y346457D02*
X312106Y345790D01*
Y344457D01*
X312773Y343791D01*
X315439D01*
X316105Y344457D01*
Y345790D01*
X315439Y346457D01*
X314772D01*
X314106Y345790D01*
Y343791D01*
X302106Y350236D02*
Y348903D01*
Y349570D01*
X306105D01*
X305439Y350236D01*
Y346904D02*
X306105Y346237D01*
Y344905D01*
X305439Y344238D01*
X302773D01*
X302106Y344905D01*
Y346237D01*
X302773Y346904D01*
X305439D01*
X302106Y290720D02*
Y293386D01*
X304772Y290720D01*
X305439D01*
X306105Y291387D01*
Y292719D01*
X305439Y293386D01*
X312106Y292992D02*
Y291659D01*
Y292326D01*
X316105D01*
X315439Y292992D01*
X216966Y87559D02*
X216299Y86893D01*
Y85560D01*
X216966Y84893D01*
X219632D01*
X220298Y85560D01*
Y86893D01*
X219632Y87559D01*
X218965D01*
X218299Y86893D01*
Y84893D01*
X206299Y91339D02*
Y90006D01*
Y90672D01*
X210298D01*
X209632Y91339D01*
Y88006D02*
X210298Y87340D01*
Y86007D01*
X209632Y85340D01*
X206966D01*
X206299Y86007D01*
Y87340D01*
X206966Y88006D01*
X209632D01*
X206299Y31822D02*
Y34488D01*
X208965Y31822D01*
X209632D01*
X210298Y32489D01*
Y33822D01*
X209632Y34488D01*
X216299Y34095D02*
Y32762D01*
Y33428D01*
X220298D01*
X219632Y34095D01*
X53273Y289473D02*
X52606Y288806D01*
Y287473D01*
X53273Y286807D01*
X55939D01*
X56605Y287473D01*
Y288806D01*
X55939Y289473D01*
X55272D01*
X54606Y288806D01*
Y286807D01*
X42606Y293252D02*
Y291919D01*
Y292585D01*
X46605D01*
X45939Y293252D01*
Y289920D02*
X46605Y289253D01*
Y287920D01*
X45939Y287254D01*
X43273D01*
X42606Y287920D01*
Y289253D01*
X43273Y289920D01*
X45939D01*
X42606Y233736D02*
Y236402D01*
X45272Y233736D01*
X45939D01*
X46605Y234402D01*
Y235735D01*
X45939Y236402D01*
X52606Y236008D02*
Y234675D01*
Y235341D01*
X56605D01*
X55939Y236008D01*
X216693Y153000D02*
Y151667D01*
Y152333D01*
X220691D01*
X220025Y153000D01*
X206693Y150728D02*
Y153394D01*
X209359Y150728D01*
X210025D01*
X210691Y151394D01*
Y152727D01*
X210025Y153394D01*
X206693Y210244D02*
Y208911D01*
Y209578D01*
X210691D01*
X210025Y210244D01*
Y206912D02*
X210691Y206245D01*
Y204912D01*
X210025Y204246D01*
X207359D01*
X206693Y204912D01*
Y206245D01*
X207359Y206912D01*
X210025D01*
X217359Y206465D02*
X216693Y205798D01*
Y204465D01*
X217359Y203799D01*
X220025D01*
X220691Y204465D01*
Y205798D01*
X220025Y206465D01*
X219359D01*
X218692Y205798D01*
Y203799D01*
D60*
X169882Y9646D02*
D03*
D03*
X66819Y162150D02*
D03*
D03*
Y146598D02*
D03*
D03*
Y177701D02*
D03*
D03*
X31890Y105996D02*
D03*
D03*
X31890Y43004D02*
D03*
D03*
D61*
X107175Y147583D02*
G03*
X107175Y147583I-197J0D01*
G01*
X243740Y188787D02*
Y187606D01*
X241378Y188787D02*
Y187606D01*
X241299Y172646D02*
Y171465D01*
X243661Y172646D02*
Y171465D01*
D62*
X49890Y209453D02*
X56819D01*
Y151854D02*
Y209453D01*
X49890Y151854D02*
X56819D01*
X1701Y209453D02*
X34142D01*
X1701Y151854D02*
Y209453D01*
Y151854D02*
X33158D01*
X21500Y346086D02*
X24499D01*
Y344586D01*
X24000Y344086D01*
X23000D01*
X22500Y344586D01*
Y346086D01*
Y345086D02*
X21500Y344086D01*
X24000Y343087D02*
X24499Y342587D01*
Y341587D01*
X24000Y341087D01*
X23500D01*
X23000Y341587D01*
Y342087D01*
Y341587D01*
X22500Y341087D01*
X22000D01*
X21500Y341587D01*
Y342587D01*
X22000Y343087D01*
X30501Y346086D02*
X33500D01*
Y344586D01*
X33000Y344086D01*
X32000D01*
X31500Y344586D01*
Y346086D01*
Y345086D02*
X30501Y344086D01*
Y341087D02*
Y343087D01*
X32500Y341087D01*
X33000D01*
X33500Y341587D01*
Y342587D01*
X33000Y343087D01*
X39500Y345145D02*
X42500D01*
Y343646D01*
X42000Y343146D01*
X41000D01*
X40500Y343646D01*
Y345145D01*
Y344145D02*
X39500Y343146D01*
Y342146D02*
Y341146D01*
Y341646D01*
X42500D01*
X42000Y342146D01*
X74169Y310087D02*
X71170D01*
Y311587D01*
X71670Y312087D01*
X72669D01*
X73169Y311587D01*
Y310087D01*
Y311087D02*
X74169Y312087D01*
X71670Y313087D02*
X71170Y313586D01*
Y314586D01*
X71670Y315086D01*
X72169D01*
X72669Y314586D01*
Y314086D01*
Y314586D01*
X73169Y315086D01*
X73669D01*
X74169Y314586D01*
Y313586D01*
X73669Y313087D01*
X65169Y310087D02*
X62170D01*
Y311587D01*
X62670Y312087D01*
X63669D01*
X64169Y311587D01*
Y310087D01*
Y311087D02*
X65169Y312087D01*
Y315086D02*
Y313087D01*
X63169Y315086D01*
X62670D01*
X62170Y314586D01*
Y313586D01*
X62670Y313087D01*
X56169Y311028D02*
X53170D01*
Y312528D01*
X53670Y313028D01*
X54669D01*
X55169Y312528D01*
Y311028D01*
Y312028D02*
X56169Y313028D01*
Y314027D02*
Y315027D01*
Y314527D01*
X53170D01*
X53670Y314027D01*
D63*
X66032Y235528D02*
D03*
D64*
X242185Y177469D02*
G03*
X242185Y177469I295J0D01*
G01*
X242264Y182783D02*
G03*
X242264Y182783I295J0D01*
G01*
D65*
X242480Y172498D02*
D03*
X242559Y187754D02*
D03*
M02*
