M48
;Layer_Color=9474304
;FILE_FORMAT=2:5
INCH,LZ
;TYPE=PLATED
T1F00S00C0.01181
T2F00S00C0.03150
T3F00S00C0.03622
T4F00S00C0.03898
T5F00S00C0.03937
T6F00S00C0.04016
T7F00S00C0.04331
T8F00S00C0.09055
;TYPE=NON_PLATED
T9F00S00C0.01968
T10F00S00C0.03937
T11F00S00C0.07480
T12F00S00C0.08661
T13F00S00C0.11811
%
T01
X0038583Y0024303
X0231496Y0027953
X0230709Y0035827
X0249606Y0051575
X0231102Y0066929
X0230352Y0158944
X0226723Y0173181
X0235864Y020107
X0250037Y0158944
X025Y0151189
X0332004Y0160339
Y0180024
Y0199709
X0108748Y0203488
X0095362Y0197976
X0089457Y021215
X0070559Y0183803
X0067016Y0169236
X0096543Y016215
X0099693Y0143646
X0038583Y0087295
X0036Y0334587
X0029Y0346087
X0019Y0337087
X0059669Y0321587
X0066669Y0310087
X0076669Y0319087
X0100874Y0257031
X0101268Y023341
X0203543Y0258661
X0211417Y0256693
X0231102Y0259055
X0332004Y0239079
Y0219394
X0340158Y0311024
X0339764Y0326772
T02
X0123941Y0041878
Y0049752
Y0057626
Y00655
Y0073374
Y0081248
T03
X0052842Y0166874
Y0176717
Y0184591
Y0194433
T04
X0034449Y0005602
X0052165
Y0031193
X0034449
X0034449Y0068594
X0052165
Y0094185
X0034449
T05
X0013386Y0026772
Y0034646
Y004252
Y0050394
X0121941Y0016
X0131783
X0276181Y0039173
Y0049016
Y0079134
Y0088976
X0280709Y0173622
Y0183465
X0131783Y0111
X0121941
X0013386Y0113386
Y0105512
Y0097638
Y0089764
X0011Y0319587
X0018874
X0026748
X0034622
X0061047Y0336587
X0068921
X0076795
X0084669
X0087685Y0262543
X0077842
X0173228Y0287008
Y0294882
Y0302756
Y031063
X0194488Y030374
Y0293898
X0221063Y0294882
Y0302756
Y031063
Y0287008
X0280315Y0225394
Y0215551
T06
X0321063Y0016929
X0332874
Y0036614
X0321063
Y0056299
X0332874
Y0075984
X0321063
Y0095669
X0332874
T07
X020813Y0039843
Y0049843
X021813
Y0039843
Y0059842
Y0069842
Y0079843
X0218524Y0158748
Y0168748
Y0178748
Y0188748
Y0198748
X0208524
Y0188748
Y0178748
Y0168748
Y0158748
X020813Y0079843
Y0069842
Y0059842
X0054437Y0241756
X0044437
Y0251756
X0054437
Y0261756
X0044437
Y0271756
Y0281756
X0054437
Y0271756
X0303937Y029874
Y030874
Y031874
Y032874
X0313937
Y033874
X0303937
X0313937Y031874
Y030874
Y029874
T08
X0042173Y0154787
Y020652
T09
X0069291Y0017717
X0072047
Y0021654
X0069291
Y0025591
X0072047
Y0029528
X0069291
Y0033465
X0072047
X0161811Y0053543
X0164567
X0256496Y0054331
X0259252
Y0050394
X0256496
Y0058268
X0259252
Y0062205
X0256496
Y0066142
X0259252
X0299606Y0127559
Y0130315
X0303543
Y0127559
X030748
Y0130315
X0311417
Y0127559
X0315354
Y0130315
X0259055Y0175984
X0256299
Y0179921
X0259055
Y0183858
X0256299
Y0187795
X0259055
Y0191732
X0256299
X0205512Y0122047
Y0119291
X0201575
Y0122047
X0197638
Y0119291
X0193701
Y0122047
X0189764
Y0119291
X0164567Y0069291
X0161811
Y0065354
X0164567
Y0061417
X0161811
Y005748
X0164567
X0072047Y0080709
X0069291
Y0084646
X0072047
Y0088583
X0069291
Y009252
X0072047
Y0096457
X0069291
X0097244Y0122835
Y0125591
X0101181
Y0122835
X0105118
Y0125591
X0109055
Y0122835
X0112992
Y0125591
X0040551
Y0122835
X0036614
Y0125591
X0032677
Y0122835
X002874
Y0125591
X0024803
Y0122835
X0024803Y0062598
Y0059842
X002874
Y0062598
X0032677
Y0059842
X0036614
Y0062598
X0040551
Y0059842
X0040945Y0303937
Y0306693
X0037008
Y0303937
X0033071
Y0306693
X0029134
Y0303937
X0025197
Y0306693
X004685Y031811
X0049606
Y0322047
X004685
Y0325984
X0049606
Y0329921
X004685
Y0333858
X0049606
X0032677Y0349213
Y0351969
X002874
Y0349213
X0024803
Y0351969
X0020866
Y0349213
X0016929
Y0351969
X0065945
Y0349213
X0069882
Y0351969
X0073819
Y0349213
X0077756
Y0351969
X0081693
Y0349213
X0095866Y0333858
X0098622
Y0329921
X0095866
Y0325984
X0098622
Y0322047
X0095866
Y031811
X0098622
X0191732Y0324803
Y0327559
X0195669
Y0324803
X0199606
Y0327559
X0203543
Y0324803
X020748
Y0327559
Y0238583
Y0235827
X0203543
Y0238583
X0199606
Y0235827
X0195669
Y0238583
X0191732
Y0235827
X0136614Y0235433
X0133858
Y023937
X0136614
Y0243307
X0133858
Y0247244
X0136614
Y0251181
X0133858
X0256299Y0269291
X0259055
Y0273228
X0256299
Y0277165
X0259055
Y0281102
X0256299
Y0285039
X0259055
X0299606Y0269685
Y0266929
X0303543
Y0269685
X030748
Y0266929
X0311417
Y0269685
X0315354
Y0266929
T10
X008498Y0040002
X0247488Y0024612
Y0094691
X0246701Y0143911
X0125134Y0206041
X008498Y0100632
X0125134Y027612
X0158663Y0252362
X0219293
X0246701Y021399
X0345669Y0281892
Y0342522
T11
X0326969Y012126
T12
X0240795Y0012604
Y0106699
X0240008Y0131904
X0118441Y0194034
Y0288128
X0240008Y0225998
T13
X0014173Y0008161
X0059449Y0044382
X0149941Y0037
X0212205Y0011811
X0279331Y0011811
Y0116142
X0279921Y0141732
X0212598Y0133079
X0212205Y0107874
X0150441Y00855
X0059449Y0107374
X0011898Y013774
X0014173Y0071153
X00095Y0338087
X0086169Y0318087
X0087094Y0291677
X015Y0305512
X0244094
X0279921Y0254724
X031063Y0282283
Y0355906
X0212598Y0225205
M30
